<svg xmlns="http://www.w3.org/2000/svg" viewBox="0 0 397.65 355.36"><defs><style>.cls-1{fill:red;}.cls-2{fill:#fff;}</style></defs><g id="Capa_2" data-name="Capa 2"><g id="Capa_1-2" data-name="Capa 1"><path class="cls-1" d="M358.69,201.22l-23.28-23.4,23.33-23.34a25.3,25.3,0,1,0-7.72-7.71l-23.3,23.32L322.63,165h0a5.47,5.47,0,0,0-3.86-1.6L277,163.31a75.38,75.38,0,0,0-16.93-35.26l9.53-9.51A25.33,25.33,0,1,0,262,110.7l-9.73,9.7a75.4,75.4,0,0,0-34.7-16.62l0-24.86A5.46,5.46,0,0,0,216,75.06h0l-4.88-4.88L234.72,46.7A25.31,25.31,0,1,0,227,39L203.41,62.46,179.84,38.91a25.32,25.32,0,1,0-7.72,7.72l23.55,23.53-5.12,5.09h0a5.48,5.48,0,0,0-1.6,3.86l0,24.64a75.42,75.42,0,0,0-35.31,17.09l-9.68-9.71a25.31,25.31,0,1,0-7.84,7.6l9.79,9.81a75.45,75.45,0,0,0-17.07,34.83l-49.66-.05a5.49,5.49,0,0,0-3.86,1.59h0L70.4,169.8,46.7,146a25.29,25.29,0,1,0-7.73,7.7l23.71,23.84-23.77,23.8A25.3,25.3,0,1,0,46.63,209l23.75-23.77,4.87,4.9h0a5.42,5.42,0,0,0,3.85,1.6l49.44.06a75.48,75.48,0,0,0,16.66,35.42L136,236.48a25.31,25.31,0,1,0,7.82,7.61l9.16-9.13a75.39,75.39,0,0,0,35.82,17.12l0,24.13a5.47,5.47,0,0,0,1.6,3.86h0l5.11,5.1-23.6,23.47a25.31,25.31,0,1,0,7.7,7.74l23.62-23.49,23.57,23.54a25.3,25.3,0,1,0,7.71-7.72L210.89,285.2l4.89-4.87h0a5.48,5.48,0,0,0,1.6-3.86l0-24.62A75.34,75.34,0,0,0,252,234.94l9.83,9.85a25.28,25.28,0,1,0,7.61-7.83l-9.71-9.73a75.29,75.29,0,0,0,17.13-35l41.84,0a5.46,5.46,0,0,0,3.86-1.59h0l5.1-5.1L351,208.92a25.31,25.31,0,1,0,7.74-7.7ZM127.39,180.9l-46-.05-3.29-3.31,3.3-3.3,46,0C127.33,176.49,127.31,178.7,127.39,180.9Zm72.46-99.51,3.54-3.52,3.3,3.3,0,21.32q-3.42-.15-6.84,0Zm6.63,192.8-3.31,3.3L199.64,274l0-20.69c2.28.09,4.57.07,6.84-.05Zm-3.49-39a57.54,57.54,0,1,1,57.6-57.47A57.53,57.53,0,0,1,203,235.21Zm113.49-53.87-38.25-.05c.11-2.35.12-4.71,0-7.06l38.24,0,3.51,3.54Z"/><path class="cls-2" d="M162.69,191.81l36.44,21a3.77,3.77,0,0,0,3.47.14l38.45-18.5a3.15,3.15,0,0,0,.19-5.66l-27.78-15.95a20.09,20.09,0,0,0,3.76-2.58,18.16,18.16,0,0,0,.71-27,21.79,21.79,0,0,0-29.16-.9,18.15,18.15,0,0,0-.71,27,20.23,20.23,0,0,0,3.31,2.63l-28.53,14.19A3.14,3.14,0,0,0,162.69,191.81Z"/></g></g></svg>