<svg xmlns="http://www.w3.org/2000/svg" viewBox="0 0 415.5 429.88"><defs><style>.cls-1{fill:#fff;}.cls-2{fill:red;}</style></defs><g id="Capa_2" data-name="Capa 2"><g id="Capa_1-2" data-name="Capa 1"><path class="cls-1" d="M172.6,205.8c-4.81-2.43-9.63-4.81-14.45-7.23-5.19-2.6-10.36-5.22-15.55-7.82-1.91-.95-3.83-1.85-5.74-2.79a10.53,10.53,0,0,0-9.65.14c-4.46,2.12-8.92,4.25-13.36,6.43q-9.39,4.6-18.74,9.29c-2.34,1.16-4.68,2.35-7,3.55a4.54,4.54,0,0,0-1.21.86,15,15,0,0,0-1.12,1.55l0,12.22a5.43,5.43,0,0,0,2.64,2.84c2.39,1.44,4.8,2.84,7.23,4.15,9,4.83,17.92,9.61,26.88,14.42,1,.53,2,1.11,2.94,1.69,3.27,1.93,6.48,1.59,9.68-.3s6.65-4,10-5.86c5.53-3.1,11.09-6.1,16.62-9.17,3.16-1.76,6.3-3.55,9.42-5.4a17.53,17.53,0,0,0,2.89-2.2,9.27,9.27,0,0,0,1.22-1.85V208.23A4.87,4.87,0,0,0,172.6,205.8Zm-46.9-12.91,1.8.87c1.34.67,2.67,1.37,4,2a1.22,1.22,0,0,0,.94,0c1.7-.67,3.39-1.4,5.09-2.11l.3-.12c-.54,1.67-1.06,3.24-1.59,4.87l5.81,2.79v.13l-2.41.32c-1.58.21-3.16.42-4.74.6-.33,0-.48.24-.59.61-.49,1.57-1,3.13-1.54,4.78-.11-.2-.2-.34-.27-.49-.78-1.65-1.56-3.29-2.31-5a.81.81,0,0,0-.71-.54l-7.81-.9c-.16,0-.32-.07-.58-.12l6.6-3C127,196.05,126.4,194.55,125.7,192.89ZM111,215.18a15.79,15.79,0,0,1-6.55-1.57,9.24,9.24,0,0,1-2.32-1.66,3,3,0,0,1,.09-4.57,9.65,9.65,0,0,1,4-2.26,19.32,19.32,0,0,1,5.79-.86,17.11,17.11,0,0,1,8.55,1.9,7.47,7.47,0,0,1,2,1.63,2.92,2.92,0,0,1,0,3.94,7.26,7.26,0,0,1-3.11,2.17A19.05,19.05,0,0,1,111,215.18Zm21.29,12L118,219.62v-.12l20.59-4Zm19.38-12.17,0,0c-1.06.9-2.06.55-3.15,0-3.28-1.75-6.6-3.37-9.9-5l-.72-.37,3.06-1.56,10-5.05a1,1,0,0,1,1,0c3.82,2,7.64,3.89,11.46,5.84a1.9,1.9,0,0,1,.29.19Z"/><path class="cls-1" d="M171.78,250.84c-3.88,2.29-7.8,4.52-11.72,6.72-6.82,3.81-13.66,7.56-20.48,11.37-1.47.82-2.89,1.77-4.33,2.67a9.31,9.31,0,0,1-10.42.08c-3.88-2.31-7.86-4.35-11.8-6.48-6.69-3.6-13.4-7.16-20.08-10.78-1.81-1-3.57-2.11-5.34-3.21A5,5,0,0,1,85.72,249v11.58a5.06,5.06,0,0,0,2.11,2.4c2.56,1.53,5.12,3.06,7.72,4.48,5.85,3.18,11.74,6.27,17.6,9.43,4.17,2.25,8.32,4.58,12.5,6.8a22.38,22.38,0,0,0,3.19,1.13,1.13,1.13,0,0,1,.22.11h1.59a14.31,14.31,0,0,0,5.09-2c1.1-.68,2.19-1.4,3.31-2q6.19-3.51,12.43-7c6-3.33,11.95-6.6,17.91-10a46,46,0,0,0,4.25-2.88,4.59,4.59,0,0,0,1.6-2.16l0-11.45A7.63,7.63,0,0,1,171.78,250.84Z"/><path class="cls-1" d="M173.19,231c-2.13,1.4-4.27,2.79-6.47,4-6.8,3.8-13.63,7.5-20.43,11.3-3.68,2.07-7.31,4.28-11,6.4-2.2,1.28-4.48,2.21-6.92,1.54a18.68,18.68,0,0,1-3.79-1.61c-3.47-1.84-6.9-3.78-10.36-5.64-5-2.69-10-5.34-15-8-3.17-1.7-6.33-3.42-9.48-5.19a29.28,29.28,0,0,1-2.73-1.92,3.7,3.7,0,0,1-1.3-1.86l0,11.58a5,5,0,0,0,2.4,2.71c3,1.78,6,3.53,9.1,5.19,6.91,3.73,13.85,7.39,20.77,11.1,2.51,1.35,5,2.73,7.5,4.16a8.53,8.53,0,0,0,9,0c3.17-1.81,6.29-3.76,9.47-5.55,4.75-2.67,9.54-5.24,14.3-7.89q6.47-3.6,12.88-7.3a22.27,22.27,0,0,0,2.5-1.81,4.92,4.92,0,0,0,1.58-2.12V228.46A4.86,4.86,0,0,1,173.19,231Z"/><path class="cls-1" d="M243.69,225c2.39,1.44,4.8,2.84,7.23,4.15,9,4.83,17.92,9.61,26.88,14.42,1,.53,2,1.11,2.94,1.69,3.27,1.93,6.48,1.59,9.68-.3s6.65-4,10-5.86c5.52-3.1,11.09-6.1,16.62-9.17q4.74-2.62,9.42-5.39a18.17,18.17,0,0,0,2.89-2.21,9.42,9.42,0,0,0,1.22-1.85V208.4A4.9,4.9,0,0,0,327.9,206c-4.81-2.43-9.64-4.81-14.45-7.23-5.19-2.6-10.36-5.22-15.55-7.81-1.91-1-3.83-1.86-5.74-2.8a10.53,10.53,0,0,0-9.65.14c-4.46,2.12-8.92,4.25-13.37,6.43q-9.37,4.61-18.73,9.29c-2.34,1.16-4.68,2.35-7,3.55a4.39,4.39,0,0,0-1.21.86,14.1,14.1,0,0,0-1.12,1.56l0,12.21A5.39,5.39,0,0,0,243.69,225Zm43.89,2.39-14.31-7.61v-.11l20.59-4Zm18.64-24.2a1,1,0,0,1,1,0q5.73,2.94,11.46,5.84a3.26,3.26,0,0,1,.29.19l-12,6h0c-1.05.9-2.05.55-3.14,0-3.28-1.75-6.6-3.37-9.9-5l-.73-.37,3.07-1.56C299.54,206.57,302.88,204.9,306.22,203.2ZM281,193.06l1.8.88c1.33.66,2.66,1.36,4,2a1.22,1.22,0,0,0,.94,0c1.7-.67,3.39-1.4,5.09-2.11l.3-.12c-.54,1.67-1.06,3.24-1.59,4.88l5.81,2.78v.13l-2.41.32c-1.58.21-3.16.42-4.74.61-.33,0-.48.23-.6.6-.49,1.57-1,3.13-1.54,4.78-.11-.2-.19-.34-.26-.49-.78-1.65-1.56-3.29-2.31-5a.81.81,0,0,0-.71-.54c-2.61-.29-5.21-.6-7.81-.9-.16,0-.32-.06-.58-.12l6.6-3Zm-23.49,14.49a9.52,9.52,0,0,1,4-2.25,19,19,0,0,1,5.79-.87,17.24,17.24,0,0,1,8.55,1.9,7.66,7.66,0,0,1,2,1.63,2.93,2.93,0,0,1,0,3.94,7.32,7.32,0,0,1-3.11,2.17,19.05,19.05,0,0,1-8.48,1.28,15.79,15.79,0,0,1-6.55-1.57,9.24,9.24,0,0,1-2.32-1.66A3,3,0,0,1,257.51,207.55Z"/><path class="cls-1" d="M243.12,263.12c2.56,1.53,5.12,3.07,7.72,4.48,5.85,3.18,11.74,6.27,17.6,9.43,4.17,2.25,8.32,4.58,12.5,6.8a21.21,21.21,0,0,0,3.19,1.13l.22.11h1.59a14.47,14.47,0,0,0,5.09-2c1.1-.69,2.19-1.41,3.3-2q6.21-3.52,12.44-7c6-3.32,12-6.6,17.91-10a46.44,46.44,0,0,0,4.24-2.87,4.53,4.53,0,0,0,1.61-2.17l0-11.45a7.68,7.68,0,0,1-3.47,3.42c-3.89,2.3-7.8,4.52-11.72,6.72-6.82,3.81-13.66,7.56-20.48,11.37-1.47.82-2.89,1.77-4.34,2.67a9.3,9.3,0,0,1-10.41.08c-3.88-2.3-7.86-4.35-11.81-6.48-6.68-3.6-13.39-7.16-20.07-10.78-1.81-1-3.57-2.1-5.34-3.21a5,5,0,0,1-1.89-2.24v11.58A5.06,5.06,0,0,0,243.12,263.12Z"/><path class="cls-1" d="M243.43,244.47c3,1.78,6,3.54,9.1,5.19,6.91,3.73,13.85,7.39,20.76,11.1,2.52,1.35,5,2.73,7.51,4.16a8.53,8.53,0,0,0,9,0c3.17-1.81,6.29-3.76,9.47-5.55,4.75-2.67,9.54-5.24,14.3-7.89q6.45-3.6,12.88-7.29a22.38,22.38,0,0,0,2.5-1.82,4.83,4.83,0,0,0,1.57-2.12l0-11.58a4.86,4.86,0,0,1-2.08,2.54c-2.13,1.4-4.27,2.79-6.47,4-6.8,3.8-13.64,7.5-20.43,11.31-3.68,2.06-7.31,4.27-11,6.39-2.2,1.28-4.48,2.21-6.92,1.55a19.39,19.39,0,0,1-3.8-1.62c-3.46-1.84-6.89-3.78-10.35-5.64-5-2.69-10-5.34-15-8-3.17-1.71-6.34-3.43-9.48-5.2a27.51,27.51,0,0,1-2.73-1.92,3.75,3.75,0,0,1-1.31-1.85v11.57A5,5,0,0,0,243.43,244.47Z"/><path class="cls-2" d="M414.67,72.29A6.18,6.18,0,0,0,406.24,70L368.7,91.64,212.58,1.28a9.49,9.49,0,0,0-9.5,0l-156.32,90L9.27,69.58A6.18,6.18,0,0,0,3.08,80.27l37.28,21.58-.2,180.88A9.52,9.52,0,0,0,44.9,291l156.34,90.49-.05,42.25a6.18,6.18,0,0,0,12.35,0l0-42.26,156.53-90.14a9.47,9.47,0,0,0,4.76-8.22l.2-180.88L412.4,80.73A6.18,6.18,0,0,0,414.67,72.29Zm-355.5,205,.18-164.42,142.09,82.25-.18,164.42Zm296.71.33L213.61,359.52l.18-164.42,142.27-81.93Z"/></g></g></svg>