<svg xmlns="http://www.w3.org/2000/svg" viewBox="0 0 560.55 269.82"><defs><style>.cls-1{fill:red;}.cls-2{fill:#fff;}</style></defs><g id="Capa_2" data-name="Capa 2"><g id="Capa_1-2" data-name="Capa 1"><path class="cls-1" d="M513.44,156.72A90,90,0,0,0,426.32,88.8h-.83a67.87,67.87,0,0,0-95-35.78,134.64,134.64,0,0,0-208.12-7.39A67.91,67.91,0,0,0,48.87,136.1,67.85,67.85,0,0,0,25.8,254.49a56.6,56.6,0,0,0,38.25,14.84l439.57.49A56.88,56.88,0,0,0,560.55,213v-.2A56.89,56.89,0,0,0,513.44,156.72Zm31,56.27a40.77,40.77,0,0,1-40.77,40.68l-439.57-.49a40.61,40.61,0,0,1-27.38-10.62c-.28-.25-.56-.5-.86-.73a51.7,51.7,0,0,1-9.11-71.89A52.18,52.18,0,0,1,53.38,151.6a16.14,16.14,0,0,0,10.66-21,51.72,51.72,0,0,1,56-68.93,15.85,15.85,0,0,0,2.27.16,16.11,16.11,0,0,0,12.13-5.47,118.58,118.58,0,0,1,89.05-40.17,117.17,117.17,0,0,1,53.33,12.72,119.59,119.59,0,0,1,40.79,34A16.15,16.15,0,0,0,338,67.31a51.73,51.73,0,0,1,53.72,3.38,51.76,51.76,0,0,1,18.67,23.9A16.16,16.16,0,0,0,425.47,105h.83a73.69,73.69,0,0,1,71.48,55.72,16.13,16.13,0,0,0,12.9,12,40.59,40.59,0,0,1,33.72,40.15Z"/><path class="cls-2" d="M315.67,129c-3-13.06-6.08-26.57-9.05-39.86a23.77,23.77,0,0,0-13.15-16.73c-21.18-10.31-40.27-19.59-59.39-28.8a23.47,23.47,0,0,0-10.28-2.39h0a24.77,24.77,0,0,0-10.65,2.45c-7.57,3.58-15.21,7.28-22.6,10.86l-7.45,3.6Q168.88,65,154.66,71.92c-8.1,3.92-11,9.9-12,14.22-4.49,19.48-9.36,40.81-14.92,65.2a22.94,22.94,0,0,0,4.56,20.1c9.38,11.66,18.89,23.54,28.09,35l12.26,15.31a23.84,23.84,0,0,0,19.17,9.2l14,0h51.47c7.36,0,13.26-2.7,17.53-8,9.61-12,19.41-24.2,28.9-36l12.33-15.33a23.47,23.47,0,0,0,4.67-20.28Q318.25,140.23,315.67,129ZM308,165.16q-20.62,25.67-41.25,51.33c-2.46,3.09-5.64,4.13-9.36,4.12h-14.8l-16.4,0h-2.57l-17.7,0h-14a13.52,13.52,0,0,1-11-5.3q-20.17-25.18-40.36-50.36A12.56,12.56,0,0,1,138,153.66q7.43-32.59,14.91-65.18c.8-3.49,3.25-5.66,6.35-7.16q14.22-6.88,28.44-13.74c10-4.82,19.95-9.68,30-14.42a14.44,14.44,0,0,1,6.17-1.45,13.2,13.2,0,0,1,5.76,1.35q29.7,14.31,59.35,28.79a13.29,13.29,0,0,1,7.53,9.6c4.63,20.78,9.45,41.53,14.16,62.29A12.91,12.91,0,0,1,308,165.16Z"/><path class="cls-2" d="M286.61,153.39a5.89,5.89,0,0,0-3-1.1,83.06,83.06,0,0,1-8.61-1.11,4.73,4.73,0,0,1-3.87-5.12c.08-1.62.22-3.24.16-4.88A49.51,49.51,0,0,0,264,117c-.2-.33-.64-.67-.33-1.13,1.18-1.74,1.83-3.85,4-4.87,1.74-.82,3.32-2,5-2.94a7.77,7.77,0,0,0,2.72-2.34,3.77,3.77,0,0,0-.29-4.83,3.69,3.69,0,0,0-4.67-.31,16.37,16.37,0,0,0-2.55,2.3c-2.57,2.43-4.53,5.67-8.52,6.25-.72.1-1.13.25-1.68-.31a46.41,46.41,0,0,0-27.74-13.65c-.45-.06-1.22,0-1.29-.46-.21-1.6-1.81-2.69-1.42-4.52A26,26,0,0,0,227.5,86c.08-2.16,1-4.25.53-6.46a3.75,3.75,0,0,0-3.86-3.12,3.9,3.9,0,0,0-3.43,3.63,14.09,14.09,0,0,0,.22,3.42c.4,2.13.58,4.3.86,6.46.36,1.64-1.16,2.62-1.41,4-.14.78-.44.94-1.13,1-1.86.24-3.72.49-5.54.9a45.53,45.53,0,0,0-22.58,12.34c-.36.35-.63,1-1.29.81-1.78-.58-3.63-.91-5-2.47a71.13,71.13,0,0,0-6-6,3.62,3.62,0,0,0-5.33.26,3.89,3.89,0,0,0,.69,5.37,17.65,17.65,0,0,0,2.71,1.79,46.06,46.06,0,0,1,6.06,4,4.47,4.47,0,0,1,1.09,5.83,45.8,45.8,0,0,0-3.3,6.84,47.68,47.68,0,0,0-2.93,22.06c.06.58.41,1.44-.15,1.7-1.65.78-2.68,2.6-4.8,2.59a39.73,39.73,0,0,0-4.85.53,16.1,16.1,0,0,0-5,.89,3.64,3.64,0,0,0,2.2,6.92,31.72,31.72,0,0,0,3.1-1c3.35-1.09,6.47-3.26,10.35-1.87.8.29,1.31.39,1.62,1.22a46.61,46.61,0,0,0,19.28,24.2c.34.21,1,.46.87.78-.83,1.65.32,3.53-.86,5.2s-2.12,3.65-3.34,5.38a11.58,11.58,0,0,0-1.83,3.11,3.8,3.8,0,0,0,1.48,4.46,3.75,3.75,0,0,0,4.75-.93,10.3,10.3,0,0,0,1.7-3.37c1.26-3.25,1.61-6.9,4.88-9.21.92-.64,1.36-.93,2.36-.58a46.42,46.42,0,0,0,15.1,2.58,48.61,48.61,0,0,0,15.13-2.45c.52-.16,1.2-.77,1.67-.22,1.2,1.44,3,2.35,3.5,4.42s1.37,3.87,2,5.81a10.43,10.43,0,0,0,1.21,2.62,3.66,3.66,0,0,0,6.5-3.38,12.78,12.78,0,0,0-1.68-2.79,33.32,33.32,0,0,1-3.78-6.37c-.72-1.7-.36-4.36.6-5a47.55,47.55,0,0,0,19.21-24.27c.18-.47.1-1.18.82-1.28,2.17-.3,4.32-.78,6.47.24,1.47.69,3.05,1.15,4.56,1.75a9.72,9.72,0,0,0,3.85.89,3.48,3.48,0,0,0,3.51-2.4C288.79,155.36,287.74,154.28,286.61,153.39ZM230.2,105.1a36.4,36.4,0,0,1,20.26,10.34c-5.24,3.73-10.23,7.33-15.28,10.86-2.44,1.7-5,.48-5.14-2.45-.36-5.79-.66-11.58-1-17.37C229,105.64,228.93,104.89,230.2,105.1ZM220.9,137c1.37-1.41,3.32-.41,5-.57,1.36-.13,4.65,3.65,4.62,5.31-.51,1.51-.08,3.72-1.4,4.91s-3.23,2.4-5,2.24a6.49,6.49,0,0,1-6.25-7.54C218,139.54,219.67,138.23,220.9,137ZM199.14,114.2a36.91,36.91,0,0,1,20.43-9.32c-.3,5.34-.58,10.45-.87,15.57-.07,1.2-.09,2.42-.23,3.61a3.15,3.15,0,0,1-5.16,2.36c-4.78-3.38-9.49-6.87-14.29-10.23C197.72,115.29,198.45,114.82,199.14,114.2Zm-12.56,29.94c.06-.6,0-1.21,0-1.82a39.67,39.67,0,0,1,4.78-18.38c.59-1.1,1-1.18,1.93-.32,4.22,3.88,8.5,7.7,12.79,11.52a3.29,3.29,0,0,1,1.23,3.37,3.21,3.21,0,0,1-2.59,2.46c-5.39,1.55-10.79,3.07-16.15,4.72C186.89,146.22,186.42,145.75,186.58,144.14Zm24.3,13c-2.18,5.23-4.38,10.45-6.49,15.7-.48,1.22-.88,1.22-1.85.51a38.94,38.94,0,0,1-13.09-16.53c-.53-1.26-.26-1.58,1.06-1.78,5.65-.88,11.28-1.91,16.93-2.82a3.07,3.07,0,0,1,3.83,3.24A3.71,3.71,0,0,1,210.88,157.1Zm23.88,21.59a38,38,0,0,1-10.7,1.52,40.69,40.69,0,0,1-10.53-1.49c-1-.25-1.42-.51-.77-1.65,2.85-5,5.58-10.14,8.41-15.19,1.42-2.54,4.17-2.74,5.62-.25,3,5.21,5.83,10.56,8.77,15.82C236.17,178.54,235.32,178.53,234.76,178.69Zm24.3-22.18a37.86,37.86,0,0,1-13.72,17.1c-.68.47-1,.4-1.3-.39-2.27-5.57-4.59-11.13-6.88-16.7a7.28,7.28,0,0,1-.26-1.11,3.24,3.24,0,0,1,3.65-3.41c5.88,1,11.75,2,17.63,3C259.21,155.17,259.45,155.54,259.06,156.51Zm-1.37-11.4c-4.56-1.33-9.12-2.68-13.7-4a3.62,3.62,0,0,1-2.93-2.62c-.39-1.57.5-2.59,1.6-3.56,4.18-3.73,8.36-7.47,12.48-11.29,1-.93,1.33-.65,1.89.38a39.83,39.83,0,0,1,4.68,18C261.75,146.3,261.75,146.3,257.69,145.11Z"/></g></g></svg>