<svg xmlns="http://www.w3.org/2000/svg" viewBox="0 0 650.49 224.57"><defs><style>.cls-1{fill:#fff;}.cls-2{fill:red;}</style></defs><g id="Capa_2" data-name="Capa 2"><g id="Capa_1-2" data-name="Capa 1"><path class="cls-1" d="M466.77,107.42l-35.13,0,0-33.87a5.38,5.38,0,0,0-5.52-5.21H413.67l.07-61.1A7.18,7.18,0,0,0,406.37.24L186.66,0a7.17,7.17,0,0,0-7.38,6.93l-.15,132.61a7.16,7.16,0,0,0,7.37,6.94l76.3.09a136.51,136.51,0,0,1-11,34,6.57,6.57,0,0,0,.49,6.64,7.51,7.51,0,0,0,6.2,3.2l52,.05,0,18.23a5.37,5.37,0,0,0,5.53,5.2l79.62.09v6.32a4.3,4.3,0,0,0,4.42,4.16l66.61.08a4.3,4.3,0,0,0,4.43-4.16l.12-108.83A4.29,4.29,0,0,0,466.77,107.42Zm-156.15-34-.07,59.37-116.66-.13L194,13.88l205,.23-.06,54.16-82.76-.09A5.38,5.38,0,0,0,310.62,73.38Zm85,130.23-74.09-.08v-6l43.94,0V198a5.55,5.55,0,0,0,11.07,0v-.48l19.09,0Zm.1-92.11-.08,75.66-74.09-.08.12-108.49,98.93.11,0,28.67-20.42,0A4.31,4.31,0,0,0,395.73,111.5Zm66.5,104.74-57.76-.07v-4.9l24.46,0v.41a4.43,4.43,0,0,0,8.85,0v-.41l24.45,0Zm0-13.23L404.48,203l.09-74,57.75.06Zm.09-82.37-57.76-.07v-4.9l57.76.07Z"/><path class="cls-2" d="M148.64,145.76a8.33,8.33,0,0,0,8.35-8.33l.06-51.17a8.34,8.34,0,0,0-8.33-8.34L111.62,90.1,8.38,90A8.35,8.35,0,0,0,0,98.31l0,27.15a8.33,8.33,0,0,0,8.33,8.35l103.24.11Z"/><path class="cls-2" d="M642.17,90.68l-103.95-.11L502,77a8.34,8.34,0,0,0-8.34,8.33l-.06,53.84a8.33,8.33,0,0,0,8.33,8.35l36-13.17,104.23.12a8.33,8.33,0,0,0,8.34-8.33l0-27.15A8.34,8.34,0,0,0,642.17,90.68Z"/><rect class="cls-2" x="528.42" y="-10.14" width="21.91" height="134.01" rx="8.34" transform="translate(481.93 596.18) rotate(-89.94)"/><rect class="cls-2" x="538.79" y="112.96" width="21.91" height="112" rx="8.34" transform="translate(380.18 718.52) rotate(-89.94)"/><rect class="cls-2" x="89.79" y="1.21" width="21.91" height="110.32" rx="8.34" transform="translate(44.26 157.06) rotate(-89.94)"/><rect class="cls-2" x="100.16" y="101.47" width="21.91" height="134.01" rx="8.34" transform="translate(-57.49 279.4) rotate(-89.94)"/></g></g></svg>