<svg xmlns="http://www.w3.org/2000/svg" viewBox="0 0 394.5 326.2"><defs><style>.cls-1{fill:#fff;}.cls-2{fill:red;}</style></defs><g id="Capa_2" data-name="Capa 2"><g id="Capa_1-2" data-name="Capa 1"><path class="cls-1" d="M95.33,264.1h0l-.17,0-14,0a.72.72,0,0,1-.53-.35l-11.1-20a.74.74,0,0,0-.65-.36l-45.35-.05a.71.71,0,0,0-.65.36L11.2,264.34l-11.1,20a.81.81,0,0,0,0,.77l11.1,19.95,11.31,20.72a.74.74,0,0,0,.65.36l45.53.05a.74.74,0,0,0,.65-.36l11.14-20a.86.86,0,0,1,.31-.29l14.49,0a.84.84,0,0,0,.82-.85L96.15,265A.85.85,0,0,0,95.33,264.1ZM37.93,311H31.3L16.15,284.23l15-26.84,6.77.06,3.38,6.13-11.08,19.9L30,284.84l11.25,20.22Zm23.15.16H54.24L50.82,305l11.14-20,.1-1.43L50.88,263.51l3.39-6H61.1L76,284.39Z"/><path class="cls-2" d="M49.21,219.7a249.66,249.66,0,0,1,319,14.94v9.88a6.41,6.41,0,1,0,12.81,0V231.8a6.37,6.37,0,0,0-2.37-5A262.52,262.52,0,0,0,41.48,209.48a6.41,6.41,0,0,0,7.73,10.22Z"/><circle class="cls-2" cx="200.69" cy="69.53" r="69.53"/><path class="cls-1" d="M394.48,293.86a11.73,11.73,0,0,1-11.74,11.72l-14.71,0-48.92-.05-20.05,0-20.67,0-35.25,0H217.32l-15.5,0-14.28,0-27.35,0-15.8,0H133.15l-27.45,0,0-41.72,277,.31A11.73,11.73,0,0,1,394.5,275.6Z"/></g></g></svg>