<svg xmlns="http://www.w3.org/2000/svg" viewBox="0 0 488.12 300.01"><defs><style>.cls-1{fill:red;}.cls-2{fill:#fff;}</style></defs><g id="Capa_2" data-name="Capa 2"><g id="Capa_1-2" data-name="Capa 1"><path class="cls-1" d="M450,225.12a37.45,37.45,0,0,0-36.6,29.39l-72.31,0L293.76,207.1a76.48,76.48,0,0,0,26-49.64l55.69.06a37.46,37.46,0,1,0,.26-16.15l-55.94-.06a76.48,76.48,0,0,0-25.1-49l46.69-46.59,72.77.2a37.44,37.44,0,1,0,0-16.15L338,29.53h0a8,8,0,0,0-5.71,2.36L281.36,82.7a76.38,76.38,0,0,0-75-.38L155.84,31.69a8,8,0,0,0-5.7-2.37h0L74,29.35A37.44,37.44,0,1,0,74,45.5l72.77,0L193,91.77a76.56,76.56,0,0,0-25.65,49.37l-55.12-.06a37.41,37.41,0,1,0,.23,16.15l54.87.06a76.54,76.54,0,0,0,26.3,50.08l-47.06,47-72.3-.2a37.46,37.46,0,1,0,0,16.15l75.66.2h0a8,8,0,0,0,5.71-2.35l51.53-51.42a76.44,76.44,0,0,0,73.21-.21L332,268.32a8.05,8.05,0,0,0,5.71,2.37h0l75.65,0A37.45,37.45,0,1,0,450,225.12ZM183,149.23a60.49,60.49,0,1,1,60.42,60.56A60.55,60.55,0,0,1,183,149.23Z"/><path class="cls-2" d="M201.94,158.94a7.63,7.63,0,0,0,3.81,6.61l12.62,7.31,0-19.34L202,144Z"/><path class="cls-2" d="M250.46,164.58l16.69-9.31-7.48-4.33,6.79-3.91a7.62,7.62,0,0,0,3.83-6.61l0-14.78L253.58,135l0,18.84a5.14,5.14,0,0,1-3.39,1.56,4.08,4.08,0,0,1-3.52-1.81l0-18.6-16.44-9.56v7.39l-4.39-2.54a7.64,7.64,0,0,0-7.64,0l-12.57,7.24,16.25,9.44,8.56-4.77A7.64,7.64,0,0,0,234,147l1.48.86-10.2,5.69,0,19.48,5.26-3v6.59a7.63,7.63,0,0,0,3.82,6.62L247,190.52l0-19.34-16.44-9.56a4.25,4.25,0,0,1-.35-.88c-.06-.4-.11-.8-.16-1.19a4.52,4.52,0,0,1,.61-2.27l.71-.91a3.33,3.33,0,0,1,1.44-.92,3.17,3.17,0,0,1,1.54-.38l-.13.07Z"/><path class="cls-2" d="M253.88,190.68l12.91-7.43a7.63,7.63,0,0,0,3.82-6.61l0-14.78L253.9,171.2Z"/><path class="cls-2" d="M266.83,119.05l-12.73-7.36a7.64,7.64,0,0,0-7.64,0l-12.57,7.24,16.25,9.44Z"/></g></g></svg>