<?xml version="1.0" encoding="UTF-8"?>
<svg width="123px" height="144px" viewBox="0 0 123 144" version="1.1" xmlns="http://www.w3.org/2000/svg" xmlns:xlink="http://www.w3.org/1999/xlink">
    <title>Group 8</title>
    <g id="Page-1" stroke="none" stroke-width="1" fill="none" fill-rule="evenodd">
        <g id="Group-8">
            <g id="Group-7">
                <path d="M0,144 L9.44500875,120.813559 L11.2579615,120.813559 L20.7029703,144 L18.317387,144 L15.3908602,136.750751 L5.24647263,136.750751 L2.3516329,144 L0,144 Z M10.3684604,123.491063 L5.72630533,134.954127 L14.8861305,134.954127 L10.3684604,123.491063 Z" id="Shape" fill="#FFFFFF" fill-rule="nonzero"></path>
                <path d="M24.3564356,144 L24.3564356,120.813559 L33.5912116,120.813559 C37.4228276,120.813559 40.1881188,124.504424 40.1881188,128.095347 C40.1881188,131.88383 37.6128436,135.442214 33.7812275,135.442214 L26.5248531,135.442214 L26.5248531,143.997676 L24.3564356,143.997676 L24.3564356,144 Z M26.5248531,133.417816 L33.6538051,133.417816 C36.2916738,133.417816 37.9884046,130.903008 37.9884046,128.095347 C37.9884046,125.187746 35.9161128,122.837957 33.4660246,122.837957 L26.5248531,122.837957 L26.5248531,133.417816 Z" id="Shape" fill="#FFFFFF" fill-rule="nonzero"></path>
                <path d="M38.970297,144 L48.4153058,120.813559 L50.2282586,120.813559 L59.6732673,144 L57.287684,144 L54.3611572,136.750751 L44.2167697,136.750751 L41.3219299,144 L38.970297,144 Z M49.3387574,123.491063 L44.6966024,134.954127 L53.8564275,134.954127 L49.3387574,123.491063 Z" id="Shape" fill="#FFFFFF" fill-rule="nonzero"></path>
                <path d="M71.6053192,120.813559 C75.6095816,120.813559 78.5347293,122.874118 79.9328278,125.805658 L78.1524014,126.901261 C76.7226309,123.873454 73.9241717,122.844321 71.4763683,122.844321 C66.0717451,122.844321 63.1171876,127.740153 63.1171876,132.344894 C63.1171876,137.40117 66.7730566,141.973822 71.5713847,141.973822 C74.1142045,141.973822 77.1026965,140.685687 78.532467,137.722058 L80.3762376,138.687014 C78.9147949,142.099885 74.9082701,144 71.4446962,144 C65.2460074,144 60.8910891,138.010857 60.8910891,132.214247 C60.8933514,126.708728 64.8025975,120.813559 71.6053192,120.813559 Z" id="Path" fill="#FFFFFF" fill-rule="nonzero"></path>
                <polygon id="Path" fill="#FFFFFF" fill-rule="nonzero" points="102.29703 120.813559 102.29703 144 100.012453 144 100.012453 133.157503 86.2794538 133.157503 86.2794538 144 84.029703 144 84.029703 120.813559 86.2794538 120.813559 86.2794538 131.133106 100.012453 131.133106 100.012453 120.813559"></polygon>
                <polygon id="Path" fill="#FFFFFF" fill-rule="nonzero" points="123 141.9754 123 144 107.168317 144 107.168317 120.813559 122.702359 120.813559 122.702359 122.83816 109.459682 122.83816 109.459682 131.199225 121.011 131.199225 121.011 133.126199 109.459682 133.126199 109.459682 141.977724 123 141.977724"></polygon>
                <path d="M84.3831834,0.526053157 C82.6446217,1.5545105 79.7546947,4.45951873 76.3044366,8.67312381 L79.4745291,14.655829 C81.7005021,11.4745188 83.9610161,8.61172337 86.2407194,6.16721842 C86.4172621,5.97150453 86.5093714,5.87940387 86.5093714,5.87940387 C86.4211,5.97534205 86.3328287,6.07128024 86.2407194,6.16721842 C85.5038456,6.98077423 83.266359,9.59029286 79.8890206,14.7786299 C83.1397088,14.6174537 88.1366344,13.949724 92.2124677,13.2551315 C93.4252392,6.46270803 91.0227235,3.35431084 91.0227235,3.35431084 C91.0227235,3.35431084 87.9639296,-1.58842444 84.3831834,0.526053157 Z" id="Path" fill="#FFFFFF" fill-rule="nonzero"></path>
                <path d="M78.8152477,34.5959616 C78.8335748,34.5906557 78.8519019,34.5853499 78.870229,34.5800441 L78.5067417,34.6490198 C78.4853601,34.6649372 78.4639785,34.6861605 78.4425969,34.702078 C78.567832,34.6649372 78.6930671,34.6277965 78.8152477,34.5959616 Z" id="Path"></path>
                <path d="M75.8768045,45.5315661 C75.5999798,45.589185 75.3107601,45.6352801 75.0215403,45.6736927 C75.3148918,45.6352801 75.5999798,45.589185 75.8768045,45.5315661 Z" id="Path"></path>
                <path d="M53.3108801,69.7487168 C53.3456217,69.6600982 53.3803633,69.5676266 53.4112447,69.4790079 C54.1137965,67.6295752 54.808628,65.8302314 55.4957392,64.0809763 C56.2677742,62.1159541 57.0320889,60.2125796 57.784823,58.367 C58.5800191,56.4250957 59.3636346,54.5448391 60.1356696,52.7300833 C60.9463064,50.8267089 61.7453626,48.9926881 62.5289782,47.2280211 C63.1659071,45.7908578 63.7951156,44.3999303 64.4166038,43.0552387 C64.6250532,42.6044394 64.8296425,42.1613462 65.0342318,41.7221059 C65.4395502,40.8474784 65.8448685,39.9959688 66.2424666,39.1598711 C66.6091832,38.3892742 66.9758998,37.6340892 67.3348961,36.8943161 C67.4545615,36.6477251 67.574227,36.401134 67.6938924,36.158396 C67.7131933,36.1198662 67.7324942,36.0813363 67.751795,36.0389535 L67.3580572,36.0813363 L67.0492432,35.4687117 C67.0183618,35.5303595 66.9874804,35.5881543 66.956599,35.645949 C66.3968736,36.7556086 65.8410084,37.8768272 65.2928635,39.0057517 C64.9763292,39.6569061 64.6597948,40.3157665 64.3432604,40.9707739 C63.4708609,42.7970887 62.613902,44.6388154 61.7723839,46.492101 C60.9192852,48.3646516 60.0854874,50.2487611 59.2671302,52.1367237 C58.4642138,53.9900093 57.6728779,55.843295 56.9047031,57.6927276 C56.1326681,59.5421603 55.379934,61.380034 54.6465007,63.2102018 C53.8783259,65.1174292 53.1333121,67.0130977 52.4075992,68.8817953 C52.2454718,69.3017706 52.0794843,69.7255989 51.9173569,70.1455743 C51.3383307,71.6559443 50.7708849,73.1431964 50.2188799,74.6150366 L50.7091221,75.5821357 L51.1491821,75.5358999 C51.1646228,75.4935171 51.1800635,75.4472813 51.1993644,75.4048984 C51.9134968,73.4707001 52.6160486,71.5827376 53.3108801,69.7487168 Z" id="Path"></path>
                <path d="M74.6273286,45.6486357 L74.6273286,45.6486357 C74.6395068,45.6486357 74.6395068,45.6486357 74.6395068,45.6364323 C74.6395068,45.6486357 74.6395068,45.6486357 74.6273286,45.6486357 Z" id="Path"></path>
                <path d="M73.7386441,50.6695882 C73.3227817,50.8079103 72.8990729,50.9462325 72.4635943,51.0845546 C72.4596711,51.0845546 72.4596711,51.0918348 72.4557479,51.0918348 C72.6754487,51.0335939 72.8951496,50.9680728 73.1070041,50.9025518 C73.3227817,50.8297507 73.5307129,50.7496694 73.7386441,50.6695882 Z" id="Path" fill="#FFFFFF" fill-rule="nonzero"></path>
                <path d="M73.7386441,50.6695882 C73.3227817,50.8079103 72.8990729,50.9462325 72.4635943,51.0845546 C72.4596711,51.0845546 72.4596711,51.0918348 72.4557479,51.0918348 C72.6754487,51.0335939 72.8951496,50.9680728 73.1070041,50.9025518 C73.3227817,50.8297507 73.5307129,50.7496694 73.7386441,50.6695882 Z" id="Path" fill="#FFFFFF" fill-rule="nonzero" opacity="0.35"></path>
                <path d="M74.6005126,45.6852165 C74.5972104,45.6852165 74.5972104,45.6852165 74.6005126,45.6852165 C74.5972104,45.6890577 74.5939082,45.6890577 74.5939082,45.6890577 C74.6533475,45.6813752 74.7094845,45.6698514 74.7656215,45.6583277 C74.996774,45.619915 75.2246243,45.5738199 75.4491724,45.516201 C75.1684873,45.5738199 74.8878021,45.6275976 74.6005126,45.6852165 L74.6005126,45.6852165 L74.6005126,45.6852165 Z" id="Path" fill="#FFFFFF" fill-rule="nonzero"></path>
                <path d="M74.6005126,45.6852165 C74.5972104,45.6852165 74.5972104,45.6852165 74.6005126,45.6852165 C74.5972104,45.6890577 74.5939082,45.6890577 74.5939082,45.6890577 C74.6533475,45.6813752 74.7094845,45.6698514 74.7656215,45.6583277 C74.996774,45.619915 75.2246243,45.5738199 75.4491724,45.516201 C75.1684873,45.5738199 74.8878021,45.6275976 74.6005126,45.6852165 L74.6005126,45.6852165 L74.6005126,45.6852165 Z" id="Path" fill="#FFFFFF" fill-rule="nonzero" opacity="0.35"></path>
                <path d="M69.8901588,30.3072774 C70.8599055,28.507491 71.8412428,26.7460795 72.8341707,25.0345556 C73.865734,23.2539567 74.9088878,21.5309202 75.9597688,19.8654462 C76.0215853,19.7656713 76.0834018,19.6658964 76.1452183,19.5699589 C77.1883722,17.9313474 78.2392531,16.3579734 79.2978611,14.8536743 L76.106583,8.86717793 C75.867044,9.15882776 75.6236414,9.45431508 75.3802388,9.75747739 C74.460718,10.8972142 73.5025619,12.121376 72.5250881,13.4222877 C71.4201177,14.8882118 70.2842391,16.4500733 69.1329063,18.0925223 C68.0665713,19.6083339 66.9886456,21.1970579 65.9068564,22.8395069 C64.9873356,24.2401936 64.0639513,25.6792552 63.148294,27.1566918 C63.1135222,27.2104168 63.0787505,27.2679792 63.0478422,27.3217042 L67.2011399,35.4687117 C68.0820254,33.7188128 68.9822285,31.9957764 69.8901588,30.3072774 Z" id="Path" fill="#FFFFFF" fill-rule="nonzero"></path>
                <path d="M50.6272792,76.0908452 C50.0714,77.5757295 49.5116062,79.0871973 48.9478978,80.6328441 C48.9400685,80.65563 48.9322392,80.678416 48.92441,80.7012019 C48.8461171,80.9176684 48.7639096,81.1379326 48.6856168,81.3543991 C48.3058965,82.3949574 47.9809813,83.3329789 47.2254554,85.463465 C48.4663968,86.0141253 49.4607159,87.4572354 50.4002299,89.0940259 C50.2984493,87.3964728 49.5781551,85.8052542 48.2002012,84.5710153 C54.3109572,84.8368514 59.5761505,83.3405742 62.2968267,79.0036489 C62.5395344,78.6162878 62.762669,78.2099384 62.9623158,77.780803 C61.7252889,79.3036638 60.1907493,79.9492657 57.3056582,79.7935617 C57.297829,79.7973594 57.2939143,79.7973594 57.286085,79.801157 C57.2939143,79.7973594 57.297829,79.7973594 57.3056582,79.7935617 C61.5569593,77.9479 63.6904392,76.1743937 65.5733819,73.2388042 C66.0196511,72.5438328 66.4541763,71.7805035 66.8965309,70.9374235 C63.1815357,74.6401399 58.871515,75.6958888 54.334445,74.894583 L50.9326212,75.2553605 C50.8386698,75.5325895 50.7329745,75.8098186 50.6272792,76.0908452 Z" id="Path" fill="#FFFFFF" fill-rule="nonzero"></path>
                <path d="M52.2811549,68.5863458 C53.0055658,66.7190142 53.749243,64.8247315 54.5160397,62.9188982 C55.2481571,61.0939185 55.9995408,59.2535381 56.7701907,57.4054574 C57.5408407,55.5573767 58.3269036,53.7054458 59.1283795,51.8535149 C59.9452685,49.9669325 60.7814236,48.0880504 61.6291386,46.2130185 C62.469147,44.3610876 63.3245684,42.5207073 64.1954029,40.6957275 C64.5075161,40.0373488 64.8234825,39.3828202 65.1433023,38.7321418 C65.6904637,37.6040425 66.2453317,36.4836436 66.8040529,35.3747951 C66.8348789,35.3131924 66.8657049,35.2554399 66.8965309,35.1976874 L62.7542875,27.0237804 C62.684929,27.1354352 62.6194237,27.2470901 62.5500652,27.3548948 C61.5828996,28.9296136 60.6234404,30.5389839 59.6832475,32.1830057 C58.7314948,33.8424282 57.7951551,35.5365022 56.881935,37.2536772 C56.111285,38.7013404 55.3560481,40.1644043 54.6239307,41.6390187 C54.4775072,41.9393319 54.3310837,42.2357948 54.1885134,42.5322578 C53.286853,44.3880388 52.4699641,46.1822172 51.7339934,47.9032424 C50.8978382,49.8552776 50.1657208,51.7226092 49.5183748,53.4898364 C49.0945174,54.6525872 48.7091924,55.7768363 48.3585467,56.8548834 C48.069553,57.7789237 47.792119,58.6991139 47.530098,59.6193041 C46.9135781,61.7869488 46.3779764,63.9468931 45.9425591,66.0991371 L50.1002155,74.315396 C50.6512302,72.8484819 51.2138047,71.3584669 51.7956454,69.8492009 C51.9536286,69.4295326 52.1193184,69.0098643 52.2811549,68.5863458 Z" id="Path" fill="#FFFFFF" fill-rule="nonzero"></path>
                <path d="M45.9740561,66.5838958 C45.4468451,69.1968943 45.0746962,71.8022301 44.8886217,74.3922404 C44.8808686,74.4841934 44.8731155,74.5723151 44.869239,74.6642681 C43.5628412,72.595325 40.0623152,70.5723584 40.0700683,70.5953466 C42.5743205,74.1853461 44.4777073,77.7485259 44.756819,81.2465724 C43.4155322,81.5186001 41.5780468,81.1239683 39.4536967,80.3538617 C41.6672075,82.3653342 43.3302481,82.9208837 43.9776322,83.0703074 C41.9424427,83.1967428 39.8258456,84.5760382 37.6937423,86.1660593 C40.8143662,84.909368 43.3341246,84.4112891 45.1405976,84.8135836 C42.2758261,92.8211597 39.4071781,101.663976 36.5346535,111.050847 C37.4146306,110.794145 37.9379651,110.211776 38.2364595,109.418681 C38.7481643,107.71755 42.1440233,96.5605828 47.4626519,81.9017377 C47.6138374,81.4841177 47.7650229,81.0664977 47.9200849,80.6412149 C47.962727,80.5262736 48.0053691,80.407501 48.0480111,80.2887283 C48.6101111,78.7523465 49.1915938,77.1814823 49.7963358,75.579967 C49.9320151,75.2159863 50.071571,74.8520055 50.2111268,74.4841934 C50.2150034,74.4765307 50.2150034,74.4688679 50.2188799,74.4612052 L46.0360809,66.2927112 C46.0166982,66.392327 45.9934389,66.4881114 45.9740561,66.5838958 Z" id="Path" fill="#FFFFFF" fill-rule="nonzero"></path>
                <path d="M67.7520478,36.131434 C67.6313908,36.3746232 67.5107339,36.6216727 67.3900769,36.8687221 C67.0281061,37.6098703 66.6583509,38.3664591 66.2885958,39.1384885 C65.8877033,39.9761403 65.4829187,40.833093 65.0703498,41.7054862 C64.8640654,42.1455429 64.6577809,42.5894598 64.4476043,43.041097 C63.8209666,44.3921484 63.1865446,45.7856615 62.5443383,47.2216362 C61.7542299,48.9895835 60.9485529,50.8270134 60.1311993,52.733926 C59.3527674,54.5520552 58.562659,56.4358069 57.7608742,58.381321 C57.0019031,60.2303313 56.2312555,62.1372439 55.4528236,64.1059189 C54.7600192,65.8584256 54.0555383,67.6611142 53.3510574,69.5139847 C53.316028,69.6027681 53.2809985,69.6954116 53.2498612,69.784195 C52.5492725,71.621625 51.8408995,73.513097 51.1247421,75.4508907 C51.1091735,75.4933523 51.0936049,75.5396741 51.0741441,75.5821357 L54.4564307,75.2154218 C54.390264,75.2038413 54.3202051,75.196121 54.2540384,75.1806804 C58.2979922,74.6788613 63.6769567,71.6833873 67.1526552,67.9815064 C68.7523328,66.2753214 70.2080004,64.2641849 71.5507955,61.9094953 C72.5510805,60.1569885 73.489091,58.2114745 74.3842877,56.0613726 C75.1666117,54.1814811 75.9177985,52.1471836 76.6417402,49.9391796 C75.7115141,50.4255581 74.6489545,50.7806916 73.4735223,51.027741 C73.2672379,51.0702027 73.0570612,51.1126643 72.8468846,51.1474056 C72.6328159,51.1860071 72.4187471,51.2168882 72.2007861,51.2477694 L72.2007861,51.2477694 L72.2007861,51.2477694 C72.2046783,51.2477694 72.2046783,51.2439093 72.2085705,51.2439093 C75.9800731,49.8040745 78.3581826,47.0286288 80.0863014,43.6239792 C79.0938007,44.2956448 77.4824467,45.1718981 75.5480434,45.5965143 C75.2872687,45.6544165 75.0148175,45.7007383 74.7423663,45.7393397 C74.6761996,45.7509202 74.6061407,45.7625006 74.539974,45.7702209 L74.539974,45.7702209 L74.539974,45.7702209 C74.5438662,45.7702209 74.5438662,45.7702209 74.5438662,45.7663608 C74.5438662,45.7663608 74.5477584,45.7663608 74.5477584,45.7663608 L74.5477584,45.7663608 C75.855524,45.22208 76.9608973,44.616037 77.9183685,43.8980496 C78.124653,43.7436438 78.3231531,43.5853777 78.5138689,43.4232516 C78.8057809,43.172342 79.0860164,42.909852 79.3506832,42.6319214 C79.5219383,42.4543547 79.685409,42.2729278 79.8449875,42.0837806 C80.2186348,41.6398637 80.5728214,41.1612055 80.8997628,40.6439458 C81.0009589,40.4856797 81.0982629,40.3235536 81.1955669,40.1575673 C81.320116,39.9182381 81.4407729,39.6827692 81.5575377,39.4511604 C82.0829793,38.4012004 82.5072247,37.4631847 82.8419504,36.6409734 C83.0093132,36.2317978 83.1572153,35.8496433 83.2817644,35.4945097 C83.3323625,35.3516843 83.3790684,35.2165792 83.4257743,35.0853342 C83.5581077,34.6915992 83.6670882,34.3403258 83.7527157,34.0315141 C83.881157,33.5682964 83.9590002,33.2015825 84.0018139,32.9352323 L84.0018139,32.9352323 L84.0018139,32.9352323 C83.8733727,33.0355961 83.7254706,33.13596 83.5619999,33.2324636 C82.4215971,33.9079894 80.467733,34.5217527 78.8953006,34.8074036 L82.0012439,34.4677107 L78.8953006,34.8074036 C78.8719476,34.8112637 78.8485947,34.8151239 78.8252417,34.818984 C78.6695553,34.8460051 78.5099768,34.8691659 78.3503982,34.896187 C78.3776434,34.8846065 78.4048885,34.8691659 78.4321336,34.8575855 L67.806538,36.0117694 C67.7909694,36.0542311 67.7715086,36.0928325 67.7520478,36.131434 Z" id="Path" fill="#FFFFFF" fill-rule="nonzero"></path>
                <path d="M79.6457513,14.6275508 C78.7009224,16.0724863 77.6705536,17.7111129 76.5585328,19.5666735 C76.50021,19.6635191 76.4418873,19.7642385 76.3835645,19.861084 C75.4270711,21.46872 74.4083668,23.2351827 73.3391161,25.1682198 C72.4137282,26.8378369 71.4533466,28.6275426 70.450195,30.552832 C69.5792417,32.2301968 68.6771829,34.0082809 67.751795,35.8909583 L78.3665386,34.7326856 C81.4576452,33.3148669 82.8418389,32.0326319 84.1832625,30.1770713 C84.5409755,29.6657268 84.8986885,29.1311394 85.2525133,28.5771829 C86.3412049,26.880449 87.4143438,25.0132669 88.366949,23.1577063 C89.2884487,21.3641268 90.1049675,19.5860427 90.727077,17.9861543 C91.1236718,16.9673392 91.4425029,16.0182528 91.6641294,15.1853812 C91.8585386,14.449355 92.0101778,13.755941 92.1268234,13.0896436 C88.0053478,13.7908053 82.9390435,14.4648503 79.6457513,14.6275508 Z" id="Path" fill="#FFFFFF" fill-rule="nonzero"></path>
                <path d="M72.8833799,51.0418984 C72.6000093,51.0888345 72.3166386,51.1263834 72.0281158,51.1639323 L72.0281158,51.1639323 C72.3166386,51.131077 72.6000093,51.0888345 72.8833799,51.0418984 Z" id="Path" fill="#FFFFFF" fill-rule="nonzero"></path>
                <path d="M72.8833799,51.0418984 C72.6000093,51.0888345 72.3166386,51.1263834 72.0281158,51.1639323 L72.0281158,51.1639323 C72.3166386,51.131077 72.6000093,51.0888345 72.8833799,51.0418984 Z" id="Path" fill="#FFFFFF" fill-rule="nonzero" opacity="0.35"></path>
                <path d="M72.8833799,51.0418984 C72.6000093,51.0888345 72.3166386,51.1263834 72.0281158,51.1639323 L72.0281158,51.1639323 C72.3166386,51.131077 72.6000093,51.0888345 72.8833799,51.0418984 Z" id="Path" fill="#FFFFFF" fill-rule="nonzero"></path>
                <path d="M74.4928316,45.6913476 C74.5628077,45.6669408 74.6288963,45.6303306 74.6949849,45.5937204 C74.6288963,45.6303306 74.5628077,45.6669408 74.4928316,45.6913476 L74.4928316,45.6913476 Z" id="Path" fill="#FFFFFF" fill-rule="nonzero"></path>
                <path d="M74.4928316,45.6913476 C74.5628077,45.6669408 74.6288963,45.6303306 74.6949849,45.5937204 C74.6288963,45.6303306 74.5628077,45.6669408 74.4928316,45.6913476 L74.4928316,45.6913476 Z" id="Path" fill="#FFFFFF" fill-rule="nonzero" opacity="0.35"></path>
                <path d="M74.4928316,45.6913476 C74.5628077,45.6669408 74.6288963,45.6303306 74.6949849,45.5937204 C74.6288963,45.6303306 74.5628077,45.6669408 74.4928316,45.6913476 L74.4928316,45.6913476 Z" id="Path" fill="#FFFFFF" fill-rule="nonzero"></path>
            </g>
            <g id="Group-6" transform="translate(37.000000, 0.000000)"></g>
        </g>
    </g>
</svg>