<?xml version="1.0" encoding="UTF-8"?>
<svg width="77px" height="46px" viewBox="0 0 77 46" version="1.1" xmlns="http://www.w3.org/2000/svg" xmlns:xlink="http://www.w3.org/1999/xlink">
    <title>Shape</title>
    <g id="Page-1" stroke="none" stroke-width="1" fill="none" fill-rule="evenodd">
        <path d="M21.7054634,16.6602871 C21.6188398,19.3706094 22.9807548,20.5708095 23.0144418,21.3330502 C22.9819002,21.6478422 22.798066,21.9274564 22.5211687,22.0833249 L20.9811941,23.1554877 C20.7819033,23.294443 20.5469731,23.3741288 20.3038459,23.3852369 C20.2521123,23.3828437 19.3185028,23.6042166 17.8398865,20.3207179 C16.0117371,22.5903928 13.2308435,23.8913863 10.3072452,23.8447352 C8.34858996,23.9512335 3.04049003,22.7390673 3.3135949,17.1185888 C3.12230118,12.5379646 7.41137105,9.69242537 11.8472197,9.93294404 C12.7014244,9.93533726 14.4459269,9.97721862 17.5006109,10.6832187 L17.5006109,8.81411342 C17.8242461,5.6478826 15.7320463,3.19124169 12.1094967,3.55979766 C11.8207514,3.56099427 9.77547267,3.49996714 6.59446265,4.76957066 C5.70897726,5.17402493 5.59588537,5.10701476 5.30112461,5.10701476 C4.40962369,5.10701476 4.77657076,2.53669586 4.9474117,2.21121786 C5.57422948,1.44538728 9.26174677,0.0154379894 12.8806871,0.0357803642 C15.30043,-0.17706396 17.7071986,0.565698592 19.5807797,2.10352294 C21.1197958,3.81570846 21.8878723,6.07939715 21.7066665,8.36897439 L21.7054634,16.6602871 L21.7054634,16.6602871 Z M11.3082286,20.5361078 C15.2098987,20.4798671 16.861762,18.146477 17.2383339,16.8900362 C17.5342978,15.6874429 17.4849705,14.9263988 17.4849705,13.6113241 C16.3215678,13.3337105 14.6468454,13.0309681 12.7254865,13.0285748 C10.9027822,12.8921613 7.57379024,13.7022664 7.7037256,16.8888396 C7.55454056,18.8979483 9.04157853,20.6461959 11.3082286,20.5361078 L11.3082286,20.5361078 Z M31.8717019,23.2942945 C30.9260613,23.3804504 30.4857248,22.7127419 30.3461646,22.0534096 L24.3547009,2.35122127 C24.2379997,2.01856361 24.161001,1.67513646 24.1237047,1.32452964 C24.0776843,1.02354255 24.2855283,0.742379308 24.5881033,0.696309242 C24.6169778,0.691522801 24.3318419,0.696309242 27.2650123,0.696309242 C28.3213386,0.591007537 28.6654267,1.41786524 28.7749093,1.93719411 L33.0724009,18.7890568 L37.0618975,1.93719411 C37.1256621,1.5518856 37.4156105,0.612546522 38.6018721,0.711865176 L40.6664006,0.711865176 C40.9274744,0.690326191 42.0030504,0.652034661 42.1919379,1.95275004 L46.2127153,19.0200025 L50.648564,1.95275004 C50.7063131,1.691889 50.9758086,0.592204147 52.1741014,0.711865176 L54.5466247,0.711865176 C54.6488887,0.696309242 55.2865344,0.614939743 55.1782549,1.7385568 C55.1265214,1.9599297 55.5885138,0.462970236 48.8318753,22.0689656 C48.6935182,22.7282978 48.2519786,23.3960064 47.3063379,23.3098504 L45.0577344,23.3098504 C43.7415374,23.4474606 43.5526499,22.1539249 43.5321971,22.0234944 L39.5427004,5.61437752 L35.5989217,22.0067418 C35.579672,22.1371723 35.3907845,23.4307081 34.0733843,23.2930979 L31.8717019,23.2930979 L31.8717019,23.2942945 Z M64.7742216,23.9679861 C64.0667958,23.9691827 60.693289,23.9320878 57.8732105,22.497352 C57.2987028,22.2554172 56.9276811,21.6926754 56.9335159,21.0721892 L56.9335159,19.7858331 C56.9335159,18.7746974 57.6795106,18.960172 57.9959272,19.0810297 C59.2038448,19.5668535 59.9786445,19.9354094 61.4620732,20.2297755 C65.8714535,21.1308231 67.8108591,19.9545552 68.2860856,19.6936941 C69.8681689,18.7591415 69.9932918,16.6207989 68.9177158,15.5115412 C67.6568616,14.4597208 67.055309,14.4202326 62.5256181,12.9986596 C61.9673773,12.8442969 57.2680486,11.370073 57.2572207,6.73320813 C57.1838312,3.35398069 60.2709991,0.0106515482 65.6212077,0.038004825 C67.1455419,0.0369769745 71.2072249,0.532373633 72.306863,1.90727885 C72.4692822,2.1573704 72.5498903,2.45173653 72.5378592,2.74969249 L72.5378592,3.95946549 C72.5378592,4.49076046 72.3429562,4.75640794 71.951947,4.75640794 C71.0243529,4.65349946 69.3785051,3.41979425 66.0374821,3.47005188 C65.2085426,3.42697391 61.2382956,3.57894342 61.4163552,6.45798777 C61.3646216,8.72676087 64.617818,9.57755078 64.9895775,9.67567283 C69.3760989,10.9883543 70.842684,11.2061374 72.5835772,13.2152461 C74.6456994,15.8777039 73.5340303,18.9948737 73.1069279,19.8492535 C70.8114033,24.3353454 64.8752825,23.9703793 64.7742216,23.9679861 L64.7742216,23.9679861 Z M69.6107044,36.5156415 C61.185359,42.7045099 48.954592,45.9987781 38.5116393,45.9987781 C24.4209347,46.0911993 10.8050999,40.9379683 0.340722064,31.5521021 C-0.444905601,30.8472986 0.248082967,29.8816341 1.20334846,30.4189121 C12.8114519,37.0231944 25.9542635,40.4932933 39.3273446,40.4847979 C49.3140017,40.4315314 59.1917004,38.4165566 68.3931619,34.5555939 C69.8104198,33.9572887 71.0123219,35.4889499 69.6107044,36.5156415 L69.6107044,36.5156415 Z M73.1225683,32.5321259 C72.0445861,31.1536308 65.990561,31.8883496 63.279965,32.2102377 C62.4630566,32.3023767 62.3246996,31.5975733 63.0646092,31.0770478 C67.8854516,27.7061966 75.8030866,28.6718611 76.7126341,29.8050511 C77.6209785,30.938241 76.4659975,38.8286892 71.9531501,42.5980116 C71.2601615,43.1807608 70.5972506,42.873232 70.9052455,42.1074014 C71.9206663,39.5646045 74.2005505,33.9118176 73.1225683,32.5321259 Z" id="Shape" fill="#FFFFFF" fill-rule="nonzero"></path>
    </g>
</svg>