<?xml version="1.0" encoding="UTF-8"?>
<svg width="75px" height="67px" viewBox="0 0 75 67" version="1.1" xmlns="http://www.w3.org/2000/svg" xmlns:xlink="http://www.w3.org/1999/xlink">
    <title>Group</title>
    <g id="Page-1" stroke="none" stroke-width="1" fill="none" fill-rule="evenodd">
        <g id="Group" transform="translate(0.500000, 0.000000)" fill="#FFFFFF">
            <path d="M39.310958,66.9808083 C36.5884451,66.8003501 35.0050202,65.1976202 34.5854215,62.1976674 C34.4738039,61.3996309 34.4733772,61.3789254 34.4619549,56.1980897 L34.4508992,51.1839073 L35.6558131,51.1839073 L36.8607233,51.1839073 L36.8702119,56.033914 C36.8787646,60.4050903 36.8841307,60.9176046 36.9245535,61.2251043 C37.0886071,62.4730628 37.41521,63.3122873 37.9712516,63.9146681 C38.4162627,64.3967632 38.9372186,64.6790423 39.6583594,64.8288282 C39.9985763,64.899492 40.9664114,64.8996336 41.2765935,64.8291191 C42.007689,64.6627851 42.5936548,64.3338683 43.1105659,63.7996644 C43.6997362,63.1907828 44.1355925,62.3269069 44.3464881,61.3500342 L44.4175666,61.0207926 L44.4254816,56.1297412 L44.4333966,51.238691 L45.6635354,51.238691 L46.893677,51.238691 L46.893677,58.9275597 L46.893677,66.6164277 L45.6762079,66.6164277 L44.4587387,66.6164277 L44.4587387,65.3965161 C44.4587387,64.5676259 44.4499515,64.1796313 44.4313344,64.1860477 C44.4162649,64.1912444 44.3537373,64.2901344 44.2923847,64.40581 C43.8728395,65.1968523 43.1738316,65.9202567 42.40788,66.3560844 C41.4897539,66.8784978 40.5689925,67.0642564 39.3109608,66.9808665 L39.310958,66.9808083 Z M66.9446914,66.9683827 C65.9836413,66.8936992 64.9717102,66.5521028 64.1446198,66.0231722 C62.4013736,64.9083458 61.3699015,63.0707501 61.0678895,60.5418892 C60.9633804,59.6668083 60.9508196,58.4913509 61.03803,57.7477704 C61.2328912,56.0862904 61.864403,54.4552421 62.7636766,53.290821 C62.9942097,52.9923167 63.5171921,52.4516343 63.8059118,52.2133141 C64.5855768,51.5697466 65.4975509,51.1197122 66.4658183,50.9007217 C67.0299775,50.7731275 68.0234697,50.7132188 68.6228563,50.7706494 C70.1285612,50.9149215 71.5085572,51.6478536 72.4465065,52.801433 C73.3994493,53.9734563 73.9232382,55.6111604 73.9901275,57.6277814 C74.0006112,57.9438178 74.0031526,58.4979089 73.9957824,58.8590948 L73.9823719,59.515795 L68.7088767,59.5226981 L63.4353815,59.5296012 L63.4353815,59.7728971 C63.4353815,60.5135419 63.6095511,61.3571137 63.9106525,62.0748376 C64.170307,62.6937646 64.6172687,63.369619 64.9832244,63.696683 C65.7335852,64.3672999 66.6519279,64.7687023 67.6568247,64.8653003 C68.0294284,64.901115 68.9790149,64.8634097 69.4036279,64.7959589 C70.6150764,64.6034823 71.7668266,64.1122406 72.6969331,63.3913085 C72.8063628,63.3064875 72.9110857,63.2272404 72.9296494,63.2152065 C72.9568155,63.1975958 72.9632357,63.419205 72.9625483,64.3507509 L72.9617043,65.5081778 L72.7124912,65.6675262 C71.6603097,66.3402994 70.4549269,66.7722965 69.1786728,66.9340116 C68.7978005,66.9822704 67.4001936,67.0037689 66.9447064,66.968373 L66.9446914,66.9683827 Z M71.5341957,57.2065607 C71.5341957,55.9659309 71.0284931,54.587745 70.3128675,53.8780877 C69.8021552,53.371633 69.1847713,53.0621215 68.4508221,52.9445951 C68.1035895,52.888992 67.3717634,52.9104072 67.0056726,52.9868834 C66.2317703,53.1485519 65.5916514,53.5002888 65.0333403,54.0706535 C64.4457531,54.6709266 64.0052115,55.4000086 63.7281552,56.2306963 C63.6285293,56.5294023 63.5120042,57.0198043 63.4758352,57.2925897 L63.4586023,57.4225621 L67.4963976,57.4225621 L71.5341957,57.4225621 L71.5341957,57.2065607 Z M0.000202572628,66.5821662 C0.00637984382,66.5633543 1.79713428,61.6997078 3.97965994,55.7740632 L7.94788775,45 L9.2229011,45 L10.4979116,45 L10.6036999,45.2804661 C10.9269774,46.1375455 18.5478113,66.5930076 18.5478113,66.6036347 C18.5478113,66.6106348 17.9374224,66.6161657 17.1913915,66.6161657 L15.8349717,66.6158732 L14.7366028,63.5925798 L13.6382339,60.5692874 L9.21568944,60.5692321 L4.79314401,60.5691778 L4.7547112,60.671787 C4.73357512,60.7282219 4.2643017,62.088607 3.71187763,63.694867 L2.70747593,66.6153341 L1.34822429,66.6158189 C0.272317511,66.6161657 -0.00868493293,66.6091678 0.000202572628,66.5820945 L0.000202572628,66.5821662 Z M12.8309986,58.2620872 C12.8309986,58.2572976 12.0918389,56.1856089 11.1884212,53.6583429 C9.49828248,48.9302643 9.40373563,48.6457873 9.27019985,47.8867233 C9.20758218,47.5307845 9.1758987,47.5208932 9.13873191,47.8456798 C9.11216411,48.0778338 8.9969679,48.5973094 8.90815943,48.8854561 C8.8640942,49.0284252 8.10298818,51.1880821 7.21681094,53.684693 C6.33063558,56.1813041 5.60558224,58.2345193 5.60558224,58.2473928 C5.60558224,58.2602673 7.23130179,58.2708004 9.21829089,58.2708004 C11.20528,58.2708004 12.8309986,58.2668835 12.8309986,58.2620842 L12.8309986,58.2620872 Z M19.3682799,66.2226149 L19.3682799,65.8288593 L23.7744842,59.5666812 L28.1806885,53.3045022 L24.1913351,53.290821 L20.2019817,53.2771399 L20.1950514,52.2305234 L20.1881211,51.1839073 L25.9581828,51.1839073 L31.7282437,51.1839073 L31.7282437,51.5374067 L31.7282437,51.8909058 L27.3215339,58.1872349 C24.8978435,61.6502168 22.9148241,64.48939 22.9148241,64.4965103 C22.9148241,64.5036267 24.8740235,64.5094555 27.2685999,64.5094555 L31.6223767,64.5094555 L31.6223767,65.5629121 L31.6223767,66.6163696 L25.4953273,66.6163696 L19.3682799,66.6163696 L19.3682799,66.2226149 Z M51.7017969,66.5981267 C51.6920916,66.5880959 51.6841513,63.115792 51.6841513,58.8818964 L51.6841513,51.1839073 L52.8883881,51.1839073 L54.092624,51.1839073 L54.092624,52.7709333 C54.092624,53.6437978 54.1028901,54.3579597 54.1154407,54.3579597 C54.1279912,54.3579597 54.1866017,54.2150808 54.2456857,54.0404514 C54.5164381,53.2402334 54.9859764,52.492514 55.5909026,51.8982481 C56.1358519,51.3629024 56.7586806,51.0427629 57.4935977,50.9202472 C57.7000388,50.8858315 57.8747186,50.8792609 58.2875998,50.8903796 C58.8061305,50.9043429 59.0772261,50.9435287 59.3925858,51.0500994 L59.4918357,51.0836396 L59.4918357,52.3759309 L59.4918357,53.6682215 L59.2073183,53.5209797 C58.704734,53.2608846 58.2088323,53.1579565 57.612698,53.1900036 C57.2247247,53.2108613 56.9700705,53.262366 56.6598959,53.3827148 C56.021707,53.6303339 55.5040438,54.0674007 55.1423259,54.6640079 C54.6186843,55.527689 54.2452177,56.6378645 54.1350659,57.65822 C54.1152981,57.8413309 54.1036422,59.3326308 54.0989992,62.2725691 L54.0921439,66.6163696 L52.9057918,66.6163696 C52.2532996,66.6163696 51.7115012,66.6081576 51.7017988,66.5981267 L51.7017969,66.5981267 Z" id="path21" fill-rule="nonzero"></path>
            <path d="M38.3977647,34.3526942 C44.3401955,33.28932 49.2483039,32.409378 49.3046744,32.3972684 L49.4071673,32.3752502 L43.7969268,25.6153939 C40.7112969,21.8974723 38.1866891,18.8411211 38.1866891,18.8235028 C38.1866891,18.7901459 43.9797362,2.6301994 44.0123028,2.57266759 C44.0231914,2.55348601 47.9655359,9.448216 53.5688046,19.2859887 C58.8146874,28.4962878 63.1396634,36.0902124 63.1798627,36.1613734 L63.2529554,36.2907591 L45.4231486,36.2884294 L27.593345,36.2861092 L38.3977647,34.3527008 L38.3977647,34.3526942 Z" id="path21-path"></path>
            <path d="M17,32.2912637 C17,32.2817461 19.6435181,27.6332188 22.8744846,21.9611992 L28.7489683,11.648437 L35.5949999,5.82863203 C39.3603172,2.62773999 42.4511712,0.00491488187 42.4635631,0 C42.4759549,-0.00465097126 42.4264231,0.121633253 42.3534921,0.28076488 C42.2805611,0.439896507 38.935339,7.70821467 34.9196652,16.4325824 L27.6184419,32.2950688 L22.309221,32.3018116 C19.3891501,32.3055239 17,32.3007699 17,32.2912599 L17,32.2912637 Z" id="path21-path"></path>
        </g>
    </g>
</svg>