<?xml version="1.0" encoding="UTF-8"?>
<svg width="100px" height="88px" viewBox="0 0 100 88" version="1.1" xmlns="http://www.w3.org/2000/svg" xmlns:xlink="http://www.w3.org/1999/xlink">
    <title>Shape 2</title>
    <g id="Page-1" stroke="none" stroke-width="1" fill="none" fill-rule="evenodd">
        <g id="Shape-2" fill="#FFFFFF" fill-rule="nonzero">
            <path d="M74.7829861,52.4003906 C76.5190972,53.3671875 78.0815972,54.5273438 79.4704861,55.9023438 C84.5703125,50.3164062 91.8402778,46.75 100,46.75 L100,35.75 C89.4097222,35.75 79.8177083,39.9824219 72.7864583,46.7929688 C73.7630208,48.5117188 74.4791667,50.4023438 74.7829861,52.4003906 Z M69.3142361,55.9667969 C69.3359375,55.6445312 69.4444444,55.3222656 69.4444444,55 C69.4444444,48.9414062 64.453125,44 58.3333333,44 C56.1414931,44 54.1232639,44.6445312 52.4088542,45.71875 C49.3489583,39.0371094 42.5998264,34.375 34.7222222,34.375 C23.9800347,34.375 15.2777778,42.9902344 15.2777778,53.625 C15.2777778,54.140625 15.4079861,54.6132812 15.4296875,55.1289062 C6.81423611,55.7519531 0,62.7988281 0,71.5 C0,80.609375 7.46527778,88 16.6666667,88 L63.8888889,88 C73.0902778,88 80.5555556,80.609375 80.5555556,71.5 C80.5555556,64.28125 75.8246528,58.2011719 69.3142361,55.9667969 Z M41.4279514,29.8417969 C45.0737847,30.8515625 48.4375,32.6777344 51.2586806,35.1699219 C62.4348958,20.5175781 80.078125,11 100,11 L100,0 C75.8897569,0 54.5572917,11.8164062 41.4279514,29.8417969 Z M56.5538194,38.6933594 C57.8559028,38.5429688 62.9340278,37.7695312 68.4461806,41.9375 C76.4973958,33.9023438 87.6519097,28.875 100,28.875 L100,17.875 C82.421875,17.875 66.7317708,26.0175781 56.5538194,38.6933594 Z" id="Shape"></path>
        </g>
    </g>
</svg>