<svg xmlns="http://www.w3.org/2000/svg" viewBox="0 0 346.88 348.05"><defs><style>.cls-1{fill:#fff;}.cls-2{fill:red;}</style></defs><g id="Capa_2" data-name="Capa 2"><g id="Capa_1-2" data-name="Capa 1"><path class="cls-1" d="M198.78,192.17a1.81,1.81,0,0,0,1.57-2.71l-24.91-43.25a1.81,1.81,0,0,0-3.13,0l-25,43.2a1.8,1.8,0,0,0,1.56,2.71Z"/><path class="cls-1" d="M94.42,224.41l41.32,0c0-.22,0-.44,0-.67a48,48,0,0,0-1-9.95,48.64,48.64,0,0,0-23.23-32.16l-20.9,36.11A4.41,4.41,0,0,0,94.42,224.41Z"/><path class="cls-1" d="M257,218l-20.78-36.09a48.51,48.51,0,0,0-24.21,42c0,.22,0,.44,0,.67l41.15,0A4.41,4.41,0,0,0,257,218Z"/><path class="cls-1" d="M170.12,80.4,149.6,115.86a48.06,48.06,0,0,0,9.77,4.32,48.76,48.76,0,0,0,29.06,0,48.13,48.13,0,0,0,9.79-4.29L177.77,80.41A4.42,4.42,0,0,0,170.12,80.4Z"/><path class="cls-2" d="M160.32,224.48l-24.58,0a48.63,48.63,0,1,1-24.23-42.78l12.08-20.87-.13-.07a100.64,100.64,0,0,1-13.52-9.16c-29.39-24.09-34.28-56-35.31-65.85a111,111,0,0,1,5.43-46.48,5.33,5.33,0,0,0-8.27-6C45.88,52.89-3.62,100.75.21,178.08,4.47,264,49,286.72,49,286.72s47.23,28.65,88.11-9.51A74,74,0,0,0,160.32,224.48Z"/><path class="cls-2" d="M346.84,157c-3.77-32.27-19.92-99.21-88.51-135.13-76.21-39.9-118.39-13-118.39-13S91.3,35,103.46,89.62a73.94,73.94,0,0,0,34.13,47l12-20.75a48.62,48.62,0,1,1,48.62.06l12.2,21.18.36-.2a101.14,101.14,0,0,1,14.76-7c35.66-13.11,65.68-1.12,74.66,3a111.2,111.2,0,0,1,37.31,28.24A5.33,5.33,0,0,0,346.84,157Z"/><path class="cls-2" d="M281.4,153.69a73.94,73.94,0,0,0-57.57,6.7l12.38,21.49A48.62,48.62,0,1,1,212,224.54l-24.37,0a101,101,0,0,1-1.1,15.93c-6,37.52-31.17,57.83-39.12,63.66a111.17,111.17,0,0,1-42.9,18.71,5.33,5.33,0,0,0-1,10.14c30,12.51,96.27,31.19,161.16-11.05C336.79,275,334,225,334,225S335,169.79,281.4,153.69Z"/></g></g></svg>