<?xml version="1.0" encoding="UTF-8"?>
<svg width="147px" height="68px" viewBox="0 0 147 68" version="1.1" xmlns="http://www.w3.org/2000/svg" xmlns:xlink="http://www.w3.org/1999/xlink">
    <title>Group 5</title>
    <g id="Page-1" stroke="none" stroke-width="1" fill="none" fill-rule="evenodd">
        <g id="Group-5" fill="#FFFFFF">
            <path d="M73.0313261,-4.4408921e-15 C77.544227,-4.4408921e-15 81.6687849,1.75804867 84.803449,4.64824386 L84.803449,4.64824386 L84.8013704,4.663 L84.8186781,4.64692894 C87.2957302,6.92377162 89.1067045,9.87087966 90.0509507,13.1531351 L90.1663704,13.576 L90.4336537,13.7734307 C93.5299118,16.1208042 95.5791317,19.8732514 95.6982268,24.1124749 L95.7037037,24.4877639 C95.6897437,31.8184455 89.9699337,37.7487368 82.9074214,37.7684606 L82.9074214,37.7684606 L73.056708,37.7684606 L73.0283704,37.739 L73.0287879,37.7776651 L63.1806127,37.7776651 C60.383989,37.789703 57.6621512,36.8370221 55.4429421,35.0715588 L55.4473704,35.075 C52.3462771,32.6474902 50.4854608,28.8941657 50.3755311,24.8817485 L50.3703704,24.5048579 C50.3775113,19.9250095 52.6198819,15.8889396 56.0272096,13.5036393 L56.0087101,13.5120503 L56.0087101,13.5120503 L55.9163144,13.5673494 C57.9595569,5.7619815 64.858356,-4.4408921e-15 73.0313261,-4.4408921e-15 Z M79.2194321,10.4391536 C75.1700718,7.04872409 69.2733154,7.50961479 65.7606823,11.49109 C65.7426515,11.4872368 65.7230195,11.489221 65.702213,11.4960362 C68.8163002,12.143922 71.5230337,13.9655753 73.3790581,16.4969922 L73.3790581,16.4969922 L67.6681317,22.4141343 C66.8705617,20.5855838 65.11475,19.4091118 63.1780745,19.4055963 C60.4660191,19.4055963 58.2539869,21.6909281 58.2539869,24.5074877 C58.2541628,26.5150802 59.3906639,28.3359425 61.1576757,29.1596763 L61.1483704,29.155 C61.7105057,29.4164831 62.3093111,29.5685494 62.9188274,29.6022188 L63.1806127,29.6093791 L73.0287879,29.6093791 L73.0283704,29.63 L73.056708,29.6014896 L82.9061523,29.6014896 C85.6227566,29.5942631 87.8232653,27.3142963 87.8302399,24.4995982 C87.8302399,21.6896131 85.6245533,19.3977068 82.9061523,19.3977068 L82.9061523,19.3977068 L82.9061523,18.3760136 C82.9054536,15.2891468 81.5543596,12.3689814 79.232123,10.4352088 L79.2373704,10.44 L79.2168939,10.4404685 Z" id="Combined-Shape"></path>
            <path d="M10.1801902,62.3203111 C7.40401276,62.3203111 5.02069064,61.3652065 3.01189058,59.4549972 C1.00309051,57.5447879 -1.42108547e-14,55.2474429 -1.42108547e-14,52.568056 C-1.42108547e-14,49.8886691 1.001781,47.5913241 3.01189058,45.6811148 C5.02200016,43.7709056 7.40794131,42.8158009 10.1801902,42.8158009 C12.7491118,42.779485 15.2255,43.7475465 17.0538483,45.5028286 L15.1196907,47.383748 C13.7961446,46.1391692 12.0198057,45.4546927 10.1788806,45.4799061 C8.17531865,45.4799061 6.47294571,46.1675815 5.0769999,47.5518465 C3.70471231,48.8770522 2.94917096,50.6902204 2.98570023,52.570603 C2.98570023,54.539392 3.67974458,56.2089149 5.0769999,57.588086 C6.40453908,58.9426071 8.25503292,59.6941167 10.1788806,59.6600263 C12.2191091,59.6600263 13.9044583,59.0232899 15.2467139,57.706519 C16.0324245,56.9424352 16.5562316,55.7963097 16.739564,54.350918 L10.1841187,54.350918 L10.1841187,51.6868128 L19.408361,51.6868128 C19.5065748,52.1605447 19.5393128,52.7055911 19.5393128,53.3423275 C19.5393128,55.9605877 18.7496736,58.0363484 17.1651573,59.5759771 C15.3684991,61.4034106 13.0401767,62.3139437 10.1657855,62.3139437 L10.1801902,62.3203111 Z M31.616994,60.5374491 C30.359857,61.7345136 28.8277214,62.3203111 27.017968,62.3203111 C25.2082146,62.3203111 23.67346,61.7217789 22.4189421,60.5374491 C21.1644242,59.3531194 20.5358557,57.846601 20.5358557,56.0548247 C20.5358557,54.2630484 21.1644242,52.7692647 22.4189421,51.5722002 C23.67346,50.3751358 25.2082146,49.7893382 27.017968,49.7893382 C28.8277214,49.7893382 30.3624761,50.3878705 31.616994,51.5722002 C32.8715119,52.75653 33.5000804,54.2668688 33.5000804,56.0548247 C33.5000804,57.8427806 32.8715119,59.3403846 31.616994,60.5374491 Z M24.4486944,58.7800566 C25.1093827,59.4782874 26.0436144,59.871222 27.0192775,59.861235 C28.0145109,59.861235 28.8709355,59.5021157 29.5898607,58.7787831 C30.3087859,58.0554505 30.6662842,57.1487378 30.6662842,56.0535512 C30.6662842,54.9456298 30.3127144,54.0312763 29.6016463,53.3155846 C28.8905782,52.5998928 28.0328442,52.2458674 27.0192775,52.2458674 C26.0416686,52.2312835 25.1034237,52.6199409 24.4369087,53.3155846 C23.7258407,54.0287294 23.3722709,54.9405359 23.3722709,56.0535512 C23.3722709,57.1461909 23.7297692,58.056724 24.4486944,58.7787831 L24.4486944,58.7800566 Z M45.758475,60.5374491 C44.5013381,61.7345136 42.9692024,62.3203111 41.159449,62.3203111 C39.3496957,62.3203111 37.814941,61.7217789 36.5604231,60.5374491 C35.3059052,59.3531194 34.6773367,57.846601 34.6773367,56.0548247 C34.6773367,54.2630484 35.3059052,52.7692647 36.5604231,51.5722002 C37.814941,50.3751358 39.3496957,49.7893382 41.159449,49.7893382 C42.9692024,49.7893382 44.5039571,50.3878705 45.758475,51.5722002 C47.0129929,52.75653 47.6415614,54.2668688 47.6415614,56.0548247 C47.6415614,57.8427806 47.0129929,59.3403846 45.758475,60.5374491 Z M38.5901754,58.7800566 C39.2508637,59.4782874 40.1850954,59.871222 41.1607586,59.861235 C42.155992,59.861235 43.0124165,59.5021157 43.7313417,58.7787831 C44.4502669,58.0554505 44.8077652,57.1487378 44.8077652,56.0535512 C44.8077652,54.9456298 44.4541954,54.0312763 43.7431274,53.3155846 C43.0320593,52.5998928 42.1743252,52.2458674 41.1607586,52.2458674 C40.1831497,52.2312835 39.2449047,52.6199409 38.5783898,53.3155846 C37.8673217,54.0287294 37.5137519,54.9405359 37.5137519,56.0535512 C37.5137519,57.1461909 37.8712502,58.056724 38.5901754,58.7787831 L38.5901754,58.7800566 Z M55.0547408,67.9745305 C53.6208189,67.9745305 52.4134437,67.6001295 51.435234,66.8538744 C50.4570243,66.1076193 49.7564324,65.2442048 49.3321487,64.2585368 L51.804518,63.2614075 C52.0638025,63.8650337 52.4592768,64.388431 53.0262979,64.832873 C53.5933191,65.277315 54.2572445,65.4976259 55.0586693,65.4976259 C56.1350928,65.4976259 56.9810412,65.1792576 57.5899669,64.5463416 C58.1988926,63.9134256 58.5066293,62.9977986 58.5066293,61.808375 L58.5066293,60.916944 L58.4084154,60.916944 C57.6227049,61.8682282 56.4742579,62.3457805 55.0089076,62.3457805 C53.3615344,62.3457805 51.918446,61.7345136 50.6783328,60.5145266 C49.4609497,59.3491229 48.7887389,57.7489192 48.8188177,56.087935 C48.7882398,54.416756 49.4597841,52.8057216 50.6783328,51.6269596 C51.915827,50.4006052 53.362844,49.7842444 55.0089076,49.7842444 C55.7422375,49.7842444 56.4074725,49.917959 57.0019935,50.1892087 C57.5965145,50.4604584 58.0666313,50.7928349 58.4084154,51.186338 L58.5066293,51.186338 L58.5066293,50.1752005 L61.1989975,50.1752005 L61.1989975,61.4543496 C61.1989975,63.6447229 60.6254288,65.279862 59.4730533,66.3699548 C58.3206778,67.4524067 56.851399,68 55.0560503,68 L55.0547408,67.9745305 Z M55.2511684,59.8599615 C56.1964917,59.8761946 57.0995012,59.479413 57.7117521,58.7787831 C58.3717489,58.056724 58.7017474,57.1576522 58.7017474,56.0764737 C58.7017474,54.983834 58.3717489,54.0694805 57.7117521,53.3385071 C57.1029313,52.6321205 56.1988214,52.2306441 55.2511684,52.2458674 C54.255935,52.2458674 53.4073676,52.6126276 52.7080851,53.3385071 C52.0088027,54.0643866 51.655233,54.9787401 51.655233,56.0764737 C51.655233,57.1538317 52.0048742,58.056724 52.7080851,58.7787831 C53.4112961,59.5008422 54.2572445,59.861235 55.2511684,59.861235 L55.2511684,59.8599615 Z M65.9918321,43.4767333 L65.9918321,61.9420897 L63.1541074,61.9420897 L63.1541074,43.4767333 L65.9918321,43.4767333 Z M73.7703669,62.3190376 C71.9422803,62.3190376 70.4180018,61.7154115 69.1949123,60.5107062 C67.9718228,59.3060009 67.3589685,57.8160376 67.3589685,56.0382695 C67.3589685,54.1993747 67.9482515,52.6890359 69.1320554,51.5174409 C70.2548387,50.3684369 71.8211373,49.7292346 73.4508446,49.7549545 C74.2326266,49.7549545 74.9607185,49.8924895 75.6285725,50.1713801 C76.2495034,50.4188155 76.8145232,50.7822428 77.2916599,51.2410973 C77.6895678,51.6262941 78.0426466,52.0529319 78.344512,52.5132967 C78.5939788,52.9067327 78.8069601,53.3209706 78.9809376,53.7511123 L79.2755791,54.4642571 L70.6406197,57.9433849 C71.2953786,59.2117639 72.3429927,59.8472268 73.772986,59.8472268 C75.0772655,59.8472268 76.1392843,59.2703436 76.9524948,58.1114833 L79.1524844,59.5403199 C78.6614153,60.2534647 77.96999,60.8965684 77.0729704,61.4670843 C76.1759508,62.0376001 75.0720275,62.3203111 73.7677479,62.3203111 L73.7703669,62.3190376 Z M70.1744315,55.8497955 L75.9363091,53.5193402 C75.7713099,53.1220167 75.4727399,52.8011015 75.0196467,52.5565948 C74.5640216,52.3083926 74.0489728,52.1818566 73.5267966,52.1898346 C72.6939434,52.1898346 71.9160899,52.5209375 71.1919267,53.1869638 C70.4677634,53.8529901 70.1181222,54.7431476 70.1508602,55.851069 L70.1744315,55.8497955 Z M94.1778899,62.3190376 C91.5981401,62.3190376 89.437436,61.4709047 87.6931585,59.7720919 C85.948881,58.0732791 85.0741232,55.9580407 85.0741232,53.4200093 C85.0741232,50.881978 85.946262,48.7641926 87.6931585,47.0679268 C89.440055,45.3716609 91.5994496,44.5209811 94.1778899,44.5209811 C96.819187,44.5209811 98.9654864,45.4506162 100.61155,47.3035192 L99.0466765,48.7807478 C97.8681106,47.3366295 96.2312135,46.6158439 94.1752708,46.6158439 C92.2633751,46.6158439 90.6579064,47.2423925 89.3300556,48.4967633 C88.0022047,49.7511341 87.360541,51.3900936 87.360541,53.4200093 C87.360541,55.4499251 88.0152998,57.092705 89.3300556,58.3483493 C90.6448113,59.6039935 92.2542085,60.2292687 94.1752708,60.2292687 C96.2783562,60.2292687 98.0737049,59.4040583 99.5442932,57.7561844 L101.109167,59.2779845 C100.289166,60.2295285 99.2598727,60.989824 98.0972762,61.5027415 C96.8641576,62.054341 95.5207345,62.333548 94.1634852,62.3203111 L94.1778899,62.3190376 Z M105.382123,61.9420897 L103.129752,61.9420897 L103.129752,44.9068433 L105.382123,44.9068433 L105.382123,61.9420897 Z M109.052701,51.6778985 C110.211624,50.4973892 111.671736,49.9039508 113.481489,49.9039508 C115.291243,49.9039508 116.751355,50.4961157 117.910278,51.6778985 C119.069201,52.8596813 119.648008,54.3521915 119.648008,56.1159514 C119.648008,57.8797113 119.07182,59.3722214 117.910278,60.5540042 C116.748736,61.7357871 115.291243,62.3279519 113.481489,62.3279519 C111.671736,62.3279519 110.211624,61.7357871 109.052701,60.5540042 C107.893778,59.3722214 107.314971,57.8797113 107.314971,56.1159514 C107.314971,54.3521915 107.891159,52.8596813 109.052701,51.6778985 Z M110.728883,59.1697393 C111.514594,59.9376434 112.423399,60.3235057 113.47887,60.3235057 C114.534342,60.3235057 115.443147,59.9376434 116.228857,59.1697393 C117.014568,58.4018351 117.391709,57.3805099 117.391709,56.1134044 C117.391709,54.8462989 117.002782,53.8237002 116.228857,53.0570696 C115.454933,52.2904389 114.534342,51.9033032 113.47887,51.9033032 C112.423399,51.9033032 111.514594,52.2891655 110.728883,53.0570696 C109.943173,53.8249737 109.566032,54.8462989 109.566032,56.1134044 C109.566032,57.3805099 109.954958,58.4031086 110.728883,59.1697393 Z M132.100211,61.9420897 L129.946055,61.9420897 L129.946055,60.3247791 L129.847841,60.3247791 C129.507366,60.8787398 128.983559,61.3524717 128.282967,61.7255993 C127.582375,62.0987268 126.842498,62.3113968 126.056787,62.3113968 C124.554771,62.3113968 123.419419,61.8682282 122.645494,60.9780707 C121.871569,60.0879132 121.482642,58.8984895 121.482642,57.4085263 L121.482642,50.268164 L123.735013,50.268164 L123.735013,57.0481335 C123.735013,59.2232251 124.721079,60.308224 126.694522,60.308224 C127.590975,60.3266212 128.440358,59.9188473 128.970464,59.2155843 C129.552626,58.4976976 129.863319,57.6070099 129.85046,56.6928346 L129.85046,50.268164 L132.10283,50.268164 L132.10283,61.9293549 L132.100211,61.9420897 Z M139.73208,62.3203111 C138.182921,62.3203111 136.843284,61.7243258 135.719718,60.5349022 C134.596152,59.3454785 134.033059,57.870797 134.033059,56.1083105 C134.033059,54.3458241 134.596152,52.8711425 135.719718,51.6817189 C136.843284,50.4922953 138.18423,49.89631 139.73208,49.89631 C140.643504,49.89631 141.465881,50.0873309 142.193973,50.4655523 C142.922065,50.8437738 143.464205,51.3213261 143.821704,51.8943889 L143.919918,51.8943889 L143.821704,50.2770784 L143.821704,44.9030229 L146.074074,44.9030229 L146.074074,61.9420897 L143.919918,61.9420897 L143.919918,60.3247791 L143.821704,60.3247791 C143.464205,60.8940215 142.922065,61.3715738 142.193973,61.7536157 C141.467191,62.1280167 140.644814,62.3190376 139.73208,62.3190376 L139.73208,62.3203111 Z M140.098745,60.3209587 C141.126791,60.3345413 142.111438,59.9186011 142.802899,59.1786536 C143.545396,58.4183903 143.915989,57.3932446 143.915989,56.1223187 C143.915989,54.8513928 143.546705,53.8135125 142.802899,53.0659839 C142.111438,52.3260364 141.126791,51.9100962 140.098745,51.9236787 C139.05375,51.9236787 138.15673,52.309541 137.406377,53.0774451 C136.656023,53.8453493 136.282811,54.8666745 136.282811,56.13378 C136.282811,57.4008855 136.656023,58.4234842 137.406377,59.1901148 C138.09196,59.9326586 139.072605,60.3528966 140.098745,60.3438812 L140.098745,60.3209587 Z" id="Shape"></path>
        </g>
    </g>
</svg>