<svg xmlns="http://www.w3.org/2000/svg" viewBox="0 0 448.33 337.56"><defs><style>.cls-1{fill:#fff;}.cls-2{fill:red;}</style></defs><g id="Capa_2" data-name="Capa 2"><g id="Capa_1-2" data-name="Capa 1"><path class="cls-1" d="M238.71,95.48l-.09,80.07,38.58,4.34-38-84.66Z"/><path class="cls-1" d="M234.3,172.71q0-20.62,0-41.26a17.86,17.86,0,0,0-.18-1.91l-.58-.11c-8.32,16.61-16.65,33.21-25.26,50.38,8.5-1.4,16.32-2.72,24.14-3.94C234.53,175.54,234.3,174.13,234.3,172.71Z"/><path class="cls-1" d="M209.76,184.14c7.77,4.47,15.66,8.43,23.59,12.34a3.12,3.12,0,0,0,2,.08q20-5.92,40-11.93c0-.14,0-.28,0-.42Z"/><path class="cls-2" d="M425.88,92.11a22.45,22.45,0,0,0-19,10.49L337.74,74a22.47,22.47,0,0,0-41-16.85l-73-29.78a23.11,23.11,0,0,0,.53-4.82,22.48,22.48,0,1,0-44.95-.05c0,.63,0,1.26.08,1.88L43.54,59.41a22.47,22.47,0,1,0-27,30.74l-.68,92.26a22.48,22.48,0,0,0,12.51,43.17l45.69,72.77a22.47,22.47,0,1,0,37.39,18.55l180.34-16.09a22.48,22.48,0,1,0,42.9-13.43L385,261.29a22.47,22.47,0,1,0,25.41-34.75l15.39-89.48a22.48,22.48,0,0,0,0-44.95ZM334.83,81l69.11,28.65a22.42,22.42,0,0,0,3.37,17.66L348,184.83a22.44,22.44,0,0,0-12.59-4.31L322.68,90.39A22.55,22.55,0,0,0,334.83,81ZM305.1,88.74a22.43,22.43,0,0,0,10,2.7l12.73,90.14a22.5,22.5,0,0,0-11.29,8.14l-9.35-4.65a76.65,76.65,0,0,0-7.9-89Zm7.4,117.55L280,217,278,213.26a76.38,76.38,0,0,0,25-21.8l10.2,5.06a22.44,22.44,0,0,0-.95,6.44A22.8,22.8,0,0,0,312.5,206.29Zm-70.2,1.65a61.53,61.53,0,1,1,61.59-61.46A61.54,61.54,0,0,1,242.3,207.94Zm30.34,11.47-52.1,17.14A22.7,22.7,0,0,0,214,229l5.13-10.19a75.68,75.68,0,0,0,52-2.28ZM169.14,167l-35.62,5.74a22.47,22.47,0,0,0-17.44-14.86l0-44.2a22.52,22.52,0,0,0,14.05-8.46L169,125.65a76.93,76.93,0,0,0,.15,41.31ZM134.73,180.2l36.88-5.94A76.4,76.4,0,0,0,212,216.13l-4.77,9.46a22.14,22.14,0,0,0-6.55-1A22.47,22.47,0,0,0,180,238.29l-71-16.76,3.28-19.08A22.46,22.46,0,0,0,134.73,180.2ZM220.85,34.36l73,29.78A22.46,22.46,0,0,0,299.13,84l-5.08,6.46a75.38,75.38,0,0,0-72.28-18l-9.63-30.1A22.64,22.64,0,0,0,220.85,34.36ZM186.56,39A22.45,22.45,0,0,0,201.75,45a23.36,23.36,0,0,0,3.15-.22l9.66,30.19a76.3,76.3,0,0,0-43.15,43.41L133.72,98.46a22.5,22.5,0,0,0-1.5-17.5Zm-5.29-7.33c.2.45.42.88.64,1.31L127.57,74.94a22.48,22.48,0,0,0-35.73,7.37L45.44,70.44c.05-.59.08-1.18.08-1.78s0-1.27-.08-1.89ZM89.79,180c0,.66,0,1.32.08,2l-31.59,8.29L52.66,170l48.56-59a22.2,22.2,0,0,0,7.31,2.63l0,44.2A22.47,22.47,0,0,0,89.79,180Zm15,21.21-3.2,18.61L64,210.92l-3.72-13.38,31.48-8.26A22.54,22.54,0,0,0,104.77,201.17Zm-59.94.43L53,199.47l2.63,9.46-10.79-2.55a21.94,21.94,0,0,0,.14-2.45A22.44,22.44,0,0,0,44.83,201.6Zm-2-7.32a22.51,22.51,0,0,0-4.71-6.54l8.69-10.56,4.16,15ZM43.56,77.8,90,89.68c0,.59-.08,1.18-.08,1.78a22.39,22.39,0,0,0,5.47,14.71L50.18,161.08,30.37,89.88A22.52,22.52,0,0,0,43.56,77.8ZM23.49,181.45l.63-85.7,20.16,72.49-12.5,15.2A22.33,22.33,0,0,0,23.49,181.45Zm11.83,40.89a22.72,22.72,0,0,0,7.39-8.64l15.22,3.59L78.42,291Zm53.76,70.27c-.77,0-1.53,0-2.28.11L66.37,219.28l33.92,8Zm7.48,1.28L107.7,229l70.55,16.65c0,.45,0,.91,0,1.37a22.25,22.25,0,0,0,1.58,8.3l-73.78,45A22.54,22.54,0,0,0,96.56,293.89Zm194.28-.62-180,16.06a24.14,24.14,0,0,0-.83-2.53l73.78-44.95a22.45,22.45,0,0,0,35.89-2.72l71.75,30A23.22,23.22,0,0,0,290.84,293.27Zm3.49-11.12-71.75-30a22.52,22.52,0,0,0,.57-5,21.62,21.62,0,0,0-.24-3.34l53.28-17.53L301.54,275A22.56,22.56,0,0,0,294.33,282.15Zm87.21-27.6-50.33,26.08a22.46,22.46,0,0,0-22.58-8.42L283.5,223.84l31.38-10.33a22.47,22.47,0,0,0,36.29,4.8l31.17,20.44a22.47,22.47,0,0,0-1.86,8.95A22.16,22.16,0,0,0,381.54,254.55ZM403,225.25a22.41,22.41,0,0,0-16.44,7.15L355.34,212a22.45,22.45,0,0,0-2.06-21.66l59.32-57.55a22.82,22.82,0,0,0,5.76,3Z"/></g></g></svg>