<svg xmlns="http://www.w3.org/2000/svg" viewBox="0 0 581.62 242.08"><defs><style>.cls-1{fill:#fff;}.cls-2{fill:red;}</style></defs><g id="Capa_2" data-name="Capa 2"><g id="Capa_1-2" data-name="Capa 1"><path class="cls-1" d="M344.71,112.87A21.62,21.62,0,1,0,324,97.46l-12,7.34a28.14,28.14,0,0,0-17.19-10.41V80.82a21.6,21.6,0,1,0-8.74,0l0,13.41a28.12,28.12,0,0,0-.06,55.74l0,12.73a21.6,21.6,0,1,0,8.75,0l0-12.88a28.08,28.08,0,0,0,17.74-11.07l11.29,8.8a21.57,21.57,0,1,0,4-8l-11.22-8.75a28.29,28.29,0,0,0-.31-18.3l11.94-7.3A21.58,21.58,0,0,0,344.71,112.87Zm0-31.63a10,10,0,1,1-10,10A10,10,0,0,1,344.74,81.24Zm-44.3,102.58a10,10,0,1,1-10-10A10,10,0,0,1,300.44,183.82ZM290.56,69.65a10,10,0,1,1,10-10A10,10,0,0,1,290.56,69.65ZM344.67,143a10,10,0,1,1-10,10A10,10,0,0,1,344.67,143Z"/><path class="cls-2" d="M100.14,64.72,141.31,92.6v.14h.21l.14.1.07-.1,30.56,0h0l21.6,0h.28v-.89a100.15,100.15,0,0,1,192,1.3l21.59,0a1.46,1.46,0,0,0-.05-.2l30.87,0,.07.1.15-.1h.2v-.14l41.23-27.79a10.55,10.55,0,1,0-11.79-17.49L432.39,72l-31.81,0a121,121,0,0,0-221.08-.25l-31.51,0-36-24.4a10.55,10.55,0,1,0-11.83,17.46Z"/><path class="cls-2" d="M479.79,177.2l-41.17-27.88v-.14h-.2l-.15-.1-.06.1-30.49,0h0l-21.59,0h-.36v1.15a100.15,100.15,0,0,1-192-1.56l-21.59,0a1.46,1.46,0,0,1,.05.2l-30.87,0-.06-.1-.15.1h-.2V149L99.68,176.78a10.54,10.54,0,1,0,11.78,17.49L147.54,170l31.78,0a121,121,0,0,0,221.22.25l31.4,0,36,24.4a10.54,10.54,0,0,0,11.82-17.46Z"/><rect class="cls-1" x="484.34" y="36.68" width="23.33" height="171.23" rx="11.66" transform="matrix(0, -1, 1, 0, 373.16, 618.16)"/><rect class="cls-1" x="135.8" y="98.28" width="23.33" height="47.25" rx="11.66" transform="translate(25.39 269.24) rotate(-89.94)"/><rect class="cls-1" x="73.71" y="98.21" width="23.33" height="47.25" rx="11.66" transform="translate(-36.56 207.08) rotate(-89.94)"/><rect class="cls-1" x="11.63" y="98.48" width="23.33" height="46.58" rx="11.66" transform="translate(-98.51 144.93) rotate(-89.94)"/></g></g></svg>