<?xml version="1.0" encoding="UTF-8"?>
<svg width="91px" height="68px" viewBox="0 0 91 68" version="1.1" xmlns="http://www.w3.org/2000/svg" xmlns:xlink="http://www.w3.org/1999/xlink">
    <title>Group 2</title>
    <g id="Page-1" stroke="none" stroke-width="1" fill="none" fill-rule="evenodd">
        <g id="Group-2" fill="#FFFFFF" fill-rule="nonzero">
            <path d="M2.67791411,62.3333333 C2.95398773,62.0512821 3.20245399,61.7948718 3.50613497,61.5128205 L4.33435583,60.6666667 C4.61042945,60.3589744 4.85889571,60.0769231 5.0797546,59.8461538 C5.3006135,59.6153846 5.54907975,59.3589744 5.71472393,59.1794872 L8.88957055,59.1794872 C8.25460123,59.8461538 7.64723926,60.5128205 7.01226994,61.1282051 C6.43251534,61.7435897 5.76993865,62.3846154 5.05214724,63.0512821 C5.43865031,63.3846154 5.82515337,63.7692308 6.15644172,64.1538462 C6.54294479,64.5897436 6.90184049,65 7.2607362,65.4358974 C7.6196319,65.8717949 7.95092025,66.3076923 8.25460123,66.7692308 C8.55828221,67.2307692 8.80674847,67.6153846 9,68 L5.93558282,68 C5.74233129,67.6923077 5.52147239,67.3846154 5.27300613,67.0512821 C5.02453988,66.6923077 4.77607362,66.3333333 4.47239264,65.974359 C4.19631902,65.6153846 3.9202454,65.2564103 3.58895706,64.9487179 C3.3404908,64.6410256 3.03680982,64.3589744 2.70552147,64.1282051 L2.70552147,67.974359 L0,67.974359 L0,55.3846154 L2.70552147,55 L2.70552147,62.3846154" id="kkkkkkk"></path>
            <path d="M17.9463087,67.5091841 C17.3825503,67.6629645 16.7919463,67.7654848 16.2281879,67.8423751 C15.5033557,67.9448953 14.7516779,67.9961555 14.0268456,67.9961555 C13.3557047,68.0217856 12.6845638,67.9192653 12.0402685,67.6885946 C11.0738255,67.3297736 10.3758389,66.5352413 10.1879195,65.5612986 C10.0536913,65.0230671 10,64.4592055 10,63.9209739 L10,59 L12.6308725,59 L12.6308725,63.6134131 C12.6308725,64.4079453 12.738255,64.997437 12.9530201,65.356258 C13.1677852,65.715079 13.5973154,65.8944895 14.1879195,65.8944895 C14.4026846,65.8944895 14.590604,65.8944895 14.8053691,65.8688595 C15.0201342,65.8432294 15.1812081,65.8432294 15.3691275,65.8175993 L15.3691275,59.0256301 L18,59.0256301 L17.9463087,67.5091841" id="uuuuuuu"></path>
            <path d="M25.5150493,63.3643411 C25.5150493,61.7771318 24.938476,60.996124 23.7853293,60.996124 C23.5346452,60.996124 23.2839612,61.0213178 23.0332771,61.0968992 C22.8327299,61.1472868 22.6321826,61.2228682 22.4316354,61.3488372 L22.4316354,65.8081395 C22.5569774,65.8333333 22.7073878,65.8333333 22.8828667,65.8585271 C23.0583455,65.8585271 23.2588928,65.8837209 23.4845084,65.8837209 C24.0610818,65.9089147 24.6376551,65.6569767 25.0136812,65.2034884 C25.3646389,64.6744186 25.5401177,64.0193798 25.5150493,63.3643411 M27.9968215,63.4399225 C28.0218899,64.0697674 27.8965479,64.7248062 27.6960006,65.3294574 C27.5205218,65.8585271 27.2197009,66.3624031 26.8436748,66.7655039 C26.4425803,67.1686047 25.9662806,67.4709302 25.4398441,67.6976744 C24.8382024,67.8992248 24.1864238,68 23.5346452,68 C23.2338244,68 22.9330035,67.9748062 22.6071142,67.9496124 C22.2812249,67.9244186 21.9804041,67.8992248 21.6545148,67.8488372 C21.3536939,67.8236434 21.0528731,67.748062 20.7520522,67.6976744 C20.5013681,67.6472868 20.2506841,67.5717054 20,67.496124 L20,55.377907 L22.4567038,55 L22.4567038,59.3081395 C22.7324563,59.1821705 23.0332771,59.1065891 23.3090296,59.0310078 C23.6349189,58.9806202 23.9357397,58.9302326 24.261629,58.9302326 C24.8131339,58.9302326 25.3646389,59.0310078 25.866007,59.2577519 C26.3172383,59.4593023 26.7434012,59.7616279 27.0692905,60.1647287 C27.4202482,60.5930233 27.6458638,61.0717054 27.7962743,61.6007752 C27.9216163,62.2054264 27.9968215,62.8100775 27.9968215,63.4399225" id="bbbbbbb"></path>
            <path d="M30.0031093,63.5376754 C29.9783511,62.8687934 30.102142,62.1999114 30.3497237,61.5558028 C30.5725473,61.0355612 30.8696454,60.540093 31.2657762,60.1437185 C31.6371488,59.7721174 32.0580378,59.4748365 32.5532013,59.3014226 C33.0483649,59.1032354 33.5682866,59.0041417 34.0882082,59.0041417 C35.1528098,58.9545949 36.1926532,59.3509694 36.9353984,60.1189451 C37.6533855,60.8621473 38,61.9521773 38,63.3642615 C38,63.512902 38,63.6863158 37.9752418,63.8349563 C37.9752418,63.9835967 37.9504836,64.1322372 37.9504836,64.2808776 L32.4789268,64.2808776 C32.5284432,64.7515724 32.7760249,65.1974937 33.1969139,65.4700012 C33.6920774,65.7920555 34.2615155,65.940696 34.8557117,65.9159226 C35.3013588,65.9159226 35.7222478,65.8911492 36.1431368,65.7920555 C36.5145095,65.7425087 36.8611239,65.6434151 37.2077384,65.4947746 L37.5295947,67.4766473 C37.4058038,67.5261941 37.2324966,67.6005143 37.009673,67.6748345 C36.7620912,67.7491548 36.5145095,67.7987016 36.2669277,67.823475 C35.9945878,67.8730218 35.6974897,67.9225686 35.4251497,67.947342 C35.1280516,67.9721154 34.8061953,67.9968888 34.5090972,67.9968888 C33.8158683,68.0216622 33.1473976,67.8977952 32.503685,67.6500611 C31.9837633,67.4518739 31.4885998,67.1298196 31.092469,66.733445 C30.7210963,66.3122971 30.4487564,65.8416023 30.2754492,65.3213608 C30.102142,64.7515724 30.0031093,64.1570106 30.0031093,63.5376754 M35.6974897,62.5962859 C35.6974897,62.3980986 35.6479733,62.1999114 35.5736988,62.0017241 C35.5241824,61.8035368 35.4251497,61.630123 35.3013588,61.4814825 C35.0290189,61.1346548 34.5833718,60.9364676 34.1129664,60.961241 C33.8653847,60.961241 33.6178029,61.0107878 33.3949793,61.1098814 C33.2216721,61.1842016 33.0483649,61.3080687 32.924574,61.4567091 C32.8007831,61.6053496 32.7017504,61.8035368 32.6274759,61.9769507 C32.5532013,62.175138 32.503685,62.3733252 32.4789268,62.5715125 L35.6727315,62.5715125" id="eeeeeee0"></path>
            <path d="M45.5486726,61.3814041 C45.2831858,61.3047408 45.0176991,61.2536319 44.7256637,61.2280775 C44.380531,61.1769687 44.0619469,61.1258598 43.7168142,61.1258598 C43.5044248,61.1258598 43.3185841,61.1514142 43.1061947,61.1769687 C42.9469027,61.2025231 42.7610619,61.2280775 42.6017699,61.2791864 L42.6017699,68 L40,68 L40,59.6437032 C40.5309735,59.4648222 41.0884956,59.3370501 41.6460177,59.209278 C42.3362832,59.0559514 43.0530973,58.9792881 43.7699115,59.0048426 C43.9292035,59.0048426 44.1150442,59.0048426 44.2743363,59.030397 C44.4867257,59.030397 44.6725664,59.0559514 44.8849558,59.0815058 C45.0707965,59.1070603 45.2566372,59.1326147 45.4955752,59.1837235 C45.6814159,59.209278 45.8672566,59.2859412 46,59.3114957 L45.5486726,61.3814041" id="rrrrrrr"></path>
            <path d="M47,59.4894221 C48.2972973,59.1571773 49.6216216,59.0038336 50.9459459,59.0038336 C51.6216216,58.9782763 52.2702703,59.0805055 52.9189189,59.3105211 C53.4054054,59.4638648 53.8378378,59.744995 54.1621622,60.1283544 C54.4594595,60.5117138 54.6756757,60.9461877 54.8108108,61.4062189 C54.9459459,61.9429221 55,62.5051825 55,63.0418856 L55,68 L52.3783784,68 L52.3783784,63.3485731 C52.3783784,62.556297 52.2702703,61.9684793 52.0540541,61.6362346 C51.8378378,61.3039898 51.4054054,61.150646 50.8108108,61.150646 C50.5945946,61.150646 50.4054054,61.150646 50.1891892,61.1762033 C50,61.1762033 49.8108108,61.2017606 49.6216216,61.2273179 L49.6216216,68 L47.027027,68 L47,59.4894221" id="nnnnnnn"></path>
            <path d="M57.0031093,63.5376754 C56.9783511,62.8687934 57.102142,62.1999114 57.3497237,61.5558028 C57.5725473,61.0355612 57.8696454,60.540093 58.2657762,60.1437185 C58.6371488,59.7721174 59.0580378,59.4748365 59.5532013,59.3014226 C60.0483649,59.1032354 60.5682866,59.0041417 61.0882082,59.0041417 C62.1528098,58.9545949 63.1926532,59.3509694 63.9353984,60.1189451 C64.6533855,60.8621473 65,61.9521773 65,63.3642615 C65,63.512902 65,63.6863158 64.9752418,63.8349563 C64.9752418,63.9835967 64.9504836,64.1322372 64.9504836,64.2808776 L59.4789268,64.2808776 C59.5284432,64.7515724 59.7760249,65.1974937 60.1969139,65.4700012 C60.6920774,65.7920555 61.2615155,65.940696 61.8557117,65.9159226 C62.3013588,65.9159226 62.7222478,65.8911492 63.1431368,65.7920555 C63.5145095,65.7425087 63.8611239,65.6434151 64.2077384,65.4947746 L64.5295947,67.4766473 C64.4058038,67.5261941 64.2324966,67.6005143 64.009673,67.6748345 C63.7620912,67.7491548 63.5145095,67.7987016 63.2669277,67.823475 C62.9945878,67.8730218 62.6974897,67.9225686 62.4251497,67.947342 C62.1280516,67.9721154 61.8061953,67.9968888 61.5090972,67.9968888 C60.8158683,68.0216622 60.1473976,67.8977952 59.503685,67.6500611 C58.9837633,67.4518739 58.4885998,67.1298196 58.092469,66.733445 C57.7210963,66.3122971 57.4487564,65.8416023 57.2754492,65.3213608 C57.0773838,64.7515724 57.0031093,64.1570106 57.0031093,63.5376754 M62.6727315,62.5962859 C62.6727315,62.3980986 62.6232151,62.1999114 62.5489406,62.0017241 C62.4994243,61.8035368 62.4003916,61.630123 62.2766007,61.4814825 C62.0042607,61.1346548 61.5586136,60.9364676 61.0882082,60.961241 C60.8406265,60.961241 60.5930447,61.0107878 60.3702211,61.1098814 C60.1969139,61.1842016 60.0236067,61.3080687 59.8998158,61.4567091 C59.7760249,61.6053496 59.6769922,61.8035368 59.6027177,61.9769507 C59.5284432,62.175138 59.4789268,62.3733252 59.4541686,62.5715125 L62.6232151,62.5715125" id="eeeeeee1"></path>
            <path d="M67.0519481,56.3972186 L69.5974026,56 L69.5974026,58.6746051 L72.6103896,58.6746051 L72.6103896,60.8195854 L69.5714286,60.8195854 L69.5714286,64.0238152 C69.5454545,64.4739962 69.6493506,64.9241773 69.8571429,65.3213959 C70.038961,65.6391707 70.4545455,65.7980582 71,65.7980582 C71.2857143,65.7980582 71.5454545,65.7715769 71.8311688,65.7450957 C72.1168831,65.6921332 72.3766234,65.6126895 72.6363636,65.5332458 L73,67.5458199 C72.6623377,67.6782261 72.3246753,67.784151 71.987013,67.8635947 C71.5194805,67.9695197 71.0519481,67.9960009 70.5844156,67.9960009 C69.987013,68.0224822 69.4155844,67.9165572 68.8441558,67.7047073 C68.4285714,67.5193386 68.0649351,67.2545263 67.7532468,66.9102702 C67.4675325,66.5395328 67.2597403,66.115833 67.1558442,65.6391707 C67.0519481,65.109546 67,64.5799212 67,64.0238152 L67.0519481,56.3972186" id="ttttttt"></path>
            <path d="M74.0031093,63.5376754 C73.9783511,62.8687934 74.102142,62.1999114 74.3497237,61.5558028 C74.5725473,61.0355612 74.8696454,60.540093 75.2657762,60.1437185 C75.6371488,59.7721174 76.0580378,59.4748365 76.5532013,59.3014226 C77.0483649,59.1032354 77.5682866,59.0041417 78.0882082,59.0041417 C79.1528098,58.9545949 80.1926532,59.3509694 80.9353984,60.1189451 C81.6533855,60.8621473 82,61.9521773 82,63.3642615 C82,63.512902 82,63.6863158 81.9752418,63.8349563 C81.9752418,63.9835967 81.9504836,64.1322372 81.9504836,64.2808776 L76.4789268,64.2808776 C76.5284432,64.7515724 76.7760249,65.1974937 77.1969139,65.4700012 C77.6920774,65.7920555 78.2615155,65.940696 78.8557117,65.9159226 C79.3013588,65.9159226 79.7222478,65.8911492 80.1431368,65.7920555 C80.5145095,65.7425087 80.8611239,65.6434151 81.2077384,65.4947746 L81.5295947,67.4766473 C81.4058038,67.5261941 81.2324966,67.6005143 81.009673,67.6748345 C80.7620912,67.7491548 80.5145095,67.7987016 80.2669277,67.823475 C79.9945878,67.8730218 79.6974897,67.9225686 79.4003916,67.947342 C79.1032934,67.9721154 78.7814372,67.9968888 78.4843391,67.9968888 C77.7911101,68.0216622 77.1226394,67.8977952 76.4789268,67.6500611 C75.9590051,67.4518739 75.4638416,67.1298196 75.0677108,66.733445 C74.6963382,66.3122971 74.4239982,65.8416023 74.250691,65.3213608 C74.0773838,64.7515724 74.0031093,64.1570106 74.0031093,63.5376754 M79.6727315,62.5962859 C79.6727315,62.3980986 79.6232151,62.1999114 79.5489406,62.0017241 C79.4994243,61.8035368 79.4003916,61.630123 79.2766007,61.4814825 C79.0042607,61.1346548 78.5586136,60.9364676 78.0882082,60.961241 C77.8406265,60.961241 77.5930447,61.0107878 77.3702211,61.1098814 C77.1969139,61.1842016 77.0236067,61.3080687 76.8998158,61.4567091 C76.7760249,61.6053496 76.6769922,61.8035368 76.6027177,61.9769507 C76.5284432,62.175138 76.4789268,62.3733252 76.4541686,62.5715125 L79.6479733,62.5715125" id="eeeeeee2"></path>
            <path d="M87.0736861,65.9936118 C87.4181509,66.0183242 87.7626157,65.9688994 88.0805832,65.8700498 C88.2660643,65.7712002 88.3720535,65.5735009 88.3720535,65.3758016 C88.3720535,65.1781023 88.239567,65.0298279 88.0010914,64.8815534 C87.6301292,64.6838541 87.2326698,64.5108673 86.8352104,64.3873052 C86.437751,64.2390308 86.0402916,64.0907563 85.7223241,63.9424819 C85.4308539,63.8189198 85.1393836,63.6212205 84.900908,63.4235213 C84.6624323,63.2011096 84.4769513,62.9539855 84.3709621,62.6574366 C84.2384756,62.3114628 84.1854811,61.9654891 84.1854811,61.594803 C84.1589838,60.8534307 84.5034486,60.1614832 85.1393836,59.7166599 C85.7753187,59.2471241 86.6497294,59 87.7626157,59 C88.2925616,59 88.8490048,59.0494248 89.3789506,59.1482745 C89.77641,59.1976993 90.2003667,59.2965489 90.5713289,59.4448234 L90.1208749,61.3229665 C89.8029073,61.2241168 89.4849398,61.1499796 89.140475,61.05113 C88.7695129,60.9522803 88.3720535,60.9275679 87.9745941,60.9275679 C87.153178,60.9275679 86.7822158,61.1252672 86.7822158,61.5453782 C86.7822158,61.6442278 86.8087131,61.718365 86.8352104,61.8172147 C86.888205,61.9160643 86.9676969,61.9902015 87.0471888,62.0643388 C87.153178,62.1137636 87.3121617,62.2126132 87.4446482,62.2867504 C87.6301292,62.3856001 87.8421076,62.4350249 88.1335778,62.5585869 C88.6105291,62.7315738 89.0874804,62.9292731 89.5644317,63.1516848 C89.8823992,63.2999592 90.1738694,63.4976585 90.4123451,63.769495 C90.6243234,63.9671943 90.7833072,64.2143184 90.8627991,64.5108673 C90.9687883,64.8074162 90.9952856,65.1286775 90.9952856,65.4499388 C91.0482801,66.2160235 90.6508207,66.9326834 89.9883884,67.3527943 C89.325956,67.7976177 88.3720535,67.995317 87.1266807,67.995317 C86.437751,68.0200294 85.7753187,67.9458922 85.1128863,67.7976177 C84.7419242,67.7234805 84.3709621,67.6246308 84,67.4763564 L84.450454,65.4993636 C84.900908,65.6476381 85.351362,65.7959126 85.801816,65.8700498 C86.1992754,65.9688994 86.6497294,65.9936118 87.0736861,65.9936118" id="sssssss"></path>
            <path d="M49.5501894,29.9006255 C49.4713068,29.8742507 49.3924242,29.8742507 49.3135416,29.8742507 C49.1820706,29.8742507 49.0505996,29.9270003 48.9454228,29.9797498 C48.4721271,30.2171228 48.2617735,30.770993 48.4721271,31.2457389 L50.7071342,36.6789419 C52.8632586,35.3074537 54.493499,33.2502215 55.3349134,30.8501173 L49.5501894,29.9006255 L49.5501894,29.9006255 Z M40.5575729,30.6654939 C40.4523961,30.2171228 40.057983,29.9006255 39.6109816,29.9006255 C39.5583932,29.9006255 39.4795106,29.9006255 39.4269222,29.9270003 L33.6947866,30.9028668 C34.5624952,33.2765963 36.1664414,35.3338285 38.2962716,36.6789419 L40.5049845,31.2984884 L40.4786903,31.2721136 C40.5838671,31.0874902 40.6101613,30.8764921 40.5575729,30.6654939 L40.5575729,30.6654939 Z M45.3694115,32.7754756 C45.1064695,32.3007297 44.5279971,32.1161063 44.0547015,32.3798541 C43.8969363,32.4589784 43.7391711,32.617227 43.6602885,32.7754756 L40.8468091,37.8921814 C42.8714625,38.5779255 45.0275869,38.6834246 47.1048287,38.2086787 C47.4992417,38.1295543 47.8673605,38.0240553 48.2354793,37.8921814 L45.3694115,32.7754756 L45.3694115,32.7754756 Z M54.2831454,20.9068283 L49.9446024,24.8102945 C49.5501894,25.1795413 49.497601,25.7861611 49.8394256,26.2081574 C49.9708966,26.3400313 50.1286618,26.4455304 50.3127212,26.4982799 L50.3127212,26.5246547 L55.93968,28.1598905 C56.202622,25.6015377 55.5978554,23.0695596 54.2831454,20.9068283 L54.2831454,20.9068283 Z M46.2371201,21.3551994 C46.2634143,21.9090696 46.7104157,22.3046912 47.2625939,22.2783164 C47.4466533,22.2783164 47.6307127,22.1991921 47.7884779,22.093693 L47.8147721,22.093693 L52.5477282,18.7177222 C50.7334284,16.9506125 48.4195387,15.8164973 45.8952955,15.5 L46.2371201,21.3551994 Z M41.2149279,22.1200678 C41.6619293,22.436565 42.2666959,22.3310659 42.5822263,21.9090696 C42.6874031,21.750821 42.7662857,21.5661976 42.7662857,21.3815741 L42.7925799,21.3815741 L43.1344045,15.5527495 C42.7399915,15.6054991 42.3455785,15.6582486 41.9511655,15.7637477 C39.8739236,16.2384936 37.954447,17.2671097 36.4556776,18.7704717 L41.2149279,22.1200678 L41.2149279,22.1200678 Z M38.6643904,26.5246547 C39.1902744,26.3927808 39.5058048,25.8389106 39.3480396,25.3114152 C39.2954512,25.1267918 39.1902744,24.9685431 39.0588034,24.8366693 L39.0588034,24.8102945 L34.6939662,20.9068283 C33.352962,23.0695596 32.8007838,25.6279124 33.0637258,28.1598905 L38.6643904,26.5246547 L38.6643904,26.5246547 Z M42.8977567,28.2390149 L44.5017029,29.0038832 L46.1056491,28.2390149 L46.5000621,26.4982799 L45.3957057,25.100417 L43.6077001,25.100417 L42.5033437,26.4982799 L42.8977567,28.2390149 Z" id="Shape"></path>
            <path d="M70.9215976,31.6171617 L66.3742604,11.630363 C66.1390533,10.5742574 65.433432,9.7029703 64.4664694,9.22772277 L46.0157791,0.356435644 C45.0488166,-0.118811881 43.9250493,-0.118811881 42.9580868,0.356435644 L24.5335306,9.25412541 C23.566568,9.72937294 22.8870809,10.6006601 22.6257396,11.6567657 L18.0784024,31.6435644 C17.9738659,32.1452145 17.9738659,32.6732673 18.0784024,33.1749175 C18.1045365,33.3333333 18.1568047,33.4917492 18.209073,33.6237624 C18.2874753,33.8877888 18.418146,34.1254125 18.5488166,34.3366337 C18.6010848,34.4422442 18.6794872,34.5214521 18.7578895,34.6270627 L31.5113412,50.6534653 C31.5636095,50.7326733 31.6158777,50.7854785 31.6942801,50.8646865 C31.9033531,51.0759076 32.112426,51.2607261 32.3737673,51.4191419 C32.6873767,51.630363 33.0271203,51.7623762 33.392998,51.8679868 C33.6804734,51.9471947 33.9940828,52 34.2815582,52 L54.7445759,52 C54.8752465,52 54.979783,52 55.1104536,51.9735974 C55.2933925,51.9471947 55.4501972,51.9207921 55.6331361,51.8679868 C55.7638067,51.8415842 55.8683432,51.7887789 55.9990138,51.7623762 C56.1035503,51.7359736 56.1819527,51.6831683 56.260355,51.6567657 C56.3910256,51.6039604 56.5216963,51.5247525 56.6523669,51.4455446 C56.9659763,51.2343234 57.2534517,50.9966997 57.4886588,50.679868 L57.8806706,50.1782178 L70.2421105,34.6534653 C70.4773176,34.3630363 70.6602564,34.019802 70.790927,33.650165 C70.8431953,33.4917492 70.8954635,33.359736 70.9215976,33.2013201 C71.0261341,32.6468647 71.0261341,32.1188119 70.9215976,31.6171617 Z M51.7914201,39.379538 C51.8436884,39.5379538 51.8959566,39.6963696 51.974359,39.8283828 C51.8698225,40.039604 51.8436884,40.2508251 51.8959566,40.4884488 C52.1572978,41.0957096 52.4970414,41.7029703 52.8629191,42.2574257 C53.0719921,42.5478548 53.2810651,42.8382838 53.4640039,43.1551155 C53.5162722,43.2343234 53.5685404,43.3663366 53.6208087,43.4455446 C53.9344181,43.9735974 53.7514793,44.660066 53.2287968,44.9768977 C52.7061144,45.2937294 52.0266272,45.1089109 51.7130178,44.5808581 C51.6868836,44.5280528 51.6346154,44.4488449 51.6084813,44.3960396 C51.556213,44.3168317 51.5039448,44.1848185 51.4778107,44.1056106 C51.34714,43.7623762 51.2426036,43.4191419 51.1642012,43.0759076 C50.9812623,42.4158416 50.7199211,41.8085809 50.4063116,41.2013201 C50.275641,41.0165017 50.066568,40.8844884 49.8313609,40.8580858 C49.8052268,40.8052805 49.6745562,40.5676568 49.5961538,40.4356436 C46.3032544,41.7029703 42.6967456,41.6765677 39.4299803,40.4092409 L39.1686391,40.8580858 C38.9857002,40.8844884 38.8288955,40.9636964 38.6982249,41.0957096 C38.3323471,41.7293729 38.0448718,42.3894389 37.8357988,43.1023102 C37.7573964,43.4455446 37.65286,43.7887789 37.5221893,44.1320132 C37.4960552,44.2112211 37.4176529,44.3168317 37.3915187,44.4224422 C37.1824458,45.0033003 36.5552268,45.320132 35.9802761,45.1089109 C35.4053254,44.8976898 35.091716,44.2640264 35.300789,43.6831683 C35.3269231,43.6039604 35.3530572,43.5511551 35.4053254,43.4719472 C35.4575937,43.3927393 35.5098619,43.2607261 35.5359961,43.1815182 C35.7189349,42.8646865 35.9018738,42.5742574 36.1370809,42.2838284 C36.5290927,41.7029703 36.8688363,41.0957096 37.1301775,40.4620462 C37.1563116,40.2508251 37.1301775,40.039604 37.025641,39.8283828 L37.234714,39.3531353 C34.2031558,37.5577558 31.9556213,34.7062706 30.8841223,31.3267327 L30.4137081,31.4059406 C30.2307692,31.2739274 29.9955621,31.1947195 29.7864892,31.1683168 C29.1331361,31.30033 28.479783,31.4851485 27.8525641,31.7491749 C27.5389546,31.9075908 27.199211,32.0132013 26.8594675,32.1452145 C26.7810651,32.1716172 26.6765286,32.1980198 26.5719921,32.1980198 L26.545858,32.1980198 L26.5197239,32.1980198 C25.9447732,32.3828383 25.3175542,32.0660066 25.1346154,31.4851485 C24.9516765,30.9042904 25.265286,30.2706271 25.8402367,30.0858086 C25.9186391,30.0594059 25.9709073,30.0594059 26.0493097,30.0330033 L26.0754438,30.0330033 C26.1799803,30.0066007 26.2845168,29.980198 26.3629191,29.9537954 C26.7026627,29.9009901 27.0685404,29.8745875 27.4344181,29.8745875 C28.1139053,29.8217822 28.7672584,29.7161716 29.4206114,29.5577558 C29.6035503,29.4257426 29.7864892,29.2673267 29.8910256,29.0825083 L30.3614398,28.950495 C29.8648915,25.4389439 30.6489152,21.8481848 32.6089744,18.8910891 L32.2430966,18.5742574 C32.2430966,18.3366337 32.1646943,18.1254125 32.0340237,17.9405941 C31.5374753,17.4917492 30.9886588,17.1221122 30.387574,16.7788779 C30.0739645,16.620462 29.760355,16.4356436 29.4728797,16.2508251 C29.3944773,16.1980198 29.316075,16.1188119 29.2376726,16.0660066 L29.2115385,16.0660066 C28.688856,15.6963696 28.5581854,14.9570957 28.9501972,14.4290429 C29.1592702,14.1650165 29.4990138,14.0066007 29.8387574,14.0330033 C30.1262327,14.0330033 30.387574,14.1386139 30.5966469,14.3234323 C30.6750493,14.3762376 30.7795858,14.4554455 30.831854,14.5082508 C31.0931953,14.7458746 31.3284024,15.009901 31.5636095,15.30033 C32.0078895,15.8019802 32.5044379,16.2508251 33.0532544,16.6468647 C33.2623274,16.7524752 33.4975345,16.7788779 33.7066075,16.69967 C33.8372781,16.8052805 33.9679487,16.8844884 34.0986193,16.990099 C36.0325444,14.9042904 38.5414201,13.4521452 41.3116371,12.8184818 C41.9649901,12.660066 42.6444773,12.5544554 43.2978304,12.5016502 L43.3239645,12.0264026 C43.5069034,11.8679868 43.6114398,11.6831683 43.6898422,11.4455446 C43.7159763,10.7590759 43.6637081,10.0990099 43.5591716,9.41254125 C43.4807692,9.06930693 43.428501,8.69966997 43.4023669,8.35643564 L43.4023669,8.0660066 L43.4023669,8.03960396 C43.3500986,7.43234323 43.7943787,6.87788779 44.3954635,6.82508251 C44.9965483,6.77227723 45.5453649,7.22112211 45.5976331,7.82838284 L45.5976331,8.38283828 C45.571499,8.72607261 45.5192308,9.09570957 45.4408284,9.43894389 C45.3362919,10.0990099 45.2840237,10.7854785 45.3101578,11.4719472 C45.362426,11.709571 45.4930966,11.8943894 45.6760355,12.0264026 C45.6760355,12.1056106 45.7021696,12.369637 45.7021696,12.5280528 C49.1780079,12.8448845 52.4447732,14.4290429 54.8491124,16.990099 L55.2672584,16.69967 C55.5024655,16.7260726 55.7115385,16.7260726 55.9467456,16.620462 C56.4955621,16.2244224 56.9921105,15.7491749 57.4363905,15.2739274 C57.6715976,15.009901 57.9068047,14.7458746 58.168146,14.4818482 C58.2465483,14.4290429 58.3249507,14.349835 58.4033531,14.2970297 C58.8476331,13.8745875 59.5532544,13.8745875 59.9714004,14.2970297 C60.3895464,14.7458746 60.3895464,15.4587459 59.9714004,15.8811881 C59.9191321,15.9339934 59.8668639,15.9867987 59.7884615,16.039604 C59.7100592,16.0924092 59.6055227,16.1716172 59.5532544,16.2508251 C59.2657791,16.4356436 58.9521696,16.620462 58.6385602,16.7788779 C58.0636095,17.1221122 57.5147929,17.4917492 56.9921105,17.9405941 C56.8353057,18.1254125 56.7569034,18.3366337 56.7830375,18.5742574 C56.7307692,18.6270627 56.4955621,18.8118812 56.3910256,18.9174917 C58.3510848,21.8745875 59.1612426,25.4389439 58.6908284,28.950495 L59.1351085,29.0825083 C59.239645,29.2937294 59.4225838,29.4521452 59.6055227,29.5577558 C60.2588757,29.7425743 60.9122288,29.8481848 61.591716,29.8745875 C61.9575937,29.8745875 62.2973373,29.9009901 62.6370809,29.9537954 C62.7416174,29.980198 62.872288,30.0066007 62.9506903,30.0330033 C63.5517751,30.1122112 63.9960552,30.6666667 63.8915187,31.30033 C63.8131164,31.9075908 63.2642998,32.3564356 62.6370809,32.2508251 C62.5586785,32.2508251 62.5064103,32.2244224 62.4280079,32.1980198 L62.4018738,32.1980198 L62.3757396,32.1980198 C62.2973373,32.1716172 62.1666667,32.1452145 62.0882643,32.1452145 C61.7485207,32.039604 61.4087771,31.9075908 61.0951677,31.7491749 C60.4679487,31.4851485 59.8407298,31.30033 59.1612426,31.1683168 C58.9260355,31.1683168 58.7169625,31.2475248 58.5340237,31.4059406 L58.0636095,31.3267327 C57.0966469,34.7062706 54.8229783,37.5577558 51.7914201,39.379538 L51.7914201,39.379538 Z" id="Shape"></path>
        </g>
    </g>
</svg>