<svg xmlns="http://www.w3.org/2000/svg" viewBox="0 0 477.51 309.13"><defs><style>.cls-1{fill:red;}.cls-2{fill:#fff;}</style></defs><g id="Capa_2" data-name="Capa 2"><g id="Capa_1-2" data-name="Capa 1"><path class="cls-1" d="M443.83,121.16a33.69,33.69,0,0,0-32.71,25.5l-47.85,0c-5.6-18-28.84-33.39-61.28-42.16l33.46-33.39A38.27,38.27,0,1,0,323.33,59.2l-41,40.93a251.09,251.09,0,0,0-34.39-3.38V83.54a33.71,33.71,0,1,0-17,0l0,13.15a251.82,251.82,0,0,0-34.34,3.36L154.34,57.73A38.09,38.09,0,1,0,142.7,70.07L177,104.4c-32.28,8.72-55.41,24-61,41.94l-49.6-.06a33.72,33.72,0,1,0,0,17l49.6,0c5.58,18,28.68,33.28,60.94,42.07l-33.92,33.85a38.48,38.48,0,1,0,11.55,12.42l42-41.92a253.2,253.2,0,0,0,34.33,3.43v12.05a33.72,33.72,0,1,0,17,.08l0-12.09a253.17,253.17,0,0,0,34.4-3.32l40.64,40.73a38.32,38.32,0,1,0,12-12l-32.91-33c32.46-8.7,55.73-24,61.37-42l48,.05a33.7,33.7,0,1,0,32.57-42.46ZM238.45,196.29c-58.44-.07-105.79-18.75-105.76-41.72S180.1,113,238.54,113.09,344.32,131.83,344.3,154.8,296.88,196.35,238.45,196.29Z"/><path class="cls-2" d="M269.06,127.86c-7.87,0-16.51,3.65-25.66,10.89-1.28,1-2.57,2.1-3.85,3.24-8.05-7.38-20.3-14.19-30.4-14.2-14.49,0-30.09,8.33-30.11,26.69s15.56,26.74,30.05,26.76c10,0,19.36-5.36,25.45-9.86,1.09-.81,2.92-2.22,4.84-3.93,1.52,1.33,3,2.49,4.08,3.35,6.19,4.78,15.65,10.49,25.55,10.5,14.49,0,30.09-8.33,30.11-26.69S283.56,127.87,269.06,127.86Zm-55.35,39.56c-4.08,0-10.9-1.69-10.89-12.91s6.84-12.9,10.92-12.9c5,0,11.62,7.14,15.83,13.16C225.74,160.2,219.14,167.43,213.71,167.42Zm50.71.06c-4.66,0-10.69-6.25-15.21-12.63,4.83-6.85,10.84-13.19,15.24-13.18,4.07,0,10.9,1.69,10.89,12.92S268.5,167.49,264.42,167.48Z"/></g></g></svg>