<?xml version="1.0" encoding="UTF-8"?>
<svg width="114px" height="110px" viewBox="0 0 114 110" version="1.1" xmlns="http://www.w3.org/2000/svg" xmlns:xlink="http://www.w3.org/1999/xlink">
    <title>Shape</title>
    <g id="Page-1" stroke="none" stroke-width="1" fill="none" fill-rule="evenodd">
        <path d="M0,57.478595 C0.528825495,26.3115931 22.3946101,4.13207124 49.1577786,0.537997229 C81.0712476,-3.7308263 107.926386,17.9346007 113.076686,46.6917828 C117.97407,73.9571719 102.960025,99.4783104 78.2201884,109.576603 C76.081894,110.448728 74.909281,109.966764 74.0815541,107.809401 C69.9889046,97.183244 65.8962552,86.5494363 61.8036057,75.9079783 C61.0908409,74.0489745 61.5736815,72.8784907 63.4130746,72.0522667 C68.9772385,69.5276937 72.4490928,65.3047715 73.3687893,59.2457961 C74.0692383,54.7540324 72.8708287,50.1735435 70.0595037,46.5972441 C67.2481787,43.0209447 63.0760813,40.7695871 58.5386831,40.3803502 C49.5716421,39.6000276 42.0301306,45.8196576 40.7195631,54.0818967 C39.5239576,61.6556159 43.2717209,68.7014698 50.3533841,71.9145628 C52.5606557,72.924392 52.9975116,73.8883199 52.1467923,76.137485 C48.0311504,86.8324945 43.9155085,97.5351542 39.7998666,108.245464 C39.2020639,109.82906 37.8914963,110.379876 36.2360426,109.737257 C24.1420335,105.078272 12.921736,95.7373522 6.16196664,82.4259669 C0.436855844,71.1342402 0.367878605,62.2982345 0,57.478595 Z M4.80541428,57.0425324 C4.89738393,58.5572762 4.94336876,60.3244774 5.10431565,62.1146292 C6.55283766,78.6161567 16.5085524,95.0488322 35.2243764,104.137295 C35.9601337,104.481555 36.2360426,104.320901 36.5119516,103.60943 C39.9378211,94.6357203 43.386683,85.6620106 46.8585373,76.6883009 C47.1574387,75.930929 46.9964918,75.586669 46.3067194,75.1506064 C39.041117,70.5834242 35.4313082,64.0195343 35.8221792,55.4130352 C36.0521033,50.4556918 37.9604736,46.1180162 41.2943734,42.4918113 C48.1920973,34.9869441 58.9985313,33.357447 67.8506102,38.4524944 C75.167698,42.6639446 79.2581446,50.8299833 78.2431808,59.1998948 C77.415454,66.222798 73.8056452,71.5703028 67.7356482,75.2194584 C67.114853,75.586669 66.9309137,75.8850277 67.2068227,76.5964982 C70.7016694,85.5931586 74.1658596,94.5974692 77.5993933,103.60943 C77.8753022,104.320901 78.1512112,104.481555 78.8869684,104.137295 C87.049275,100.327485 93.8780216,94.8881776 99.1432841,87.612817 C107.144644,76.5505969 110.432559,64.2260903 108.869075,50.6622477 C105.719114,23.6952174 81.4161338,1.36422114 50.12346,5.21993272 C25.72851,8.20351906 5.21927771,28.7443635 4.80541428,57.0425324 Z" id="Shape" fill="#FFFFFF" fill-rule="nonzero"></path>
    </g>
</svg>