<svg xmlns="http://www.w3.org/2000/svg" xmlns:xlink="http://www.w3.org/1999/xlink" viewBox="0 0 286.58 168.54"><defs><style>.cls-1{fill:url(#Degradado_sin_nombre_3);}.cls-2{fill:url(#Degradado_sin_nombre_3-2);}</style><linearGradient id="Degradado_sin_nombre_3" x1="96.25" y1="112.7" x2="185.53" y2="112.7" gradientUnits="userSpaceOnUse"><stop offset="0" stop-color="#f15a24"/><stop offset="0.18" stop-color="#f25321"/><stop offset="0.45" stop-color="#f53e19"/><stop offset="0.77" stop-color="#fb1c0b"/><stop offset="1" stop-color="red"/></linearGradient><linearGradient id="Degradado_sin_nombre_3-2" x1="0" y1="83.56" x2="286.58" y2="83.56" xlink:href="#Degradado_sin_nombre_3"/></defs><g id="Capa_2" data-name="Capa 2"><g id="Capa_1-2" data-name="Capa 1"><path class="cls-1" d="M177.08,101.88c-1.58-.4-1.79-.91-1.77-2.24,0-4.78-.17-9.58.05-14.36.49-10.06-4.22-17.28-12.44-22.11-14-8.2-28.46-8.34-42.67-.76-9,4.81-14.3,12.38-13.72,23.27.25,4.69.07,9.4,0,14.1,0,.77.43,1.7-1,2-7.14,1.55-9,3.85-9.15,11-.24,16.18-.14,32.35.39,48.51a7.1,7.1,0,0,0,7.45,7.19H140.9q18.48,0,36.95,0c3.18,0,7.06-2.87,7.14-5.28.56-17.34.62-34.69.47-52C185.41,105.64,181.87,103.1,177.08,101.88Zm-19-.08c-5.74-.11-11.49,0-17.24,0s-11.31-.08-17,0c-1.92,0-2.4-.57-2.35-2.44.12-5,.18-9.93,0-14.88-.21-5.68,2.39-9.65,6.93-12.57,7.36-4.75,18.66-4.47,25.75.63,3.87,2.8,6.09,6.46,6,11.44-.12,5.23-.08,10.47,0,15.7C160.27,101.35,159.8,101.83,158.12,101.8Z"/><path class="cls-2" d="M286.12,108.41c-2.41-14.91-8.8-26.93-21.59-35.17a55.71,55.71,0,0,0-22-8.19c-2.23-.34-3.37-1-3.67-3.63a35.89,35.89,0,0,0-5-14.05C221.9,27,198,17.72,174.39,24.28a3.76,3.76,0,0,1-4.56-1.37A60.64,60.64,0,0,0,144.2,5.16C126.2-1.48,108-1.41,89.69,3.62,75.5,7.52,63.47,14.85,54.59,26.89a64.49,64.49,0,0,0-11.8,28.93c-.39,2.55-1,4.06-4.1,4.71-10.24,2.14-19.35,6.83-25.84,15.24C-1.39,94.22-3.34,115,4.76,136.12S31,165,52.12,166.59c8.47.64,17,.14,25.55.08,3.06,0,7.3,1.32,8.85-.55s.26-6,.42-9.05c.09-1.73-.46-2.15-2.15-2.13-8.81.09-17.63,0-26.45.07a62.25,62.25,0,0,1-15.45-1.76c-12.23-3.05-22.34-9.12-27.11-21.42-5.27-13.59-5.11-27.39,1.18-40.66,6.42-13.56,18.22-19,32.4-20.35,4.5-.43,4.42-.42,4.49-5.15.26-18.33,7.33-33.28,22.87-43.23s33-12.15,51.06-9.36c16.54,2.57,29.7,10.78,38.62,25.27.9,1.46,1.61,1.51,3,.74A42,42,0,0,1,194,34.42c16.66,1.63,35.11,16.3,33.41,36.54-.43,5.11-.14,5.08,5.14,5.17,11.24.17,21.64,3.08,30.11,10.75,14.63,13.26,16.78,37.46,1.17,55.3-8.09,9.24-18.75,12.64-30.6,12.78-12,.15-24.05.07-36.07,0-1.78,0-2.49.31-2.32,2.26a35.07,35.07,0,0,1-.07,6.64c-.25,2.21.29,3,2.66,2.9,6.71-.18,13.43-.07,20.14-.07,5.71,0,11.43-.07,17.14,0a52.71,52.71,0,0,0,24.79-5.92C277.73,151.65,289.06,126.66,286.12,108.41Z"/></g></g></svg>