<?xml version="1.0" encoding="UTF-8"?>
<svg width="211px" height="177px" viewBox="0 0 211 177" version="1.1" xmlns="http://www.w3.org/2000/svg" xmlns:xlink="http://www.w3.org/1999/xlink">
    <title>logo_icon2</title>
    <defs>
        <linearGradient x1="0.000139176341%" y1="49.9890807%" x2="99.9971944%" y2="49.9890807%" id="linearGradient-1">
            <stop stop-color="#3171B0" offset="0%"></stop>
            <stop stop-color="#15314D" offset="100%"></stop>
        </linearGradient>
    </defs>
    <g id="Page-1" stroke="none" stroke-width="1" fill="none" fill-rule="evenodd">
        <g id="logo_icon2" transform="translate(-0.004764, -0.001727)" fill="url(#linearGradient-1)" fill-rule="nonzero">
            <path d="M208.004764,0.681727153 C207.166837,0.218775329 206.221917,-0.0157303599 205.264764,0 L196.904764,0 C193.404764,0.191727153 191.374764,2.25172715 191.354764,5.67172715 C191.214764,32.7417272 187.504764,58.7817272 180.894764,79.3817272 L180.004764,82.0017272 C172.004764,105.311727 160.924764,118.681727 149.664764,118.681727 C145.783076,118.558356 142.051794,117.151652 139.054764,114.681727 C137.55128,113.561305 137.226139,111.441211 138.324764,109.921727 C142.516332,104.133222 142.936665,96.4286785 139.399703,90.218531 C135.862741,84.0083835 129.021692,80.4395282 121.904764,81.0917272 C120.276557,81.2227828 118.774207,80.2101489 118.284764,78.6517272 C117.538097,76.2783939 116.831431,73.8383939 116.164764,71.3317272 L96.8547636,13.9017272 C95.9249903,11.1126432 93.3147412,9.23149133 90.3747636,9.23172715 L90.3747636,9.23172715 C87.4158992,9.21173877 84.7889511,11.121141 83.8947636,13.9417272 L61.0647636,83.4117272 C59.7167451,87.5908862 58.0863235,91.6736224 56.1847636,95.6317272 C49.0047636,110.471727 40.2447636,118.721727 31.4047636,118.721727 C21.9747636,118.721727 12.7347636,109.451727 5.22476355,92.5517272 C4.73251377,91.3663107 3.49268891,90.6720088 2.22476355,90.8717272 C1.4503098,91.0077206 0.774130024,91.475758 0.374114503,92.1527073 C-0.0259010185,92.8296567 -0.109699983,93.6477372 0.144763552,94.3917272 L26.2847636,172.281727 C27.0585046,174.682728 29.302257,176.302766 31.8247636,176.281727 L31.8247636,176.281727 C34.3446202,176.301597 36.5848618,174.681169 37.3547636,172.281727 L63.1747636,94.2817272 C64.9652226,88.7519904 67.4911933,83.4881499 70.6847636,78.6317272 C76.7547636,69.5117272 83.5147636,64.6317272 90.3147636,64.6317272 C97.8947636,64.6317272 105.364764,70.6317272 111.884764,81.7217272 C112.696785,83.0938916 112.442849,84.8464665 111.274764,85.9317272 C105.70374,91.0016907 103.822336,98.9747464 106.539156,106.000394 C109.255976,113.026042 116.012113,117.658958 123.544764,117.661727 L123.544764,117.661727 C125.083501,117.608894 126.480891,118.55395 127.004764,120.001727 L144.564764,172.331727 C145.338505,174.732728 147.582257,176.352766 150.104764,176.332129 L150.104764,176.332129 C152.624621,176.351597 154.864862,174.731169 155.634764,172.331727 L184.924764,83.7017272 C185.224764,82.8117272 185.524764,81.9117272 185.814764,81.0017272 L210.374764,6.85172715 C211.153255,4.49313623 210.162043,1.91263984 208.004764,0.681727153" id="Path"></path>
        </g>
    </g>
</svg>