<?xml version="1.0" encoding="UTF-8"?>
<svg width="1010px" height="268px" viewBox="0 0 1010 268" version="1.1" xmlns="http://www.w3.org/2000/svg" xmlns:xlink="http://www.w3.org/1999/xlink">
    <title>Group</title>
    <defs>
        <linearGradient x1="0.000139176341%" y1="49.9890807%" x2="99.9971944%" y2="49.9890807%" id="linearGradient-1">
            <stop stop-color="#3171B0" offset="0%"></stop>
            <stop stop-color="#0E2133" offset="100%"></stop>
        </linearGradient>
    </defs>
    <g id="Page-1" stroke="none" stroke-width="1" fill="none" fill-rule="evenodd">
        <g id="Group" transform="translate(-0.000445, -0.004080)" fill-rule="nonzero">
            <path d="M437.410445,104.92408 C434.950445,98.1907471 431.173778,93.3674138 426.080445,90.4540805 C420.987112,87.5407471 413.767112,86.0840805 404.420445,86.0840805 C393.987112,86.0840805 386.003778,87.8507471 380.470445,91.3840805 C375.113738,94.5639932 371.925297,100.419062 372.160445,106.64408 C372.160445,112.14408 374.233778,116.390747 378.380445,119.38408 C382.527112,122.377414 389.193778,124.450747 398.380445,125.60408 L412.530445,127.45408 C422.797112,128.687414 430.287112,131.20408 435.000445,135.00408 C439.713778,138.80408 442.073778,144.177414 442.080445,151.12408 C442.080445,159.250747 439.080445,165.36408 433.080445,169.46408 C427.080445,173.56408 418.153778,175.617414 406.300445,175.62408 C382.747112,175.62408 369.533778,167.910747 366.660445,152.48408 L369.740445,152.48408 C371.08756,159.007555 375.259582,164.597112 381.130445,167.74408 C387.130445,171.117414 395.520445,172.800747 406.300445,172.79408 C428.140445,172.79408 439.057112,165.61408 439.050445,151.25408 C439.050445,144.93408 436.853778,140.130747 432.460445,136.84408 C428.067112,133.557414 420.813778,131.277414 410.700445,130.00408 L398.140445,128.40408 C388.040445,127.070747 380.673778,124.690747 376.040445,121.26408 C371.407112,117.837414 369.073778,113.037414 369.040445,106.86408 C368.810809,99.8166309 372.350186,93.1798236 378.330445,89.4440805 C384.530445,85.3040805 393.197112,83.2307471 404.330445,83.2240805 C414.330445,83.2240805 422.127112,84.8440805 427.720445,88.0840805 C433.313778,91.3240805 437.457112,96.6807471 440.150445,104.15408 L437.410445,104.92408 Z" id="Path" fill="#FFFFFF"></path>
            <path d="M460.920445,85.4740805 L463.920445,85.4740805 L463.920445,96.7940805 L460.920445,96.7940805 L460.920445,85.4740805 Z M460.920445,110.47408 L463.920445,110.47408 L463.920445,173.37408 L460.920445,173.37408 L460.920445,110.47408 Z" id="Shape" fill="#FFFFFF"></path>
            <path d="M521.370445,172.13408 C517.391879,173.938587 513.057971,174.823825 508.690445,174.72408 C496.870445,174.72408 490.960445,168.77408 490.960445,156.87408 L490.960445,112.92408 L478.280445,112.92408 L478.280445,110.46408 L491.000445,110.46408 L491.000445,92.8540805 L494.000445,92.8540805 L494.000445,110.46408 L520.000445,110.46408 L520.000445,112.92408 L493.900445,112.92408 L493.900445,156.92408 C493.900445,167.10408 498.827112,172.190747 508.680445,172.18408 C512.774848,172.19916 516.832107,171.407416 520.620445,169.85408 L521.370445,172.13408 Z" id="Path" fill="#FFFFFF"></path>
            <path d="M531.090445,142.83408 C531.090445,152.27408 533.737112,159.607414 539.030445,164.83408 C544.323778,170.060747 551.730445,172.687414 561.250445,172.71408 C568.057112,172.71408 573.803778,171.420747 578.490445,168.83408 C582.933557,166.524484 586.356331,162.641775 588.090445,157.94408 L590.920445,157.94408 C589.247081,163.381159 585.544188,167.965012 580.580445,170.74408 C575.407112,173.78408 568.963778,175.300747 561.250445,175.294102 C550.670445,175.294102 542.503778,172.44408 536.750445,166.74408 C530.997112,161.04408 528.127112,152.937414 528.140445,142.42408 C527.984327,136.200938 529.314448,130.030278 532.020445,124.42408 C534.500678,119.442064 538.424578,115.323015 543.280445,112.60408 C548.641766,109.707285 554.668629,108.266079 560.760445,108.42408 C570.760445,108.42408 578.537112,111.23408 584.090445,116.85408 C589.643778,122.47408 592.413778,130.290747 592.400493,140.30408 L592.400493,142.76408 L531.090445,142.83408 Z M589.440445,140.37408 C589.440445,131.187414 586.917112,124.007414 581.870445,118.83408 C576.823778,113.660747 569.787112,111.07408 560.760445,111.07408 C551.900445,111.07408 544.820445,113.700747 539.520445,118.95408 C534.220445,124.207414 531.410445,131.347414 531.090445,140.37408 L589.440445,140.37408 Z" id="Shape" fill="#FFFFFF"></path>
            <polygon id="Path" fill="#FFFFFF" points="693.100445 173.37408 664.540445 89.4140805 636.100445 173.37408 632.410445 173.37408 603.110445 85.4740805 606.310445 85.4740805 634.250445 169.55408 662.820445 85.8440805 666.380445 85.8440805 694.950445 169.79408 723.010445 85.4740805 726.090445 85.4740805 696.790445 173.37408"></polygon>
            <path d="M798.000445,173.36408 L798.000445,133.11408 C798.000445,126.05408 796.000445,120.617414 792.000445,116.80408 C788.000445,112.990747 782.217112,111.080747 774.650445,111.07408 C770.856435,111.067791 767.0812,111.606629 763.440445,112.67408 C759.980753,113.67333 756.700411,115.212256 753.720445,117.23408 C750.643276,119.269432 748.015888,121.913836 746.000445,125.00408 C744.34991,127.604847 743.456516,130.613991 743.420445,133.69408 L743.420445,173.32408 L740.420445,173.32408 L740.420445,85.4740805 L743.420445,85.4740805 L743.420445,125.11408 C746.251098,119.898828 750.581002,115.652526 755.850445,112.92408 C761.620702,109.902239 768.057832,108.378922 774.570445,108.49408 C782.937112,108.49408 789.420445,110.647414 794.020445,114.95408 C798.620445,119.260747 800.917112,125.31408 800.910459,133.11408 L800.910459,173.36408 L798.000445,173.36408 Z" id="Path" fill="#FFFFFF"></path>
            <path d="M821.620445,142.83408 C821.620445,152.27408 824.267112,159.607414 829.560445,164.83408 C834.853778,170.060747 842.260445,172.687414 851.780445,172.71408 C858.593778,172.71408 864.340445,171.420747 869.020445,168.83408 C873.463557,166.524484 876.886331,162.641775 878.620445,157.94408 L881.450445,157.94408 C879.777081,163.381159 876.074188,167.965012 871.110445,170.74408 C865.943778,173.78408 859.500445,175.300747 851.780445,175.294102 C841.193778,175.294102 833.027112,172.44408 827.280445,166.74408 C821.533778,161.04408 818.663778,152.937414 818.670445,142.42408 C818.515827,136.202181 819.84228,130.032632 822.540445,124.42408 C825.024874,119.441718 828.952023,115.322916 833.810445,112.60408 C839.171766,109.707285 845.198629,108.266079 851.290445,108.42408 C861.290445,108.42408 869.067112,111.23408 874.620445,116.85408 C880.173778,122.47408 882.943778,130.290747 882.930493,140.30408 L882.930493,142.76408 L821.620445,142.83408 Z M880.000445,140.37408 C880.000445,131.187414 877.477112,124.007414 872.430445,118.83408 C867.383778,113.660747 860.347112,111.07408 851.320445,111.07408 C842.460445,111.07408 835.380445,113.700747 830.080445,118.95408 C824.780445,124.207414 821.970445,131.347414 821.650445,140.37408 L880.000445,140.37408 Z" id="Shape" fill="#FFFFFF"></path>
            <path d="M901.150445,173.36408 L901.150445,110.46408 L904.150445,110.46408 L904.150445,125.00408 C909.479133,115.266779 919.772287,109.291973 930.870445,109.49408 C932.973026,109.501624 935.07214,109.665408 937.150445,109.98408 L936.780445,112.82408 C934.83135,112.465935 932.852006,112.298478 930.870445,112.32408 C922.450822,112.126801 914.393533,115.747435 908.950445,122.17408 C907.385743,123.858538 906.117794,125.795963 905.200445,127.90408 C904.498225,129.772771 904.158829,131.758239 904.200445,133.75408 L904.200445,173.38408 L901.150445,173.36408 Z" id="Path" fill="#FFFFFF"></path>
            <path d="M945.840445,142.83408 C945.840445,152.27408 948.487112,159.607414 953.780445,164.83408 C959.073778,170.060747 966.480445,172.700747 976.000445,172.75408 C982.807112,172.75408 988.550445,171.460747 993.230445,168.87408 C997.673557,166.564484 1001.09633,162.681775 1002.83044,157.98408 L1005.67044,157.98408 C1003.9928,163.421876 1000.28662,168.005372 995.320445,170.78408 C990.147112,173.82408 983.707112,175.340747 976.000445,175.334102 C965.413778,175.334102 957.247112,172.48408 951.500445,166.78408 C945.753778,161.08408 942.880445,152.977414 942.880445,142.46408 C942.724327,136.240938 944.054448,130.070278 946.760445,124.46408 C949.240262,119.496012 953.156418,115.388229 958.000445,112.67408 C963.365397,109.777339 969.395456,108.336193 975.490445,108.49408 C985.490445,108.49408 993.263778,111.30408 998.810445,116.92408 C1004.35711,122.54408 1007.12711,130.360747 1007.12046,140.37408 L1007.12046,142.83408 L945.840445,142.83408 Z M1004.19044,140.37408 C1004.19044,131.187414 1001.66711,124.007414 996.620445,118.83408 C991.573778,113.660747 984.537112,111.07408 975.510445,111.07408 C966.637112,111.07408 959.557112,113.700747 954.270445,118.95408 C948.983778,124.207414 946.173778,131.347414 945.840445,140.37408 L1004.19044,140.37408 Z" id="Shape" fill="#FFFFFF"></path>
            <path d="M611.420445,224.46408 C609.439979,224.580404 607.486937,223.956714 605.940445,222.71408 C604.585771,221.466823 603.853372,219.683431 603.940445,217.84408 C603.914251,216.211757 604.317742,214.601242 605.110445,213.17408 C605.903237,211.781354 607.080063,210.646186 608.500445,209.90408 C610.068601,209.080797 611.819681,208.667968 613.590445,208.70408 C615.285557,208.630693 616.958909,209.107791 618.360445,210.06408 C619.596069,210.960077 620.403802,212.32924 620.590445,213.84408 L617.100445,214.29408 C616.826817,212.461774 615.151264,211.175268 613.310445,211.38408 C612.260747,211.366926 611.225367,211.629222 610.310445,212.14408 C609.422699,212.653438 608.703197,213.411174 608.240445,214.32408 C607.714418,215.357294 607.453267,216.504988 607.480445,217.66408 C607.394375,218.797208 607.794335,219.913461 608.580445,220.73408 C609.469301,221.46968 610.610556,221.828565 611.760445,221.73408 C613.845139,221.92459 615.79923,220.695602 616.530445,218.73408 L620.000445,218.73408 C619.539769,220.468752 618.476193,221.982575 617.000445,223.00408 C615.343292,224.029791 613.417945,224.53811 611.470445,224.46408" id="Path" fill="#306FAE"></path>
            <path d="M636.840445,224.46408 C635.425075,224.490841 634.020342,224.214668 632.720445,223.65408 C631.585059,223.154274 630.611833,222.347293 629.910445,221.32408 C629.230111,220.270857 628.881734,219.0376 628.910445,217.78408 C628.88139,216.143822 629.288612,214.525288 630.090445,213.09408 C630.895204,211.719812 632.074476,210.602972 633.490445,209.87408 C635.087968,209.065429 636.860374,208.663547 638.650445,208.70408 C640.062484,208.67844 641.463722,208.954596 642.760445,209.51408 C643.899563,210.007828 644.87432,210.816079 645.570445,211.84408 C646.255379,212.89522 646.604167,214.129931 646.570445,215.38408 C646.601099,217.02135 646.193716,218.637074 645.390445,220.06408 C644.591617,221.445551 643.411039,222.567101 641.990445,223.29408 C640.396063,224.101516 638.627191,224.503376 636.840445,224.46408 M637.060445,221.78408 C638.683552,221.862775 640.26523,221.256949 641.420445,220.11408 C642.532088,218.886613 643.111142,217.26814 643.030445,215.61408 C643.088752,214.449397 642.635897,213.31726 641.790445,212.51408 C640.847515,211.723001 639.639553,211.319156 638.410445,211.38408 C636.787338,211.305386 635.20566,211.911212 634.050445,213.05408 C632.938802,214.281548 632.359748,215.900021 632.440445,217.55408 C632.382138,218.718764 632.834993,219.850901 633.680445,220.65408 C634.623375,221.44516 635.831337,221.849005 637.060445,221.78408" id="Shape" fill="#306FAE"></path>
            <path d="M657.540445,209.15408 L660.910445,209.15408 L660.390445,211.58408 C661.268384,210.675463 662.318923,209.951304 663.480445,209.45408 C664.633555,208.958804 665.875471,208.703615 667.130445,208.70408 C668.503829,208.628017 669.861044,209.03094 670.970445,209.84408 C671.909726,210.59726 672.436513,211.750998 672.390445,212.95408 C672.37598,213.694155 672.288896,214.431022 672.130445,215.15408 L670.330445,224.00408 L666.900445,224.00408 L668.670445,215.29408 C668.773372,214.844351 668.830331,214.385327 668.840445,213.92408 C668.886223,213.233931 668.609166,212.561607 668.090445,212.10408 C667.446519,211.641695 666.661261,211.418852 665.870445,211.47408 C665.100403,211.47803 664.337676,211.623796 663.620445,211.90408 C662.863166,212.181283 662.159481,212.587256 661.540445,213.10408 C661.023335,213.514161 660.57444,214.003557 660.210445,214.55408 C659.863868,215.063548 659.625613,215.638764 659.510445,216.24408 L657.940445,224.00408 L654.510445,224.00408 L657.540445,209.15408 Z" id="Path" fill="#306FAE"></path>
            <path d="M683.490445,209.15408 L686.860445,209.15408 L686.350445,211.58408 C688.111526,209.746801 690.545451,208.706786 693.090445,208.70408 C694.463243,208.632977 695.818828,209.035416 696.930445,209.84408 C697.867282,210.598301 698.390529,211.752413 698.340445,212.95408 C698.331004,213.694492 698.243859,214.431866 698.080445,215.15408 L696.290445,224.00408 L692.860445,224.00408 L694.630445,215.29408 C694.728393,214.843489 694.785292,214.384946 694.800445,213.92408 C694.84688,213.231743 694.565451,212.557794 694.040445,212.10408 C693.400343,211.641638 692.618171,211.418666 691.830445,211.47408 C691.060403,211.47803 690.297676,211.623796 689.580445,211.90408 C688.819642,212.180244 688.112498,212.58626 687.490445,213.10408 C686.97847,213.519647 686.530349,214.008201 686.160445,214.55408 C685.822244,215.068028 685.584704,215.641518 685.460445,216.24408 L683.890445,224.00408 L680.470445,224.00408 L683.490445,209.15408 Z" id="Path" fill="#306FAE"></path>
            <path d="M714.650445,224.46408 C712.652896,224.582991 710.681292,223.96375 709.110445,222.72408 C707.74906,221.511094 707.013128,219.744859 707.110445,217.92408 C707.104878,216.620106 707.359868,215.328158 707.860445,214.12408 C708.338559,212.97815 709.066221,211.953273 709.990445,211.12408 C711.863947,209.47906 714.299429,208.619479 716.790445,208.72408 C718.66334,208.623174 720.513824,209.17055 722.030445,210.27408 C723.305133,211.304115 724.017202,212.8766 723.950445,214.51408 C723.956843,215.090502 723.909977,215.666281 723.810445,216.23408 L723.610445,217.46408 L710.360445,217.46408 C710.345097,217.670462 710.345097,217.877699 710.360445,218.08408 C710.296814,219.169582 710.735584,220.224106 711.550445,220.94408 C712.522053,221.669334 713.720637,222.023945 714.930445,221.94408 C715.96221,221.976991 716.987984,221.775256 717.930445,221.35408 C718.693947,221.002168 719.30973,220.393463 719.670445,219.63408 L723.000445,219.63408 C722.483291,221.168124 721.413936,222.454915 720.000445,223.24408 C718.334943,224.12869 716.464903,224.556522 714.580445,224.48408 M720.660445,215.17408 C720.697601,215.029949 720.721039,214.882626 720.730445,214.73408 C720.730445,214.58408 720.730445,214.45408 720.730445,214.31408 C720.794893,213.420306 720.408377,212.55346 719.700445,212.00408 C718.814229,211.415262 717.763285,211.124501 716.700445,211.17408 C715.377425,211.11452 714.068138,211.463664 712.950445,212.17408 C711.955238,212.884932 711.24611,213.92735 710.950445,215.11408 L720.660445,215.17408 Z" id="Shape" fill="#306FAE"></path>
            <path d="M739.890445,224.46408 C737.906601,224.582924 735.949545,223.95909 734.400445,222.71408 C733.045771,221.466823 732.313372,219.683431 732.400445,217.84408 C732.374251,216.211757 732.777742,214.601242 733.570445,213.17408 C734.373985,211.775702 735.565304,210.639954 737.000445,209.90408 C738.571735,209.079561 740.326357,208.666709 742.100445,208.70408 C743.792695,208.62852 745.463548,209.105906 746.860445,210.06408 C748.096069,210.960077 748.903802,212.32924 749.090445,213.84408 L745.610445,214.29408 C745.331963,212.460302 743.653414,211.174887 741.810445,211.38408 C740.761192,211.370721 739.726782,211.632771 738.810445,212.14408 C737.927316,212.659291 737.209281,213.415483 736.740445,214.32408 C736.222547,215.359855 735.965107,216.506322 735.990445,217.66408 C735.901722,218.795718 736.297971,219.911761 737.080445,220.73408 C737.973908,221.468399 739.117676,221.826947 740.270445,221.73408 C742.355139,221.92459 744.30923,220.695602 745.040445,218.73408 L748.490445,218.73408 C747.998869,220.451842 746.910199,221.937681 745.420445,222.92408 C743.767611,223.951255 741.84498,224.459777 739.900445,224.38408" id="Path" fill="#306FAE"></path>
            <path d="M762.870445,224.32408 C759.863778,224.32408 758.360445,223.13408 758.360445,220.75408 C758.366947,220.138998 758.433936,219.526047 758.560445,218.92408 L760.020445,211.75408 L757.130445,211.75408 L757.680445,209.16408 L760.560445,209.16408 L761.360445,205.16408 L764.790445,205.16408 L763.990445,209.16408 L769.070445,209.16408 L768.530445,211.75408 L763.440445,211.75408 L762.000445,219.00408 C761.928924,219.332652 761.892056,219.667818 761.890445,220.00408 C761.890445,221.07408 762.570445,221.60408 763.890445,221.60408 C764.655064,221.586066 765.414371,221.471834 766.150445,221.26408 L766.580445,223.75408 C765.371695,224.10668 764.11956,224.288441 762.860445,224.29408" id="Path" fill="#306FAE"></path>
            <path d="M797.000445,224.46408 C795.002896,224.582991 793.031292,223.96375 791.460445,222.72408 C790.09906,221.511094 789.363128,219.744859 789.460445,217.92408 C789.454878,216.620106 789.709868,215.328158 790.210445,214.12408 C790.688559,212.97815 791.416221,211.953273 792.340445,211.12408 C794.213947,209.47906 796.649429,208.619479 799.140445,208.72408 C801.01334,208.623174 802.863824,209.17055 804.380445,210.27408 C805.657582,211.303073 806.373191,212.875188 806.310445,214.51408 C806.313715,215.090818 806.2635,215.666616 806.160445,216.23408 L805.960445,217.46408 L792.680445,217.46408 C792.666682,217.670518 792.666682,217.877643 792.680445,218.08408 C792.614318,219.167936 793.049287,220.222182 793.860445,220.94408 C794.832053,221.669334 796.030637,222.023945 797.240445,221.94408 C798.27221,221.976991 799.297984,221.775256 800.240445,221.35408 C801.003947,221.002168 801.61973,220.393463 801.980445,219.63408 L805.380445,219.63408 C804.863291,221.168124 803.793936,222.454915 802.380445,223.24408 C800.714943,224.12869 798.844903,224.556522 796.960445,224.48408 M803.040445,215.17408 C803.077601,215.029949 803.101039,214.882626 803.110445,214.73408 C803.110445,214.58408 803.110445,214.45408 803.110445,214.31408 C803.156451,213.405601 802.738497,212.535804 802.000445,212.00408 C801.114229,211.415262 800.063285,211.124501 799.000445,211.17408 C797.677425,211.11452 796.368138,211.463664 795.250445,212.17408 C794.255238,212.884932 793.54611,213.92735 793.250445,215.11408 L803.040445,215.17408 Z" id="Shape" fill="#306FAE"></path>
            <polygon id="Path" fill="#306FAE" points="814.180445 209.16408 817.840445 209.16408 820.550445 220.69408 827.920445 209.16408 831.770445 209.16408 821.750445 224.00408 818.130445 224.00408"></polygon>
            <path d="M844.770445,224.46408 C842.772896,224.582991 840.801292,223.96375 839.230445,222.72408 C837.86906,221.511094 837.133128,219.744859 837.230445,217.92408 C837.224878,216.620106 837.479868,215.328158 837.980445,214.12408 C838.458559,212.97815 839.186221,211.953273 840.110445,211.12408 C841.983947,209.47906 844.419429,208.619479 846.910445,208.72408 C848.78334,208.623174 850.633824,209.17055 852.150445,210.27408 C853.425133,211.304115 854.137202,212.8766 854.070445,214.51408 C854.076843,215.090502 854.029977,215.666281 853.930445,216.23408 L853.730445,217.46408 L840.480445,217.46408 C840.465097,217.670462 840.465097,217.877699 840.480445,218.08408 C840.416814,219.169582 840.855584,220.224106 841.670445,220.94408 C842.642053,221.669334 843.840637,222.023945 845.050445,221.94408 C846.08221,221.976991 847.107984,221.775256 848.050445,221.35408 C848.813947,221.002168 849.42973,220.393463 849.790445,219.63408 L853.190445,219.63408 C852.673291,221.168124 851.603936,222.454915 850.190445,223.24408 C848.524943,224.12869 846.654903,224.556522 844.770445,224.48408 M850.850445,215.17408 C850.887601,215.029949 850.911039,214.882626 850.920445,214.73408 C850.920445,214.58408 850.920445,214.45408 850.920445,214.31408 C850.956157,213.416036 850.539344,212.55988 849.810445,212.03408 C848.924229,211.445262 847.873285,211.154501 846.810445,211.20408 C845.487425,211.14452 844.178138,211.493664 843.060445,212.20408 C842.065238,212.914932 841.35611,213.95735 841.060445,215.14408 L850.850445,215.17408 Z" id="Shape" fill="#306FAE"></path>
            <path d="M864.900445,209.15408 L868.270445,209.15408 L867.750445,211.70408 C869.251277,209.950583 871.442366,208.93903 873.750445,208.93408 C874.270549,208.927372 874.78996,208.974286 875.300445,209.07408 L874.300445,211.93408 C873.793709,211.830765 873.277593,211.780493 872.760445,211.78408 C871.340126,211.763482 869.953553,212.217462 868.820445,213.07408 C868.300715,213.461708 867.850928,213.935168 867.490445,214.47408 C867.149638,214.98189 866.914943,215.553322 866.800445,216.15408 L865.300445,224.00408 L861.870445,224.00408 L864.900445,209.15408 Z" id="Path" fill="#306FAE"></path>
            <path d="M882.540445,229.86408 C882.01282,229.858749 881.486982,229.801811 880.970445,229.69408 C880.49938,229.601466 880.039945,229.457263 879.600445,229.26408 L880.340445,226.77408 C880.984517,226.998023 881.658884,227.122781 882.340445,227.14408 C882.944646,227.164695 883.542954,227.019441 884.070445,226.72408 C884.680059,226.280652 885.19086,225.715366 885.570445,225.06408 L886.740445,223.32408 L882.230445,209.15408 L885.880445,209.15408 L889.140445,220.06408 L896.140445,209.15408 L900.000445,209.15408 L889.180445,225.15408 C888.321157,226.582144 887.213778,227.8453 885.910445,228.88408 C884.929668,229.551874 883.766861,229.901065 882.580445,229.88408" id="Path" fill="#306FAE"></path>
            <path d="M911.780445,224.32408 C908.773778,224.32408 907.270445,223.13408 907.270445,220.75408 C907.276947,220.138998 907.343936,219.526047 907.470445,218.92408 L908.930445,211.75408 L906.000445,211.75408 L906.540445,209.16408 L909.430445,209.16408 L910.230445,205.16408 L913.650445,205.16408 L912.860445,209.16408 L918.000445,209.16408 L917.460445,211.75408 L912.370445,211.75408 L910.870445,219.00408 C910.796203,219.332407 910.75599,219.66751 910.750445,220.00408 C910.750445,221.07408 911.440445,221.60408 912.810445,221.60408 C913.571809,221.5864 914.327851,221.472154 915.060445,221.26408 L915.490445,223.75408 C914.28525,224.107305 913.036326,224.289089 911.780445,224.29408" id="Path" fill="#306FAE"></path>
            <path d="M928.140445,203.62408 L931.570445,203.62408 L930.000445,211.50408 C931.757008,209.724211 934.149788,208.716725 936.650445,208.70408 C938.023829,208.628017 939.381044,209.03094 940.490445,209.84408 C941.433643,210.594204 941.961389,211.75004 941.910445,212.95408 C941.893796,213.694004 941.806737,214.430661 941.650445,215.15408 L939.850445,224.00408 L936.420445,224.00408 L938.190445,215.29408 C938.295481,214.844468 938.355774,214.385566 938.370445,213.92408 C938.412198,213.232527 938.131602,212.560572 937.610445,212.10408 C936.969595,211.643181 936.187993,211.420371 935.400445,211.47408 C934.627061,211.47703 933.860874,211.622809 933.140445,211.90408 C932.385184,212.181082 931.682004,212.583382 931.060445,213.09408 C930.545333,213.510162 930.096824,214.00251 929.730445,214.55408 C929.387986,215.065761 929.15009,215.64011 929.030445,216.24408 L927.430445,224.00408 L924.000445,224.00408 L928.140445,203.62408 Z" id="Path" fill="#306FAE"></path>
            <path d="M953.000445,209.15408 L956.430445,209.15408 L953.430445,224.00408 L950.000445,224.00408 L953.000445,209.15408 Z M954.090445,203.62408 L957.630445,203.62408 L956.940445,206.96408 L953.400445,206.96408 L954.090445,203.62408 Z" id="Shape" fill="#306FAE"></path>
            <path d="M966.690445,209.15408 L970.060445,209.15408 L969.550445,211.58408 C971.309121,209.749302 973.738925,208.709504 976.280445,208.70408 C977.653829,208.628017 979.011044,209.03094 980.120445,209.84408 C981.063643,210.594204 981.591389,211.75004 981.540445,212.95408 C981.52598,213.694155 981.438896,214.431022 981.280445,215.15408 L979.480445,224.00408 L976.060445,224.00408 L977.830445,215.29408 C977.928393,214.843489 977.985292,214.384946 978.000445,213.92408 C978.042198,213.232527 977.761602,212.560572 977.240445,212.10408 C976.600343,211.641638 975.818171,211.418666 975.030445,211.47408 C974.257149,211.477942 973.491127,211.623689 972.770445,211.90408 C972.014007,212.18308 971.310615,212.588883 970.690445,213.10408 C970.173335,213.514161 969.72444,214.003557 969.360445,214.55408 C969.017986,215.065761 968.78009,215.64011 968.660445,216.24408 L967.090445,224.00408 L963.660445,224.00408 L966.690445,209.15408 Z" id="Path" fill="#306FAE"></path>
            <path d="M996.760445,229.86408 C992.093778,229.86408 989.627112,228.29408 989.360445,225.15408 L992.820445,225.15408 C992.993248,225.852996 993.475634,226.434804 994.130445,226.73408 C995.052917,227.109073 996.04571,227.279656 997.040445,227.23408 C998.060454,227.270419 999.078185,227.114367 1000.04044,226.77408 C1000.78407,226.504274 1001.42653,226.011951 1001.88044,225.36408 C1002.37967,224.585212 1002.71955,223.71511 1002.88044,222.80408 L1003.28044,220.86408 C1002.55864,221.769898 1001.61955,222.478521 1000.55044,222.92408 C999.361109,223.41119 998.085532,223.652699 996.800445,223.63408 C995.085345,223.719556 993.402898,223.143228 992.100445,222.02408 C990.901415,220.87927 990.259116,219.269873 990.340445,217.61408 C990.313055,216.034897 990.710217,214.47733 991.490445,213.10408 C992.257917,211.758089 993.382717,210.650594 994.740445,209.90408 C996.187459,209.094291 997.82242,208.680377 999.480445,208.70408 C1000.67964,208.671343 1001.86831,208.935872 1002.94044,209.47408 C1003.89725,209.974755 1004.68125,210.75178 1005.19044,211.70408 L1005.70044,209.15408 L1009.07044,209.15408 L1006.50044,221.80408 C1006.22112,223.514454 1005.60596,225.15261 1004.69044,226.62408 C1003.93563,227.748857 1002.85348,228.61458 1001.59044,229.10408 C1000.04579,229.657975 998.41059,229.915808 996.770445,229.86408 M1004.25044,216.18408 C1004.32761,215.798954 1004.36447,215.406841 1004.36044,215.01408 C1004.38264,214.140337 1004.0675,213.291606 1003.48044,212.64408 C1002.52302,211.736741 1001.22529,211.27872 999.910445,211.38408 C998.830351,211.364751 997.762154,211.612051 996.800445,212.10408 C995.905209,212.548458 995.158294,213.243262 994.650445,214.10408 C994.117967,215.066823 993.852149,216.15426 993.880445,217.25408 C993.817096,218.293216 994.229121,219.304884 995.000445,220.00408 C995.849579,220.683799 996.913306,221.038375 998.000445,221.00408 C999.47459,221.044579 1000.9181,220.578703 1002.09044,219.68408 C1002.61241,219.278413 1003.07374,218.800248 1003.46044,218.26408 C1003.78408,217.78072 1004.00529,217.236199 1004.11044,216.66408 L1004.25044,216.18408 Z" id="Shape" fill="#306FAE"></path>
            <path d="M311.550445,0.00408048216 L298.870445,0.00408048216 C293.550445,0.294080482 290.480445,3.42408048 290.450445,8.61408048 C290.230445,49.7040805 284.610445,89.2240805 274.560445,120.49408 L273.230445,124.49408 C261.050445,159.87408 244.230445,180.16408 227.180445,180.16408 C221.720445,180.16408 216.310445,178.16408 211.070445,174.16408 C208.847863,172.452614 208.37532,169.290554 210.000445,167.00408 C216.387591,158.203859 217.028283,146.478448 211.638012,137.034693 C206.247741,127.590938 195.825892,122.179763 185.000445,123.20408 C182.532046,123.408759 180.253158,121.870094 179.520445,119.50408 C178.367112,115.90408 177.290445,112.200747 176.290445,108.39408 L147.000445,21.0940805 C145.586989,16.86452 141.629929,14.0104451 137.170445,14.0040805 C132.680598,13.9745838 128.695224,16.873406 127.340445,21.1540805 L92.680445,126.61408 C90.6340769,132.958338 88.158358,139.155988 85.270445,145.16408 C74.270445,167.68408 61.080445,180.16408 47.660445,180.16408 C33.350445,180.16408 19.320445,166.10408 7.92044497,140.43408 C7.17261359,138.661656 5.32523698,137.614809 3.42044497,137.88408 C2.23816249,138.085293 1.2027416,138.792867 0.585715841,139.821243 C-0.0313099209,140.849619 -0.16838238,142.096202 0.210444974,143.23408 L39.890445,261.50408 C41.0868407,265.118626 44.48326,267.54464 48.290445,267.50408 C52.1154227,267.529111 55.5133372,265.066736 56.680445,261.42408 L95.890445,143.00408 C98.6205369,134.612034 102.457699,126.62159 107.300445,119.24408 C116.520445,105.38408 126.780445,98.0040805 137.100445,98.0040805 C148.600445,98.0040805 159.940445,107.18408 169.830445,124.00408 C171.07447,126.083432 170.690533,128.750126 168.910445,130.39408 C160.457477,138.088167 157.603186,150.186753 161.725852,160.847675 C165.848518,171.508597 176.100151,178.539015 187.530445,178.54408 C189.860994,178.512286 191.950907,179.974016 192.720445,182.17408 L219.370445,261.60408 C220.567961,265.222173 223.96959,267.649019 227.780445,267.604694 C231.605423,267.629111 235.003337,265.166736 236.170445,261.52408 L280.690445,127.00408 C281.140445,125.65408 281.590445,124.29408 282.040445,122.91408 L319.310445,10.3940805 C320.508183,6.80842142 319.004788,2.87614292 315.720445,1.00408048 C314.440372,0.315585796 313.003552,-0.0289752832 311.550445,0.00408048216 Z" id="Path" fill="url(#linearGradient-1)"></path>
        </g>
    </g>
</svg>