<svg xmlns="http://www.w3.org/2000/svg" xmlns:xlink="http://www.w3.org/1999/xlink" viewBox="0 0 210.64317410392687 176.33202370116487">
  <defs>
    <style>.cls-2{fill:url(#Degradado_sin_nombre_2);}</style>
    <linearGradient id="Degradado_sin_nombre_2" y1="88.13" x2="210.63" y2="88.13" gradientUnits="userSpaceOnUse">
      <stop offset="0" stop-color="#f15a24"/>
      <stop offset="0.18" stop-color="#f25321"/>
      <stop offset="0.45" stop-color="#f53e19"/>
      <stop offset="0.77" stop-color="#fb1c0b"/>
      <stop offset="1" stop-color="red"/>
    </linearGradient>
  </defs>
  
  <path class="cls-2" d="M208,.68A5.46,5.46,0,0,0,205.26,0H196.9c-3.5.19-5.53,2.25-5.55,5.67-.14,27.07-3.85,53.11-10.46,73.71L180,82c-8,23.31-19.08,36.68-30.34,36.68a17.56,17.56,0,0,1-10.61-4,3.43,3.43,0,0,1-.73-4.76,18.22,18.22,0,0,0-16.42-28.83,3.5,3.5,0,0,1-3.62-2.44q-1.12-3.56-2.12-7.32L96.85,13.9a6.83,6.83,0,0,0-6.48-4.67h0a6.75,6.75,0,0,0-6.48,4.71L61.06,83.41a96.94,96.94,0,0,1-4.88,12.22C49,110.47,40.24,118.72,31.4,118.72c-9.43,0-18.67-9.27-26.18-26.17a2.78,2.78,0,0,0-3-1.68A2.69,2.69,0,0,0,.14,94.39l26.14,77.89a5.77,5.77,0,0,0,5.54,4h0a5.76,5.76,0,0,0,5.53-4l25.82-78a64.83,64.83,0,0,1,7.51-15.65c6.07-9.12,12.83-14,19.63-14,7.58,0,15.05,6,21.57,17.09a3.39,3.39,0,0,1-.61,4.21,18.24,18.24,0,0,0,12.27,31.73h0A3.55,3.55,0,0,1,127,120l17.56,52.33a5.77,5.77,0,0,0,5.54,4h0a5.76,5.76,0,0,0,5.53-4L184.92,83.7c.3-.89.6-1.79.89-2.7L210.37,6.85A5.22,5.22,0,0,0,208,.68"/>

</svg>