<svg xmlns="http://www.w3.org/2000/svg" xmlns:xlink="http://www.w3.org/1999/xlink" viewBox="0 0 932.44 176.26"><defs><style>.cls-1{fill:#ffffff;}.cls-2{fill:url(#Degradado_sin_nombre_2);}</style><linearGradient id="Degradado_sin_nombre_2" y1="88.13" x2="210.63" y2="88.13" gradientUnits="userSpaceOnUse"><stop offset="0" stop-color="#f15a24"/><stop offset="0.18" stop-color="#f25321"/><stop offset="0.45" stop-color="#f53e19"/><stop offset="0.77" stop-color="#fb1c0b"/><stop offset="1" stop-color="red"/></linearGradient></defs><g id="Capa_2" data-name="Capa 2"><g id="Capa_1-2" data-name="Capa 1"><path class="cls-1" d="M317.62,68.39q-4-10.85-12.18-15.55t-23.28-4.69q-16.82,0-25.74,5.68a18.33,18.33,0,0,0-8.93,16.41q0,8.87,6.68,13.69t21.5,6.69l15.22,2q16.53,2,24.14,8.07T322.64,118q0,13.11-9.72,19.72t-28.78,6.61q-38,0-42.6-24.87h3.31a24.15,24.15,0,0,0,12.23,16.41q9.74,5.41,27.06,5.42,35.19,0,35.19-23.15,0-10.2-7.07-15.48T288.9,95.38l-13.49-1.72Q259.14,91.55,251.66,86T244.18,70.5a21.29,21.29,0,0,1,10-18.72q10-6.68,28-6.68,16.14,0,25.14,5.23t13.36,17.26Z"/><path class="cls-1" d="M284.14,146.83c-26.58,0-41.74-9.05-45.06-26.91a2.5,2.5,0,0,1,2.46-3h3.31a2.5,2.5,0,0,1,2.43,1.94,21.55,21.55,0,0,0,11,14.78c6.08,3.39,14.77,5.11,25.84,5.11,22,0,32.7-6.76,32.7-20.65,0-6-2-10.42-6.08-13.48-4.35-3.25-11.8-5.54-22.16-6.8l-13.51-1.72C263.7,94.66,255.55,92,250.17,88c-5.63-4.18-8.49-10.07-8.49-17.49a23.76,23.76,0,0,1,11.1-20.8c7-4.71,16.94-7.1,29.38-7.1,11.15,0,20,1.87,26.39,5.57s11.36,10,14.46,18.57A2.5,2.5,0,0,1,321.29,70l-3,.8a2.5,2.5,0,0,1-3-1.56c-2.43-6.63-6.15-11.42-11.07-14.24s-12.48-4.36-22-4.36c-10.67,0-18.87,1.78-24.4,5.29A15.84,15.84,0,0,0,250,70.24c0,5.11,1.85,8.92,5.65,11.67,4.08,3,10.93,5,20.34,6.23l15.23,2c11.42,1.37,20,4.26,25.39,8.6,5.67,4.54,8.54,11,8.54,19.28,0,9.57-3.64,16.9-10.81,21.78C307.45,144.46,297.29,146.83,284.14,146.83Z"/><path class="cls-1" d="M342.88,47.48h3.18V59.65h-3.18Zm0,26.86h3.18V142h-3.18Z"/><path class="cls-1" d="M346.06,144.45h-3.18a2.5,2.5,0,0,1-2.5-2.5V74.34a2.5,2.5,0,0,1,2.5-2.5h3.18a2.5,2.5,0,0,1,2.5,2.5V142A2.5,2.5,0,0,1,346.06,144.45Zm0-82.29h-3.18a2.5,2.5,0,0,1-2.5-2.5V47.48a2.5,2.5,0,0,1,2.5-2.5h3.18a2.5,2.5,0,0,1,2.5,2.5V59.66A2.5,2.5,0,0,1,346.06,62.16Z"/><path class="cls-1" d="M407.85,140.63a31.41,31.41,0,0,1-13.63,2.78q-19.05,0-19.05-19.19V77H361.54V74.34h13.63V55.42h3.17V74.34h28.05V77H378.34v47.23q0,16.41,15.88,16.41a33.34,33.34,0,0,0,12.83-2.51Z"/><path class="cls-1" d="M394.22,145.91c-14.1,0-21.55-7.5-21.55-21.69V79.49H361.54A2.5,2.5,0,0,1,359,77V74.34a2.5,2.5,0,0,1,2.5-2.5h11.13V55.42a2.5,2.5,0,0,1,2.5-2.5h3.17a2.5,2.5,0,0,1,2.5,2.5V71.84h25.55a2.5,2.5,0,0,1,2.5,2.5V77a2.5,2.5,0,0,1-2.5,2.5H380.84v44.73c0,9.62,4.13,13.91,13.38,13.91a30.8,30.8,0,0,0,11.88-2.33,2.51,2.51,0,0,1,3.34,1.56l.79,2.51a2.49,2.49,0,0,1-1.31,3A33.86,33.86,0,0,1,394.22,145.91Z"/><path class="cls-1" d="M418.3,109.14q0,15.21,8.53,23.68t23.88,8.47q11,0,18.53-4.17a21.68,21.68,0,0,0,10.32-11.71h3a23.8,23.8,0,0,1-11.11,13.76q-8.34,4.91-20.78,4.9-17.06,0-26.33-9.2t-9.26-26.13a42.09,42.09,0,0,1,4.17-19.31A29.84,29.84,0,0,1,431.4,76.72a37.57,37.57,0,0,1,18.79-4.5q16.14,0,25.07,9.07t8.93,25.2v2.65ZM481,106.49q0-14.82-8.13-23.15T450.19,75q-14.29,0-22.83,8.47t-9.06,23Z"/><path class="cls-1" d="M450.71,146.57c-12,0-21.46-3.34-28.09-9.92s-10-16-10-27.91a44.88,44.88,0,0,1,4.44-20.45,32.37,32.37,0,0,1,13.11-13.74,40.09,40.09,0,0,1,20-4.83c11.4,0,20.43,3.3,26.85,9.81s9.65,15.57,9.65,27v2.65a2.5,2.5,0,0,1-2.5,2.5H420.86c.43,8.22,3,14.74,7.73,19.41,5.18,5.14,12.62,7.74,22.12,7.74,6.86,0,12.69-1.3,17.32-3.86a19.1,19.1,0,0,0,9.18-10.38,2.51,2.51,0,0,1,2.35-1.64h3a2.5,2.5,0,0,1,2.39,3.25,26.34,26.34,0,0,1-12.24,15.17C466.83,144.81,459.42,146.57,450.71,146.57ZM421,104h57.49c-.42-8-2.89-14.32-7.36-18.91-4.91-5-11.94-7.58-20.9-7.58S434.38,80,429.12,85.25C424.43,89.9,421.69,96.2,421,104Z"/><polygon class="cls-1" points="592.42 141.95 561.72 51.72 531.16 141.95 527.19 141.95 495.7 47.48 499.14 47.48 529.17 137.85 559.87 47.88 563.71 47.88 594.4 138.12 624.57 47.48 627.88 47.48 596.39 141.95 592.42 141.95"/><path class="cls-1" d="M596.39,144.45h-4a2.5,2.5,0,0,1-2.37-1.69L561.73,59.5l-28.2,83.25a2.51,2.51,0,0,1-2.37,1.7h-4a2.5,2.5,0,0,1-2.37-1.71L493.33,48.27a2.48,2.48,0,0,1,.34-2.25,2.52,2.52,0,0,1,2-1h3.44a2.49,2.49,0,0,1,2.37,1.72L529.2,130l28.3-83a2.51,2.51,0,0,1,2.37-1.69h3.84a2.48,2.48,0,0,1,2.36,1.7l28.31,83.2L622.2,46.69A2.5,2.5,0,0,1,624.57,45h3.31a2.51,2.51,0,0,1,2.37,3.29l-31.49,94.47A2.5,2.5,0,0,1,596.39,144.45Z"/><path class="cls-1" d="M705.14,142V98.69q0-11.39-6.48-17.54T680,75a42.53,42.53,0,0,0-12,1.72,36.8,36.8,0,0,0-10.45,4.9,28.88,28.88,0,0,0-8.2,8.4,17.75,17.75,0,0,0-2.78,9.33V142h-3.18V47.48h3.18V90.09A31.87,31.87,0,0,1,659.89,77,41.78,41.78,0,0,1,680,72.22q13.5,0,20.91,7t7.41,19.52V142Z"/><path class="cls-1" d="M708.32,144.45h-3.18a2.5,2.5,0,0,1-2.5-2.5V98.69c0-6.94-1.86-12.08-5.7-15.72S687.42,77.5,680,77.5a40.15,40.15,0,0,0-11.33,1.62,34.37,34.37,0,0,0-9.74,4.56,26.6,26.6,0,0,0-7.49,7.64,15.18,15.18,0,0,0-2.41,8V142a2.5,2.5,0,0,1-2.5,2.5h-3.18a2.5,2.5,0,0,1-2.5-2.5V47.48a2.5,2.5,0,0,1,2.5-2.5h3.18a2.5,2.5,0,0,1,2.5,2.5V82.26a36,36,0,0,1,9.68-7.47A44.44,44.44,0,0,1,680,69.72c9.61,0,17.22,2.57,22.62,7.63s8.2,12.28,8.2,21.34V142A2.5,2.5,0,0,1,708.32,144.45Z"/><path class="cls-1" d="M730.54,109.14q0,15.21,8.54,23.68T763,141.29q11,0,18.52-4.17a21.68,21.68,0,0,0,10.32-11.71h3.05a23.77,23.77,0,0,1-11.12,13.76q-8.33,4.91-20.77,4.9-17.07,0-26.33-9.2t-9.26-26.13a42.09,42.09,0,0,1,4.17-19.31,29.81,29.81,0,0,1,12.1-12.71,37.62,37.62,0,0,1,18.79-4.5q16.14,0,25.07,9.07t8.94,25.2v2.65Zm62.72-2.65q0-14.82-8.14-23.15T762.43,75q-14.28,0-22.82,8.47t-9.07,23Z"/><path class="cls-1" d="M763,146.57c-12,0-21.46-3.34-28.09-9.92s-10-16-10-27.91a44.75,44.75,0,0,1,4.44-20.45,32.41,32.41,0,0,1,13.1-13.74,40.14,40.14,0,0,1,20-4.83c11.41,0,20.44,3.3,26.85,9.81s9.66,15.57,9.66,27v2.65a2.5,2.5,0,0,1-2.5,2.5H733.11c.43,8.22,3,14.74,7.73,19.41,5.18,5.14,12.62,7.74,22.12,7.74,6.86,0,12.68-1.3,17.31-3.86a19.12,19.12,0,0,0,9.19-10.38,2.51,2.51,0,0,1,2.34-1.64h3.05a2.5,2.5,0,0,1,2.38,3.25A26.32,26.32,0,0,1,785,141.33C779.08,144.81,771.66,146.57,763,146.57ZM733.21,104H790.7c-.43-8-2.9-14.32-7.37-18.91-4.91-5-11.94-7.58-20.9-7.58S746.62,80,741.37,85.25C736.68,89.9,733.94,96.2,733.21,104Z"/><path class="cls-1" d="M816,142V74.34h3.17V90A32.12,32.12,0,0,1,847.9,73.28a44.65,44.65,0,0,1,6.75.53l-.4,3a32.27,32.27,0,0,0-6.35-.53,30,30,0,0,0-23.55,10.58,21.94,21.94,0,0,0-4,6.15,17,17,0,0,0-1.13,6.29V142Z"/><path class="cls-1" d="M819.19,144.45H816a2.5,2.5,0,0,1-2.5-2.5V74.34a2.5,2.5,0,0,1,2.5-2.5h3.17a2.5,2.5,0,0,1,2.5,2.5v7.85a34,34,0,0,1,8.22-6.7c7.21-4.21,15.77-5.58,25.12-4.15a2.51,2.51,0,0,1,2.1,2.8l-.4,3a2.5,2.5,0,0,1-1,1.71,2.54,2.54,0,0,1-2,.42,30.56,30.56,0,0,0-5.86-.48,27.29,27.29,0,0,0-21.67,9.73A19.54,19.54,0,0,0,822.64,94a14.59,14.59,0,0,0-.95,5.37V142A2.5,2.5,0,0,1,819.19,144.45Z"/><path class="cls-1" d="M864,109.14q0,15.21,8.54,23.68t23.88,8.47q11,0,18.52-4.17a21.68,21.68,0,0,0,10.32-11.71h3.05a23.77,23.77,0,0,1-11.12,13.76q-8.33,4.91-20.77,4.9-17.07,0-26.33-9.2t-9.26-26.13A42.09,42.09,0,0,1,865,89.43a29.81,29.81,0,0,1,12.1-12.71,37.62,37.62,0,0,1,18.79-4.5q16.14,0,25.07,9.07t8.94,25.2v2.65Zm62.72-2.65q0-14.82-8.14-23.15T895.93,75q-14.28,0-22.82,8.47t-9.07,23Z"/><path class="cls-1" d="M896.46,146.57c-12,0-21.46-3.34-28.09-9.92s-10-16-10-27.91a44.75,44.75,0,0,1,4.44-20.45,32.41,32.41,0,0,1,13.1-13.74,40.14,40.14,0,0,1,20-4.83c11.41,0,20.44,3.3,26.85,9.81s9.66,15.57,9.66,27v2.65a2.5,2.5,0,0,1-2.5,2.5H866.61c.43,8.22,3,14.74,7.73,19.41,5.18,5.14,12.62,7.74,22.12,7.74,6.86,0,12.68-1.3,17.31-3.86A19.12,19.12,0,0,0,923,124.55a2.51,2.51,0,0,1,2.34-1.64h3.05a2.5,2.5,0,0,1,2.38,3.25,26.32,26.32,0,0,1-12.23,15.17C912.58,144.81,905.16,146.57,896.46,146.57ZM866.71,104h57.48c-.42-8-2.89-14.32-7.36-18.91-4.91-5-11.94-7.58-20.9-7.58S880.12,80,874.87,85.25C870.18,89.9,867.44,96.2,866.71,104Z"/><path class="cls-2" d="M208,.68A5.46,5.46,0,0,0,205.26,0H196.9c-3.5.19-5.53,2.25-5.55,5.67-.14,27.07-3.85,53.11-10.46,73.71L180,82c-8,23.31-19.08,36.68-30.34,36.68a17.56,17.56,0,0,1-10.61-4,3.43,3.43,0,0,1-.73-4.76,18.22,18.22,0,0,0-16.42-28.83,3.5,3.5,0,0,1-3.62-2.44q-1.12-3.56-2.12-7.32L96.85,13.9a6.83,6.83,0,0,0-6.48-4.67h0a6.75,6.75,0,0,0-6.48,4.71L61.06,83.41a96.94,96.94,0,0,1-4.88,12.22C49,110.47,40.24,118.72,31.4,118.72c-9.43,0-18.67-9.27-26.18-26.17a2.78,2.78,0,0,0-3-1.68A2.69,2.69,0,0,0,.14,94.39l26.14,77.89a5.77,5.77,0,0,0,5.54,4h0a5.76,5.76,0,0,0,5.53-4l25.82-78a64.83,64.83,0,0,1,7.51-15.65c6.07-9.12,12.83-14,19.63-14,7.58,0,15.05,6,21.57,17.09a3.39,3.39,0,0,1-.61,4.21,18.24,18.24,0,0,0,12.27,31.73h0A3.55,3.55,0,0,1,127,120l17.56,52.33a5.77,5.77,0,0,0,5.54,4h0a5.76,5.76,0,0,0,5.53-4L184.92,83.7c.3-.89.6-1.79.89-2.7L210.37,6.85A5.22,5.22,0,0,0,208,.68"/></g></g></svg>