<?xml version="1.0" encoding="UTF-8"?>
<svg width="933px" height="177px" viewBox="0 0 933 177" version="1.1" xmlns="http://www.w3.org/2000/svg" xmlns:xlink="http://www.w3.org/1999/xlink">
    <title>logo_header2</title>
    <g id="Page-1" stroke="none" stroke-width="1" fill="none" fill-rule="evenodd">
        <g id="logo_header2" transform="translate(-0.004764, -0.001727)" fill-rule="nonzero">
            <path d="M317.624764,68.3917272 C314.958097,61.1583938 310.898097,55.9750605 305.444764,52.8417272 C299.99143,49.7083938 292.23143,48.1450605 282.164764,48.1517272 C270.95143,48.1517272 262.37143,50.0450605 256.424764,53.8317272 C250.6747,57.2605083 247.251321,63.5513976 247.494764,70.2417272 C247.494764,76.1550605 249.72143,80.7183938 254.174764,83.9317272 C258.628097,87.1450605 265.794764,89.3750605 275.674764,90.6217272 L290.894764,92.6217272 C301.914764,93.9550605 309.96143,96.6450605 315.034764,100.691727 C320.108097,104.738394 322.644764,110.508394 322.644764,118.001727 C322.644764,126.741727 319.404764,133.31506 312.924764,137.721727 C306.444764,142.128394 296.85143,144.331727 284.144764,144.331727 C258.81143,144.331727 244.61143,136.041727 241.544764,119.461727 L244.854764,119.461727 C246.29753,126.474116 250.777249,132.484924 257.084764,135.871727 C263.578097,139.478394 272.598097,141.28506 284.144764,141.291727 C307.604764,141.291727 319.334764,133.57506 319.334764,118.141727 C319.334764,111.341727 316.978097,106.181727 312.264764,102.661727 C307.55143,99.1417272 299.764764,96.7150605 288.904764,95.3817272 L275.414764,93.6617272 C264.568097,92.2550605 256.65143,89.7017272 251.664764,86.0017272 C246.678097,82.3017272 244.184764,77.1350605 244.184764,70.5017272 C243.948535,62.9266239 247.757071,55.7970438 254.184764,51.7817272 C260.85143,47.3283938 270.184764,45.1017272 282.184764,45.1017272 C292.944764,45.1017272 301.324764,46.8450605 307.324764,50.3317272 C313.324764,53.8183938 317.778097,59.5717272 320.684764,67.5917272 L317.624764,68.3917272 Z" id="Path" fill="#FFFFFF"></path>
            <path d="M284.144764,146.831727 C257.564764,146.831727 242.404764,137.781727 239.084764,119.921727 C238.934244,119.18437 239.123895,118.418439 239.601079,117.836506 C240.078264,117.254573 240.792207,116.918562 241.544764,116.921727 L244.854764,116.921727 C246.017306,116.924738 247.024357,117.728721 247.284764,118.861727 C248.554437,125.186475 252.59074,130.609798 258.284764,133.641727 C264.364764,137.031727 273.054764,138.751727 284.124764,138.751727 C306.124764,138.751727 316.824764,131.991727 316.824764,118.101727 C316.824764,112.101727 314.824764,107.681727 310.744764,104.621727 C306.394764,101.371727 298.944764,99.0817272 288.584764,97.8217272 L275.074764,96.1017272 C263.704764,94.6617272 255.554764,92.0017272 250.174764,88.0017272 C244.544764,83.8217272 241.684764,77.9317272 241.684764,70.5117272 C241.44134,62.1021891 245.663218,54.1909213 252.784764,49.7117272 C259.784764,45.0017272 269.724764,42.6117272 282.164764,42.6117272 C293.314764,42.6117272 302.164764,44.4817272 308.554764,48.1817272 C314.944764,51.8817272 319.914764,58.1817272 323.014764,66.7517272 C323.2474,67.4103813 323.19386,68.1363257 322.867114,68.7537247 C322.540367,69.3711238 321.970217,69.8236619 321.294764,70.0017272 L318.294764,70.8017272 C317.041417,71.1394035 315.738134,70.4616966 315.294764,69.2417272 C312.864764,62.6117272 309.144764,57.8217272 304.224764,55.0017272 C299.304764,52.1817272 291.744764,50.6417272 282.224764,50.6417272 C271.554764,50.6417272 263.354764,52.4217272 257.824764,55.9317272 C252.774356,58.8905029 249.767258,64.3932603 250.004764,70.2417272 C250.004764,75.3517272 251.854764,79.1617272 255.654764,81.9117272 C259.734764,84.9117272 266.584764,86.9117272 275.994764,88.1417272 L291.224764,90.1417272 C302.644764,91.5117272 311.224764,94.4017272 316.614764,98.7417272 C322.284764,103.281727 325.154764,109.741727 325.154764,118.021727 C325.154764,127.591727 321.514764,134.921727 314.344764,139.801727 C307.454764,144.461727 297.294764,146.831727 284.144764,146.831727 Z" id="Path" fill="#FFFFFF"></path>
            <path d="M342.884764,47.4817272 L346.064764,47.4817272 L346.064764,59.6517272 L342.884764,59.6517272 L342.884764,47.4817272 Z M342.884764,74.3417272 L346.064764,74.3417272 L346.064764,142.001727 L342.884764,142.001727 L342.884764,74.3417272 Z" id="Shape" fill="#FFFFFF"></path>
            <path d="M346.064764,144.451727 L342.884764,144.451727 C341.504052,144.451727 340.384764,143.332439 340.384764,141.951727 L340.384764,74.3417272 C340.384764,72.9610153 341.504052,71.8417272 342.884764,71.8417272 L346.064764,71.8417272 C347.445475,71.8417272 348.564764,72.9610153 348.564764,74.3417272 L348.564764,142.001727 C348.537535,143.362874 347.426183,144.451727 346.064764,144.451727 Z M346.064764,62.1617272 L342.884764,62.1617272 C341.504052,62.1617272 340.384764,61.042439 340.384764,59.6617272 L340.384764,47.4817272 C340.384764,46.1010153 341.504052,44.9817272 342.884764,44.9817272 L346.064764,44.9817272 C347.445475,44.9817272 348.564764,46.1010153 348.564764,47.4817272 L348.564764,59.6617272 C348.564764,60.3247684 348.301371,60.9606532 347.832531,61.4294941 C347.36369,61.898335 346.727805,62.1617272 346.064764,62.1617272 L346.064764,62.1617272 Z" id="Shape" fill="#FFFFFF"></path>
            <path d="M407.854764,140.631727 C403.57631,142.56545 398.91877,143.51541 394.224764,143.411727 C381.524764,143.411727 375.174764,137.01506 375.174764,124.221727 L375.174764,77.0017272 L361.544764,77.0017272 L361.544764,74.3417272 L375.174764,74.3417272 L375.174764,55.4217272 L378.344764,55.4217272 L378.344764,74.3417272 L406.394764,74.3417272 L406.394764,77.0017272 L378.344764,77.0017272 L378.344764,124.231727 C378.344764,135.171727 383.638097,140.641727 394.224764,140.641727 C398.625166,140.659954 402.985648,139.806891 407.054764,138.131727 L407.854764,140.631727 Z" id="Path" fill="#FFFFFF"></path>
            <path d="M394.224764,145.911727 C380.124764,145.911727 372.674764,138.411727 372.674764,124.221727 L372.674764,79.4917272 L361.544764,79.4917272 C360.876549,79.502425 360.23187,79.2451372 359.754637,78.7772985 C359.277403,78.3094597 359.007351,77.6700218 359.004764,77.0017272 L359.004764,74.3417272 C359.004764,72.9610153 360.124052,71.8417272 361.504764,71.8417272 L372.634764,71.8417272 L372.634764,55.4217272 C372.634764,54.0410153 373.754052,52.9217272 375.134764,52.9217272 L378.304764,52.9217272 C379.685475,52.9217272 380.804764,54.0410153 380.804764,55.4217272 L380.804764,71.8417272 L406.354764,71.8417272 C407.735475,71.8417272 408.854764,72.9610153 408.854764,74.3417272 L408.854764,77.0017272 C408.854764,78.382439 407.735475,79.5017272 406.354764,79.5017272 L380.844764,79.5017272 L380.844764,124.231727 C380.844764,133.851727 384.974764,138.141727 394.224764,138.141727 C398.299911,138.158637 402.337901,137.366674 406.104764,135.811727 C406.752739,135.547092 407.481781,135.56504 408.11595,135.861238 C408.750119,136.157437 409.231805,136.70498 409.444764,137.371727 L410.234764,139.881727 C410.609158,141.068584 410.049776,142.349612 408.924764,142.881727 C404.313131,144.978689 399.289733,146.014124 394.224764,145.911727 L394.224764,145.911727 Z" id="Path" fill="#FFFFFF"></path>
            <path d="M418.304764,109.141727 C418.304764,119.281727 421.148097,127.17506 426.834764,132.821727 C432.52143,138.468394 440.48143,141.291727 450.714764,141.291727 C458.048097,141.291727 464.224764,139.901727 469.244764,137.121727 C474.019295,134.63503 477.697904,130.460949 479.564764,125.411727 L482.564764,125.411727 C480.766285,131.255147 476.788016,136.182329 471.454764,139.171727 C465.894764,142.44506 458.968097,144.078394 450.674764,144.071767 C439.30143,144.071767 430.524764,141.00506 424.344764,134.871727 C418.164764,128.738394 415.078097,120.028394 415.084764,108.741727 C414.92315,102.06539 416.352518,95.4464232 419.254764,89.4317272 C421.936288,84.0709121 426.170134,79.641926 431.404764,76.7217272 C437.168691,73.6092968 443.646232,72.0579964 450.194764,72.2217272 C460.954764,72.2217272 469.31143,75.2450605 475.264764,81.2917272 C481.218097,87.3383938 484.194764,95.7383938 484.194764,106.491727 L484.194764,109.141727 L418.304764,109.141727 Z M481.004764,106.491727 C481.004764,96.6117272 478.294764,88.8950605 472.874764,83.3417272 C467.454764,77.7883938 459.894764,75.0083938 450.194764,75.0017272 C440.668097,75.0017272 433.058097,77.8250605 427.364764,83.4717272 C421.67143,89.1183938 418.65143,96.7850605 418.304764,106.471727 L481.004764,106.491727 Z" id="Shape" fill="#FFFFFF"></path>
            <path d="M450.714764,146.571727 C438.714764,146.571727 429.254764,143.231727 422.624764,136.651727 C415.994764,130.071727 412.624764,120.651727 412.624764,108.741727 C412.472662,101.670429 413.994015,94.6632963 417.064764,88.2917272 C419.962748,82.5039949 424.529321,77.7179761 430.174764,74.5517272 C436.307737,71.2292813 443.201437,69.5644527 450.174764,69.7217272 C461.574764,69.7217272 470.604764,73.0217272 477.024764,79.5317272 C483.444764,86.0417272 486.674764,95.1017272 486.674764,106.531727 L486.674764,109.181727 C486.674764,110.562439 485.555475,111.681727 484.174764,111.681727 L420.864764,111.681727 C421.294764,119.901727 423.864764,126.421727 428.594764,131.091727 C433.774764,136.231727 441.214764,138.831727 450.714764,138.831727 C457.574764,138.831727 463.404764,137.531727 468.034764,134.971727 C472.28624,132.782865 475.562014,129.078885 477.214764,124.591727 C477.578391,123.607671 478.515674,122.953567 479.564764,122.951727 L482.564764,122.951727 C483.361763,122.950084 484.111784,123.328551 484.583958,123.970627 C485.056131,124.612704 485.193866,125.441437 484.954764,126.201727 C482.96474,132.637539 478.584517,138.066297 472.714764,141.371727 C466.834764,144.811727 459.424764,146.571727 450.714764,146.571727 Z M421.004764,104.001727 L478.494764,104.001727 C478.074764,96.0017272 475.604764,89.6817272 471.134764,85.0917272 C466.224764,80.0917272 459.194764,77.5117272 450.234764,77.5117272 C441.274764,77.5117272 434.384764,80.0017272 429.124764,85.2517272 C424.434764,89.9017272 421.694764,96.2017272 421.004764,104.001727 Z" id="Shape" fill="#FFFFFF"></path>
            <polygon id="Path" fill="#FFFFFF" points="592.424764 141.951727 561.724764 51.7217272 531.164764 141.951727 527.194764 141.951727 495.704764 47.4817272 499.144764 47.4817272 529.174764 137.851727 559.874764 47.8817272 563.714764 47.8817272 594.404764 138.121727 624.574764 47.4817272 627.884764 47.4817272 596.394764 141.951727"></polygon>
            <path d="M596.394764,144.451737 L592.394764,144.451737 C591.324447,144.453806 590.371545,143.774311 590.024764,142.761727 L561.734764,59.5017177 L533.534764,142.751727 C533.188833,143.766343 532.236728,144.449287 531.164764,144.451737 L527.164764,144.451737 C526.089165,144.451737 525.134652,143.762211 524.794764,142.741727 L493.334764,48.2717272 C493.077019,47.5109238 493.203588,46.6724038 493.674764,46.0217272 C494.148949,45.3946737 494.888609,45.0248437 495.674764,45.0217272 L499.114764,45.0217272 C500.194039,45.0208399 501.151012,45.7153518 501.484764,46.7417272 L529.204764,130.001718 L557.504764,47.0017177 C557.85411,45.991059 558.805422,45.3126975 559.874764,45.3117272 L563.714764,45.3117272 C564.786032,45.3091991 565.737834,45.994819 566.074764,47.0117272 L594.384764,130.211727 L622.204764,46.6917272 C622.551545,45.6791437 623.504447,44.9996483 624.574764,45.0017177 L627.884764,45.0017177 C628.686261,45.0067445 629.437166,45.3942411 629.90565,46.0445839 C630.374134,46.6949267 630.503855,47.5299027 630.254764,48.2917272 L598.764764,142.761727 C598.417982,143.774311 597.46508,144.453806 596.394764,144.451737 Z" id="Path" fill="#FFFFFF"></path>
            <path d="M705.144764,142.001727 L705.144764,98.6917272 C705.144764,91.0983938 702.984764,85.2517272 698.664764,81.1517272 C694.344764,77.0517272 688.124764,75.0017272 680.004764,75.0017272 C675.943154,74.9991199 671.902113,75.5783358 668.004764,76.7217272 C664.285383,77.7952454 660.758684,79.4489128 657.554764,81.6217272 C654.275196,83.8308357 651.484217,86.6898877 649.354764,90.0217272 C647.576666,92.8118559 646.613779,96.0434155 646.574764,99.3517272 L646.574764,142.001727 L643.394764,142.001727 L643.394764,47.4817272 L646.574764,47.4817272 L646.574764,90.0917272 C649.608043,84.4962093 654.247266,79.9370927 659.894764,77.0017272 C666.091921,73.7491627 673.006876,72.1055285 680.004764,72.2217272 C689.004764,72.2217272 695.974764,74.5550605 700.914764,79.2217272 C705.854764,83.8883938 708.324764,90.3950605 708.324764,98.7417272 L708.324764,142.001727 L705.144764,142.001727 Z" id="Path" fill="#FFFFFF"></path>
            <path d="M708.324764,144.451727 L705.144764,144.451727 C703.764052,144.451727 702.644764,143.332439 702.644764,141.951727 L702.644764,98.6917272 C702.644764,91.7517272 700.784764,86.6117272 696.944764,82.9717272 C693.104764,79.3317272 687.424764,77.5017272 680.004764,77.5017272 C676.170113,77.4979028 672.35469,78.0434443 668.674764,79.1217272 C665.208929,80.1212118 661.922034,81.660046 658.934764,83.6817272 C655.946419,85.6948225 653.398216,88.294058 651.444764,91.3217272 C649.908926,93.7104645 649.073963,96.4821277 649.034764,99.3217272 L649.034764,142.001727 C649.034764,143.382439 647.915475,144.501727 646.534764,144.501727 L643.354764,144.501727 C641.974052,144.501727 640.854764,143.382439 640.854764,142.001727 L640.854764,47.4817272 C640.854764,46.1010153 641.974052,44.9817272 643.354764,44.9817272 L646.534764,44.9817272 C647.915475,44.9817272 649.034764,46.1010153 649.034764,47.4817272 L649.034764,82.2617272 C651.811876,79.2379769 655.085753,76.7115447 658.714764,74.7917272 C665.277826,71.3533817 672.596414,69.6105333 680.004764,69.7217272 C689.614764,69.7217272 697.224764,72.2917272 702.624764,77.3517272 C708.024764,82.4117272 710.824764,89.6317272 710.824764,98.6917272 L710.824764,142.001727 C710.797535,143.362874 709.686183,144.451999 708.324764,144.451727 Z" id="Path" fill="#FFFFFF"></path>
            <path d="M730.544764,109.141727 C730.544764,119.281727 733.39143,127.17506 739.084764,132.821727 C744.778097,138.468394 752.75143,141.291727 763.004764,141.291727 C770.338097,141.291727 776.51143,139.901727 781.524764,137.121727 C786.299295,134.63503 789.977904,130.460949 791.844764,125.411727 L794.894764,125.411727 C793.096636,131.258327 789.113826,136.186696 783.774764,139.171727 C778.22143,142.44506 771.298097,144.078394 763.004764,144.071767 C751.624764,144.071767 742.848097,141.00506 736.674764,134.871727 C730.50143,128.738394 727.414764,120.028394 727.414764,108.741727 C727.25315,102.06539 728.682518,95.4464232 731.584764,89.4317272 C734.251463,84.07696 738.467519,79.6483594 743.684764,76.7217272 C749.449525,73.6114791 755.926477,72.0603197 762.474764,72.2217272 C773.234764,72.2217272 781.59143,75.2450605 787.544764,81.2917272 C793.498097,87.3383938 796.478097,95.7383938 796.484764,106.491727 L796.484764,109.141727 L730.544764,109.141727 Z M793.264764,106.491727 C793.264764,96.6117272 790.55143,88.8950605 785.124764,83.3417272 C779.698097,77.7883938 772.134764,75.0083938 762.434764,75.0017272 C752.914764,75.0017272 745.308097,77.8250605 739.614764,83.4717272 C733.92143,89.1183938 730.898097,96.7850605 730.544764,106.471727 L793.264764,106.491727 Z" id="Shape" fill="#FFFFFF"></path>
            <path d="M763.004764,146.571727 C751.004764,146.571727 741.544764,143.231727 734.914764,136.651727 C728.284764,130.071727 724.914764,120.651727 724.914764,108.741727 C724.757724,101.669954 726.279325,94.6616811 729.354764,88.2917272 C732.252112,82.5068387 736.814546,77.7215077 742.454764,74.5517272 C748.588571,71.2314528 755.481686,69.5667655 762.454764,69.7217272 C773.864764,69.7217272 782.894764,73.0217272 789.304764,79.5317272 C795.714764,86.0417272 798.964764,95.1017272 798.964764,106.531727 L798.964764,109.181727 C798.964764,110.562439 797.845475,111.681727 796.464764,111.681727 L733.114764,111.681727 C733.544764,119.901727 736.114764,126.421727 740.844764,131.091727 C746.024764,136.231727 753.464764,138.831727 762.964764,138.831727 C769.824764,138.831727 775.644764,137.531727 780.274764,134.971727 C784.528795,132.783267 787.807875,129.079584 789.464764,124.591727 C789.82711,123.611089 790.75934,122.957731 791.804764,122.951727 L794.854764,122.951727 C795.650001,122.953269 796.397068,123.33306 796.866916,123.974659 C797.336763,124.616257 797.473337,125.443118 797.234764,126.201727 C795.240045,132.621928 790.864149,138.035444 785.004764,141.331727 C779.084764,144.811727 771.664764,146.571727 763.004764,146.571727 Z M733.214764,104.001727 L790.704764,104.001727 C790.274764,96.0017272 787.804764,89.6817272 783.334764,85.0917272 C778.424764,80.0917272 771.394764,77.5117272 762.434764,77.5117272 C753.474764,77.5117272 746.624764,80.0017272 741.374764,85.2517272 C736.684764,89.9017272 733.944764,96.2017272 733.214764,104.001727 Z" id="Shape" fill="#FFFFFF"></path>
            <path d="M816.004764,142.001727 L816.004764,74.3417272 L819.174764,74.3417272 L819.174764,90.0017272 C824.898646,79.520971 835.964547,73.080948 847.904764,73.2817272 C850.164935,73.287297 852.421421,73.464473 854.654764,73.8117272 L854.254764,76.8117272 C852.160766,76.4260014 850.033732,76.2484694 847.904764,76.2817272 C838.861137,76.077501 830.208191,79.9648967 824.354764,86.8617272 C822.685708,88.6726948 821.333474,90.7517543 820.354764,93.0117272 C819.583847,95.0181052 819.200407,97.1524781 819.224764,99.3017272 L819.224764,142.001727 L816.004764,142.001727 Z" id="Path" fill="#FFFFFF"></path>
            <path d="M819.194764,144.451727 L816.004764,144.451727 C814.624052,144.451727 813.504764,143.332439 813.504764,141.951727 L813.504764,74.3417272 C813.504764,72.9610153 814.624052,71.8417272 816.004764,71.8417272 L819.174764,71.8417272 C820.555475,71.8417272 821.674764,72.9610153 821.674764,74.3417272 L821.674764,82.1917272 C824.047465,79.5422057 826.821195,77.281379 829.894764,75.4917272 C837.104764,71.2817272 845.664764,69.9117272 855.014764,71.3417272 C856.357369,71.5526079 857.288248,72.7937796 857.114764,74.1417272 L856.714764,77.1417272 C856.631111,77.8251068 856.269337,78.4437398 855.714764,78.8517272 C855.136306,79.2655734 854.41083,79.4179233 853.714764,79.2717272 C851.781398,78.9237554 849.818984,78.7630116 847.854764,78.7917272 C839.52471,78.5563256 831.543627,82.1398942 826.184764,88.5217272 C824.706006,90.1371074 823.50933,91.9895883 822.644764,94.0017272 C821.993409,95.7161111 821.671114,97.537929 821.694764,99.3717272 L821.694764,142.001727 C821.667535,143.362874 820.556183,144.451727 819.194764,144.451727 Z" id="Path" fill="#FFFFFF"></path>
            <path d="M864.004764,109.141727 C864.004764,119.281727 866.85143,127.17506 872.544764,132.821727 C878.238097,138.468394 886.198097,141.291727 896.424764,141.291727 C903.758097,141.291727 909.93143,139.901727 914.944764,137.121727 C919.719295,134.63503 923.397904,130.460949 925.264764,125.411727 L928.314764,125.411727 C926.516636,131.258327 922.533826,136.186696 917.194764,139.171727 C911.64143,142.44506 904.718097,144.078394 896.424764,144.071767 C885.044764,144.071767 876.268097,141.00506 870.094764,134.871727 C863.92143,128.738394 860.834764,120.028394 860.834764,108.741727 C860.67315,102.06539 862.102518,95.4464232 865.004764,89.4317272 C867.671463,84.07696 871.887519,79.6483594 877.104764,76.7217272 C882.869525,73.6114791 889.346477,72.0603197 895.894764,72.2217272 C906.654764,72.2217272 915.01143,75.2450605 920.964764,81.2917272 C926.918097,87.3383938 929.898097,95.7383938 929.904764,106.491727 L929.904764,109.141727 L864.004764,109.141727 Z M926.724764,106.491727 C926.724764,96.6117272 924.01143,88.8950605 918.584764,83.3417272 C913.158097,77.7883938 905.608097,75.0083938 895.934764,75.0017272 C886.414764,75.0017272 878.808097,77.8250605 873.114764,83.4717272 C867.42143,89.1183938 864.398097,96.7850605 864.044764,106.471727 L926.724764,106.491727 Z" id="Shape" fill="#FFFFFF"></path>
            <path d="M896.464764,146.571727 C884.464764,146.571727 875.004764,143.231727 868.374764,136.651727 C861.744764,130.071727 858.374764,120.651727 858.374764,108.741727 C858.217724,101.669954 859.739325,94.6616811 862.814764,88.2917272 C865.712112,82.5068387 870.274546,77.7215077 875.914764,74.5517272 C882.048571,71.2314528 888.941686,69.5667655 895.914764,69.7217272 C907.324764,69.7217272 916.354764,73.0217272 922.764764,79.5317272 C929.174764,86.0417272 932.424764,95.1017272 932.424764,106.531727 L932.424764,109.181727 C932.424764,110.562439 931.305475,111.681727 929.924764,111.681727 L866.614764,111.681727 C867.044764,119.901727 869.614764,126.421727 874.344764,131.091727 C879.524764,136.231727 886.964764,138.831727 896.464764,138.831727 C903.324764,138.831727 909.144764,137.531727 913.774764,134.971727 C918.051413,132.781528 921.346664,129.061429 923.004764,124.551727 C923.36711,123.571089 924.29934,122.917731 925.344764,122.911727 L928.394764,122.911727 C929.190001,122.913269 929.937068,123.29306 930.406916,123.934659 C930.876763,124.576257 931.013337,125.403118 930.774764,126.161727 C928.789006,132.596822 924.412078,138.02593 918.544764,141.331727 C912.584764,144.811727 905.164764,146.571727 896.464764,146.571727 Z M866.714764,104.001727 L924.194764,104.001727 C923.774764,96.0017272 921.304764,89.6817272 916.834764,85.0917272 C911.924764,80.0917272 904.894764,77.5117272 895.934764,77.5117272 C886.974764,77.5117272 880.124764,80.0017272 874.874764,85.2517272 C870.184764,89.9017272 867.444764,96.2017272 866.714764,104.001727 Z" id="Shape" fill="#FFFFFF"></path>
            <path d="M208.004764,0.681727154 C207.166836,0.21877533 206.221916,-0.0157303599 205.264764,0 L196.904764,0 C193.404764,0.191727154 191.374764,2.25172715 191.354764,5.67172715 C191.214764,32.7417272 187.504764,58.7817272 180.894764,79.3817272 L180.004764,82.0017272 C172.004764,105.311727 160.924764,118.681727 149.664764,118.681727 C145.783076,118.558357 142.051794,117.151653 139.054764,114.681727 C137.551279,113.561306 137.226139,111.441212 138.324764,109.921727 C142.516331,104.133222 142.936665,96.4286784 139.399702,90.2185309 C135.86274,84.0083834 129.021692,80.4395282 121.904764,81.0917272 C120.276557,81.2227828 118.774207,80.2101488 118.284764,78.6517272 C117.538097,76.2783938 116.83143,73.8383938 116.164764,71.3317272 L96.8547636,13.9017272 C95.9249903,11.1126431 93.3147411,9.23149133 90.3747636,9.23172715 L90.3747636,9.23172715 C87.4158992,9.21173877 84.788951,11.1211409 83.8947636,13.9417272 L61.0647636,83.4117272 C59.7167451,87.5908861 58.0863234,91.6736223 56.1847636,95.6317272 C49.0047636,110.471727 40.2447636,118.721727 31.4047636,118.721727 C21.9747636,118.721727 12.7347636,109.451727 5.22476355,92.5517272 C4.73251377,91.3663106 3.49268891,90.6720087 2.22476355,90.8717272 C1.4503098,91.0077206 0.774130025,91.4757579 0.374114503,92.1527073 C-0.0259010182,92.8296566 -0.109699983,93.6477371 0.144763552,94.3917272 L26.2847636,172.281727 C27.0585046,174.682728 29.3022569,176.302766 31.8247636,176.281727 L31.8247636,176.281727 C34.3446202,176.301597 36.5848618,174.681169 37.3547636,172.281727 L63.1747636,94.2817272 C64.9652225,88.7519903 67.4911933,83.4881498 70.6847636,78.6317272 C76.7547636,69.5117272 83.5147636,64.6317272 90.3147636,64.6317272 C97.8947636,64.6317272 105.364764,70.6317272 111.884764,81.7217272 C112.696784,83.0938915 112.442848,84.8464664 111.274764,85.9317272 C105.70374,91.0016907 103.822336,98.9747464 106.539156,106.000394 C109.255976,113.026042 116.012113,117.658958 123.544764,117.661727 L123.544764,117.661727 C125.0835,117.608894 126.48089,118.55395 127.004764,120.001727 L144.564764,172.331727 C145.338505,174.732728 147.582257,176.352766 150.104764,176.332129 L150.104764,176.332129 C152.62462,176.351597 154.864862,174.731169 155.634764,172.331727 L184.924764,83.7017272 C185.224764,82.8117272 185.524764,81.9117272 185.814764,81.0017272 L210.374764,6.85172715 C211.153254,4.49313623 210.162043,1.91263984 208.004764,0.681727154" id="Path" fill="#3170AE"></path>
        </g>
    </g>
</svg>