<svg xmlns="http://www.w3.org/2000/svg" viewBox="0 0 664.79 176.26"><defs><style>.cls-1{fill:#151a3a;}</style></defs><g id="Capa_2" data-name="Capa 2"><g id="Capa_1-2" data-name="Capa 1"><path class="cls-1" d="M288.17,69.12q-2.43-6.65-7.46-9.53t-14.27-2.88q-10.31,0-15.78,3.49a11.22,11.22,0,0,0-5.47,10.06,9.73,9.73,0,0,0,4.09,8.39q4.09,3,13.18,4.1L271.79,84q10.14,1.22,14.8,5t4.66,10.63q0,8-6,12.08t-17.64,4.06q-23.28,0-26.11-15.25h2a14.73,14.73,0,0,0,7.5,10q6,3.33,16.58,3.33,21.59,0,21.58-14.19,0-6.25-4.34-9.49t-14.32-4.46l-8.27-1.06q-10-1.29-14.56-4.7a11.17,11.17,0,0,1-4.58-9.49,13.05,13.05,0,0,1,6.12-11.48q6.12-4.09,17.16-4.09,9.88,0,15.41,3.2T290,68.63Z"/><path class="cls-1" d="M303.66,56.31h1.95v7.46h-1.95Zm0,16.46h1.95v41.45h-1.95Z"/><path class="cls-1" d="M343.48,113.4a19.12,19.12,0,0,1-8.35,1.71q-11.69,0-11.68-11.76v-29H315.1V72.77h8.35V61.17h1.95v11.6h17.19v1.62H325.4v29q0,10.05,9.73,10.05a20.37,20.37,0,0,0,7.87-1.54Z"/><path class="cls-1" d="M349.89,94.1q0,9.33,5.23,14.52t14.64,5.19a23.24,23.24,0,0,0,11.36-2.55,13.31,13.31,0,0,0,6.32-7.18h1.87a14.62,14.62,0,0,1-6.81,8.43,24.84,24.84,0,0,1-12.74,3q-10.45,0-16.14-5.63t-5.67-16A25.86,25.86,0,0,1,350.5,82a18.29,18.29,0,0,1,7.42-7.79,23,23,0,0,1,11.52-2.76q9.88,0,15.37,5.56t5.47,15.45V94.1Zm38.45-1.62q0-9.09-5-14.19t-13.91-5.11q-8.76,0-14,5.19t-5.56,14.11Z"/><polygon class="cls-1" points="456.63 114.22 437.81 58.9 419.07 114.22 416.64 114.22 397.34 56.31 399.45 56.31 417.86 111.7 436.67 56.55 439.02 56.55 457.84 111.86 476.33 56.31 478.36 56.31 459.06 114.22 456.63 114.22"/><path class="cls-1" d="M525.73,114.22V87.69q0-7-4-10.74t-11.43-3.77a25.92,25.92,0,0,0-7.38,1,22.36,22.36,0,0,0-6.41,3,17.71,17.71,0,0,0-5,5.15,10.84,10.84,0,0,0-1.7,5.72v26.12h-1.95V56.31h1.95V82.42a19.53,19.53,0,0,1,8.19-8,25.69,25.69,0,0,1,12.33-2.92q8.27,0,12.81,4.26t4.54,12v26.53Z"/><path class="cls-1" d="M541.3,94.1q0,9.33,5.23,14.52t14.64,5.19a23.23,23.23,0,0,0,11.35-2.55,13.37,13.37,0,0,0,6.33-7.18h1.86a14.54,14.54,0,0,1-6.81,8.43,24.8,24.8,0,0,1-12.73,3q-10.47,0-16.14-5.63t-5.68-16A25.74,25.74,0,0,1,541.91,82a18.24,18.24,0,0,1,7.42-7.79,22.94,22.94,0,0,1,11.51-2.76q9.9,0,15.37,5.56t5.48,15.45V94.1Zm38.44-1.62q0-9.09-5-14.19t-13.91-5.11q-8.76,0-14,5.19T541.3,92.48Z"/><path class="cls-1" d="M593.69,114.22V72.77h1.95v9.57a19.68,19.68,0,0,1,17.6-10.22,26.61,26.61,0,0,1,4.13.33l-.24,1.86a20.68,20.68,0,0,0-3.89-.32,18.33,18.33,0,0,0-14.44,6.49,13.13,13.13,0,0,0-2.47,3.77,10.35,10.35,0,0,0-.69,3.85v26.12Z"/><path class="cls-1" d="M623.13,94.1q0,9.33,5.23,14.52T643,113.81a23.27,23.27,0,0,0,11.36-2.55,13.31,13.31,0,0,0,6.32-7.18h1.87a14.6,14.6,0,0,1-6.82,8.43,24.78,24.78,0,0,1-12.73,3q-10.46,0-16.14-5.63t-5.68-16A25.86,25.86,0,0,1,623.74,82a18.29,18.29,0,0,1,7.42-7.79,23,23,0,0,1,11.52-2.76q9.89,0,15.37,5.56t5.47,15.45V94.1Zm38.44-1.62q0-9.09-5-14.19t-13.91-5.11q-8.76,0-14,5.19t-5.56,14.11Z"/><path class="cls-1" d="M402.81,147.88a5.25,5.25,0,0,1-3.61-1.16,4.09,4.09,0,0,1-1.3-3.21,6.07,6.07,0,0,1,.78-3.07,5.47,5.47,0,0,1,2.23-2.16,7,7,0,0,1,3.35-.79,5.15,5.15,0,0,1,3.14.9,3.58,3.58,0,0,1,1.47,2.49l-2.29.3a2.28,2.28,0,0,0-2.51-1.92,3.9,3.9,0,0,0-2,.5,3.44,3.44,0,0,0-1.36,1.44,4.55,4.55,0,0,0-.5,2.2,2.65,2.65,0,0,0,.72,2,2.92,2.92,0,0,0,2.1.69,3.06,3.06,0,0,0,3.14-2h2.28a4.94,4.94,0,0,1-2,2.77,6.47,6.47,0,0,1-3.64,1"/><path class="cls-1" d="M419.56,147.88a6.46,6.46,0,0,1-2.71-.54,4.31,4.31,0,0,1-1.85-1.53,4.06,4.06,0,0,1-.67-2.33,6.06,6.06,0,0,1,.78-3.09,5.4,5.4,0,0,1,2.24-2.12,7.07,7.07,0,0,1,3.39-.78,6.46,6.46,0,0,1,2.71.54,4.31,4.31,0,0,1,1.85,1.53,4.09,4.09,0,0,1,.67,2.34,6.05,6.05,0,0,1-.78,3.08,5.55,5.55,0,0,1-2.24,2.13,7.18,7.18,0,0,1-3.39.77m.15-1.77a3.83,3.83,0,0,0,2.87-1.1,4.11,4.11,0,0,0,1.06-3,2.59,2.59,0,0,0-.82-2,3.17,3.17,0,0,0-2.23-.75,3.83,3.83,0,0,0-2.87,1.1,4.09,4.09,0,0,0-1.06,3,2.62,2.62,0,0,0,.82,2,3.21,3.21,0,0,0,2.23.74"/><path class="cls-1" d="M433.2,137.79h2.22l-.34,1.6a6,6,0,0,1,2-1.4,6.12,6.12,0,0,1,2.41-.5,3.88,3.88,0,0,1,2.53.76,2.49,2.49,0,0,1,.93,2.05,7.52,7.52,0,0,1-.17,1.44l-1.19,5.84h-2.25l1.16-5.74a4.49,4.49,0,0,0,.11-.9,1.49,1.49,0,0,0-.49-1.21,2.29,2.29,0,0,0-1.46-.41,4.18,4.18,0,0,0-1.49.28,4.8,4.8,0,0,0-1.37.79,4.67,4.67,0,0,0-.88,1,3.16,3.16,0,0,0-.46,1.11l-1,5.12H431.2Z"/><path class="cls-1" d="M450.3,137.79h2.22l-.34,1.6a6,6,0,0,1,2-1.4,6.12,6.12,0,0,1,2.41-.5,3.88,3.88,0,0,1,2.53.76,2.49,2.49,0,0,1,.93,2.05,7.52,7.52,0,0,1-.17,1.44l-1.19,5.84h-2.25l1.16-5.74a4.49,4.49,0,0,0,.11-.9,1.49,1.49,0,0,0-.49-1.21,2.29,2.29,0,0,0-1.46-.41,4.18,4.18,0,0,0-1.49.28,4.8,4.8,0,0,0-1.37.79,4.67,4.67,0,0,0-.88,1,3.16,3.16,0,0,0-.46,1.11l-1,5.12H448.3Z"/><path class="cls-1" d="M470.82,147.88a5.34,5.34,0,0,1-3.65-1.15,4,4,0,0,1-1.32-3.16,6.41,6.41,0,0,1,.5-2.5,5.52,5.52,0,0,1,1.4-2,6.42,6.42,0,0,1,4.48-1.58,5.33,5.33,0,0,1,3.45,1,3.38,3.38,0,0,1,1.27,2.79,6.72,6.72,0,0,1-.09,1.13l-.13.81H468a3.38,3.38,0,0,0,0,.41,2.34,2.34,0,0,0,.78,1.89,3.41,3.41,0,0,0,2.23.65,4.55,4.55,0,0,0,2-.38,2.4,2.4,0,0,0,1.15-1.14h2.24a4.32,4.32,0,0,1-2,2.38,7.09,7.09,0,0,1-3.57.82m4-6.14a1.45,1.45,0,0,0,0-.29,2.44,2.44,0,0,0,0-.27,1.75,1.75,0,0,0-.73-1.5,3.22,3.22,0,0,0-2-.55,4.29,4.29,0,0,0-2.48.68,3.3,3.3,0,0,0-1.34,1.93Z"/><path class="cls-1" d="M487.45,147.88a5.24,5.24,0,0,1-3.61-1.16,4.06,4.06,0,0,1-1.3-3.21,6.16,6.16,0,0,1,.77-3.07,5.53,5.53,0,0,1,2.23-2.16,7,7,0,0,1,3.36-.79,5.17,5.17,0,0,1,3.14.9,3.65,3.65,0,0,1,1.47,2.49l-2.3.3a2.27,2.27,0,0,0-2.5-1.92,3.94,3.94,0,0,0-2,.5,3.51,3.51,0,0,0-1.36,1.44,4.67,4.67,0,0,0-.5,2.2,2.62,2.62,0,0,0,.73,2,2.91,2.91,0,0,0,2.09.69,3.07,3.07,0,0,0,3.15-2h2.27a4.93,4.93,0,0,1-2,2.77,6.49,6.49,0,0,1-3.64,1"/><path class="cls-1" d="M502.59,147.78c-2,0-3-.78-3-2.35a5.78,5.78,0,0,1,.13-1.2l1-4.72h-1.9l.36-1.72h1.9l.53-2.63h2.25l-.52,2.63h3.34l-.35,1.72H503l-1,4.79a3.37,3.37,0,0,0-.07.66q0,1,1.35,1a6.09,6.09,0,0,0,1.49-.22l.28,1.64a9.18,9.18,0,0,1-2.45.35"/><path class="cls-1" d="M525.05,147.88a5.36,5.36,0,0,1-3.65-1.15,4,4,0,0,1-1.31-3.16,6.24,6.24,0,0,1,.5-2.5,5.52,5.52,0,0,1,1.4-2,6.37,6.37,0,0,1,4.47-1.58,5.38,5.38,0,0,1,3.46,1,3.4,3.4,0,0,1,1.27,2.79,6.69,6.69,0,0,1-.1,1.13l-.13.81h-8.73a3.38,3.38,0,0,0,0,.41,2.34,2.34,0,0,0,.78,1.89,3.43,3.43,0,0,0,2.23.65,4.63,4.63,0,0,0,2-.38,2.45,2.45,0,0,0,1.15-1.14h2.23a4.3,4.3,0,0,1-2,2.38,7.1,7.1,0,0,1-3.58.82m4-6.14a1.47,1.47,0,0,0,.05-.29c0-.09,0-.18,0-.27a1.76,1.76,0,0,0-.74-1.5,3.22,3.22,0,0,0-2-.55,4.26,4.26,0,0,0-2.47.68,3.36,3.36,0,0,0-1.35,1.93Z"/><polygon class="cls-1" points="536.4 137.79 538.8 137.79 540.59 145.4 545.45 137.79 547.99 137.79 541.38 147.58 538.99 147.58 536.4 137.79"/><path class="cls-1" d="M556.54,147.88a5.32,5.32,0,0,1-3.64-1.15,4,4,0,0,1-1.32-3.16,6.24,6.24,0,0,1,.5-2.5,5.52,5.52,0,0,1,1.4-2,6.38,6.38,0,0,1,4.48-1.58,5.37,5.37,0,0,1,3.45,1,3.4,3.4,0,0,1,1.27,2.79,5.8,5.8,0,0,1-.1,1.13l-.13.81h-8.73a3.38,3.38,0,0,0,0,.41,2.34,2.34,0,0,0,.78,1.89,3.43,3.43,0,0,0,2.23.65,4.63,4.63,0,0,0,2-.38,2.4,2.4,0,0,0,1.15-1.14h2.24a4.36,4.36,0,0,1-2,2.38,7.1,7.1,0,0,1-3.58.82m4-6.14a1.47,1.47,0,0,0,.05-.29c0-.09,0-.18,0-.27a1.76,1.76,0,0,0-.74-1.5,3.2,3.2,0,0,0-2-.55,4.26,4.26,0,0,0-2.47.68,3.36,3.36,0,0,0-1.35,1.93Z"/><path class="cls-1" d="M569.81,137.79H572l-.34,1.68a5.24,5.24,0,0,1,5-1.73l-.62,1.88a5.32,5.32,0,0,0-1-.1,4.24,4.24,0,0,0-2.6.85,4,4,0,0,0-.88.92,3.32,3.32,0,0,0-.46,1.11l-1,5.18h-2.26Z"/><path class="cls-1" d="M581.43,151.43a4.76,4.76,0,0,1-1-.11,3.94,3.94,0,0,1-.91-.28l.49-1.64a4.69,4.69,0,0,0,1.32.25,2.14,2.14,0,0,0,1.14-.29,3.37,3.37,0,0,0,1-1.09l.77-1.14-3-9.34h2.4l2.15,7.19,4.59-7.19h2.54l-7.13,10.56a9.36,9.36,0,0,1-2.16,2.45,3.81,3.81,0,0,1-2.19.63"/><path class="cls-1" d="M600.7,147.78c-2,0-3-.78-3-2.35a6.55,6.55,0,0,1,.13-1.2l1-4.72h-1.9l.36-1.72h1.9l.53-2.63H602l-.53,2.63h3.35l-.36,1.72h-3.35l-1,4.79a3.37,3.37,0,0,0-.07.66q0,1,1.35,1a6,6,0,0,0,1.49-.22l.28,1.64a9.1,9.1,0,0,1-2.44.35"/><path class="cls-1" d="M611.47,134.15h2.26l-1.05,5.19a6.06,6.06,0,0,1,2-1.36,6.18,6.18,0,0,1,2.38-.49,3.91,3.91,0,0,1,2.53.76,2.49,2.49,0,0,1,.93,2.05,7.1,7.1,0,0,1-.17,1.45l-1.18,5.83h-2.26l1.17-5.74a5.38,5.38,0,0,0,.11-.9,1.5,1.5,0,0,0-.5-1.21,2.27,2.27,0,0,0-1.46-.41,4.12,4.12,0,0,0-1.48.28,5,5,0,0,0-1.38.79,4.35,4.35,0,0,0-.87,1,3,3,0,0,0-.46,1.11l-1,5.12h-2.25Z"/><path class="cls-1" d="M627.84,137.79h2.26l-2,9.79h-2.25Zm.72-3.64h2.33l-.45,2.2H628.1Z"/><path class="cls-1" d="M636.87,137.79h2.22l-.34,1.6a6.2,6.2,0,0,1,2-1.4,6.12,6.12,0,0,1,2.41-.5,3.86,3.86,0,0,1,2.53.76,2.49,2.49,0,0,1,.93,2.05,6.8,6.8,0,0,1-.17,1.44l-1.18,5.84H643l1.17-5.74a5.38,5.38,0,0,0,.11-.9,1.5,1.5,0,0,0-.5-1.21,2.27,2.27,0,0,0-1.46-.41,4.12,4.12,0,0,0-1.48.28,5,5,0,0,0-1.38.79,4.35,4.35,0,0,0-.87,1,3,3,0,0,0-.46,1.11l-1,5.12h-2.25Z"/><path class="cls-1" d="M656.68,151.43q-4.59,0-4.87-3.1h2.27a1.56,1.56,0,0,0,.87,1,4.48,4.48,0,0,0,1.92.33,5.4,5.4,0,0,0,2-.3,2.6,2.6,0,0,0,1.22-.93,4.67,4.67,0,0,0,.67-1.68l.26-1.28a4.44,4.44,0,0,1-1.8,1.35,6.11,6.11,0,0,1-2.47.47,4.42,4.42,0,0,1-3.1-1.06,3.76,3.76,0,0,1-1.15-2.91,5.9,5.9,0,0,1,.75-3,5.63,5.63,0,0,1,2.14-2.11,6.3,6.3,0,0,1,3.13-.79,4.78,4.78,0,0,1,2.27.51,3.58,3.58,0,0,1,1.49,1.47l.34-1.68h2.22l-1.7,8.34a8.65,8.65,0,0,1-1.19,3.17,4.34,4.34,0,0,1-2,1.63,8.55,8.55,0,0,1-3.18.5m4.93-9a3.94,3.94,0,0,0,.07-.77,2.24,2.24,0,0,0-.58-1.56,3.07,3.07,0,0,0-2.35-.83,4.39,4.39,0,0,0-2,.47,3.46,3.46,0,0,0-1.41,1.35,4,4,0,0,0-.51,2.08,2.21,2.21,0,0,0,.71,1.78,3,3,0,0,0,2,.62,4.23,4.23,0,0,0,2.69-.86,4.6,4.6,0,0,0,.9-.94,2.82,2.82,0,0,0,.43-1.06Z"/><path class="cls-1" d="M208,.68A5.46,5.46,0,0,0,205.26,0H196.9c-3.5.19-5.53,2.25-5.55,5.67-.14,27.07-3.85,53.11-10.46,73.71L180,82c-8,23.31-19.08,36.68-30.34,36.68a17.56,17.56,0,0,1-10.61-4,3.43,3.43,0,0,1-.73-4.76,18.22,18.22,0,0,0-16.42-28.83,3.5,3.5,0,0,1-3.62-2.44q-1.12-3.56-2.12-7.32L96.85,13.9a6.83,6.83,0,0,0-6.48-4.67h0a6.75,6.75,0,0,0-6.48,4.71L61.06,83.41a96.94,96.94,0,0,1-4.88,12.22C49,110.47,40.24,118.72,31.4,118.72c-9.43,0-18.67-9.27-26.18-26.17a2.78,2.78,0,0,0-3-1.68A2.69,2.69,0,0,0,.14,94.39l26.14,77.89a5.77,5.77,0,0,0,5.54,4h0a5.76,5.76,0,0,0,5.53-4l25.82-78a64.83,64.83,0,0,1,7.51-15.65c6.07-9.12,12.83-14,19.63-14,7.58,0,15.05,6,21.57,17.09a3.39,3.39,0,0,1-.61,4.21,18.24,18.24,0,0,0,12.27,31.73h0A3.55,3.55,0,0,1,127,120l17.56,52.33a5.77,5.77,0,0,0,5.54,4h0a5.76,5.76,0,0,0,5.53-4L184.92,83.7c.3-.89.6-1.79.89-2.7L210.37,6.85A5.22,5.22,0,0,0,208,.68"/></g></g></svg>