<svg xmlns="http://www.w3.org/2000/svg" xmlns:xlink="http://www.w3.org/1999/xlink" viewBox="0 0 1009.06 267.54"><defs><style>.cls-1{fill:#fff;}.cls-2{fill:#151a3a;}.cls-3{fill:url(#Degradado_sin_nombre_25);}</style><linearGradient id="Degradado_sin_nombre_25" y1="133.77" x2="319.71" y2="133.77" gradientUnits="userSpaceOnUse"><stop offset="0" stop-color="#2a6197"/><stop offset="0.13" stop-color="#255182"/><stop offset="0.37" stop-color="#1e3963"/><stop offset="0.59" stop-color="#19284c"/><stop offset="0.81" stop-color="#161e3f"/><stop offset="1" stop-color="#151a3a"/></linearGradient></defs><g id="Capa_2" data-name="Capa 2"><g id="Capa_1-2" data-name="Capa 1"><path class="cls-1" d="M437.41,104.92q-3.69-10.1-11.33-14.47t-21.66-4.37q-15.65,0-23.95,5.3a17,17,0,0,0-8.31,15.26q0,8.25,6.22,12.74t20,6.22l14.15,1.85Q427.93,129.3,435,135t7.08,16.12q0,12.19-9,18.34t-26.78,6.16q-35.33,0-39.64-23.14h3.08a22.47,22.47,0,0,0,11.39,15.26q9,5.06,25.17,5.05,32.76,0,32.75-21.54,0-9.48-6.59-14.41T410.7,130l-12.56-1.6q-15.15-2-22.1-7.14t-7-14.4a19.78,19.78,0,0,1,9.29-17.42q9.3-6.21,26-6.22,15,0,23.39,4.86t12.43,16.07Z"/><path class="cls-1" d="M460.92,85.47h3V96.79h-3Zm0,25h3v62.9h-3Z"/><path class="cls-1" d="M521.37,172.13a29.09,29.09,0,0,1-12.68,2.59q-17.73,0-17.73-17.85V112.92H478.28v-2.46H491V92.85h3v17.61H520v2.46h-26.1v44q0,15.27,14.78,15.26a31.17,31.17,0,0,0,11.94-2.33Z"/><path class="cls-1" d="M531.09,142.83q0,14.16,7.94,22t22.22,7.88q10.21,0,17.24-3.88a20.13,20.13,0,0,0,9.6-10.89h2.83a22.13,22.13,0,0,1-10.34,12.8q-7.76,4.56-19.33,4.55-15.87,0-24.5-8.55t-8.61-24.32a39.15,39.15,0,0,1,3.88-18,27.69,27.69,0,0,1,11.26-11.82,34.87,34.87,0,0,1,17.48-4.18q15,0,23.33,8.43t8.31,23.45v2.46Zm58.35-2.46q0-13.78-7.57-21.54t-21.11-7.76q-13.29,0-21.24,7.88t-8.43,21.42Z"/><polygon class="cls-1" points="693.1 173.37 664.54 89.41 636.1 173.37 632.41 173.37 603.11 85.47 606.31 85.47 634.25 169.55 662.82 85.84 666.38 85.84 694.95 169.79 723.01 85.47 726.09 85.47 696.79 173.37 693.1 173.37"/><path class="cls-1" d="M798,173.36V133.11q0-10.59-6-16.31t-17.35-5.73a39.61,39.61,0,0,0-11.21,1.6,34.23,34.23,0,0,0-9.72,4.56A27,27,0,0,0,746,125a16.58,16.58,0,0,0-2.58,8.69v39.63h-3V85.47h3v39.64a29.66,29.66,0,0,1,12.43-12.19,38.87,38.87,0,0,1,18.72-4.43q12.55,0,19.45,6.46t6.89,18.16v40.25Z"/><path class="cls-1" d="M821.62,142.83q0,14.16,7.94,22t22.22,7.88q10.22,0,17.24-3.88a20.13,20.13,0,0,0,9.6-10.89h2.83a22.13,22.13,0,0,1-10.34,12.8q-7.75,4.56-19.33,4.55-15.88,0-24.5-8.55t-8.61-24.32a39.27,39.27,0,0,1,3.87-18,27.72,27.72,0,0,1,11.27-11.82,34.87,34.87,0,0,1,17.48-4.18q15,0,23.33,8.43t8.31,23.45v2.46ZM880,140.37q0-13.78-7.57-21.54t-21.11-7.76q-13.29,0-21.24,7.88t-8.43,21.42Z"/><path class="cls-1" d="M901.15,173.36v-62.9h3V125a29.84,29.84,0,0,1,26.72-15.51,42.44,42.44,0,0,1,6.28.49l-.37,2.84a30.52,30.52,0,0,0-5.91-.5,27.87,27.87,0,0,0-21.92,9.85,20.35,20.35,0,0,0-3.75,5.73,15.7,15.7,0,0,0-1,5.85v39.63Z"/><path class="cls-1" d="M945.84,142.83q0,14.16,7.94,22T976,172.75q10.21,0,17.23-3.88a20.13,20.13,0,0,0,9.6-10.89h2.84a22.15,22.15,0,0,1-10.35,12.8q-7.76,4.56-19.32,4.55-15.88,0-24.5-8.55t-8.62-24.32a39.15,39.15,0,0,1,3.88-18A27.69,27.69,0,0,1,958,112.67a34.91,34.91,0,0,1,17.49-4.18q15,0,23.32,8.43t8.31,23.45v2.46Zm58.35-2.46q0-13.78-7.57-21.54t-21.11-7.76q-13.31,0-21.24,7.88t-8.43,21.42Z"/><path class="cls-2" d="M611.42,224.46a8,8,0,0,1-5.48-1.75,6.22,6.22,0,0,1-2-4.87,9.31,9.31,0,0,1,1.17-4.67,8.35,8.35,0,0,1,3.39-3.27,10.49,10.49,0,0,1,5.09-1.2,7.86,7.86,0,0,1,4.77,1.36,5.5,5.5,0,0,1,2.23,3.78l-3.49.45a3.44,3.44,0,0,0-3.79-2.91,5.92,5.92,0,0,0-3,.76,5.25,5.25,0,0,0-2.07,2.18,7,7,0,0,0-.76,3.34,4,4,0,0,0,1.1,3.07,4.42,4.42,0,0,0,3.18,1,4.64,4.64,0,0,0,4.77-3H620A7.55,7.55,0,0,1,617,223a9.8,9.8,0,0,1-5.53,1.46"/><path class="cls-2" d="M636.84,224.46a9.93,9.93,0,0,1-4.12-.81,6.66,6.66,0,0,1-2.81-2.33,6.26,6.26,0,0,1-1-3.54,9.26,9.26,0,0,1,1.18-4.69,8.39,8.39,0,0,1,3.4-3.22,10.88,10.88,0,0,1,5.16-1.17,9.92,9.92,0,0,1,4.11.81,6.53,6.53,0,0,1,2.81,2.33,6.18,6.18,0,0,1,1,3.54,9.19,9.19,0,0,1-1.18,4.68,8.29,8.29,0,0,1-3.4,3.23,10.87,10.87,0,0,1-5.15,1.17m.22-2.68a5.8,5.8,0,0,0,4.36-1.67,6.25,6.25,0,0,0,1.61-4.5,4,4,0,0,0-1.24-3.1,4.86,4.86,0,0,0-3.38-1.13,5.8,5.8,0,0,0-4.36,1.67,6.25,6.25,0,0,0-1.61,4.5,4,4,0,0,0,1.24,3.1,4.86,4.86,0,0,0,3.38,1.13"/><path class="cls-2" d="M657.54,209.15h3.37l-.52,2.43a9.49,9.49,0,0,1,3.09-2.13,9.24,9.24,0,0,1,3.65-.75,5.94,5.94,0,0,1,3.84,1.14,3.8,3.8,0,0,1,1.42,3.11,11.31,11.31,0,0,1-.26,2.2l-1.8,8.85H666.9l1.77-8.71a6.81,6.81,0,0,0,.17-1.37,2.23,2.23,0,0,0-.75-1.82,3.4,3.4,0,0,0-2.22-.63,6.27,6.27,0,0,0-2.25.43,7,7,0,0,0-2.08,1.2,6.25,6.25,0,0,0-1.33,1.45,4.5,4.5,0,0,0-.7,1.69L657.94,224h-3.43Z"/><path class="cls-2" d="M683.49,209.15h3.37l-.51,2.43a9.35,9.35,0,0,1,6.74-2.88,6,6,0,0,1,3.84,1.14,3.79,3.79,0,0,1,1.41,3.11,10.58,10.58,0,0,1-.26,2.2L696.29,224h-3.43l1.77-8.71a7.63,7.63,0,0,0,.17-1.37,2.21,2.21,0,0,0-.76-1.82,3.37,3.37,0,0,0-2.21-.63,6.27,6.27,0,0,0-2.25.43,7,7,0,0,0-2.09,1.2,6.73,6.73,0,0,0-1.33,1.45,4.86,4.86,0,0,0-.7,1.69L683.89,224h-3.42Z"/><path class="cls-2" d="M714.65,224.46a8.16,8.16,0,0,1-5.54-1.74,6,6,0,0,1-2-4.8,9.79,9.79,0,0,1,.75-3.8,8.35,8.35,0,0,1,2.13-3,9.69,9.69,0,0,1,6.8-2.4,8.16,8.16,0,0,1,5.24,1.55,5.18,5.18,0,0,1,1.92,4.24,9.36,9.36,0,0,1-.14,1.72l-.2,1.23H710.36a4.18,4.18,0,0,0,0,.62,3.54,3.54,0,0,0,1.19,2.86,5.09,5.09,0,0,0,3.38,1,6.82,6.82,0,0,0,3-.59,3.59,3.59,0,0,0,1.74-1.72H723a6.52,6.52,0,0,1-3,3.61,10.68,10.68,0,0,1-5.42,1.24m6.08-9.31a2.36,2.36,0,0,0,.07-.44c0-.15,0-.28,0-.42A2.68,2.68,0,0,0,719.7,212a5,5,0,0,0-3-.83,6.45,6.45,0,0,0-3.75,1,5.14,5.14,0,0,0-2,2.94Z"/><path class="cls-2" d="M739.89,224.46a8,8,0,0,1-5.49-1.75,6.22,6.22,0,0,1-2-4.87,9.31,9.31,0,0,1,1.17-4.67A8.35,8.35,0,0,1,737,209.9a10.5,10.5,0,0,1,5.1-1.2,7.8,7.8,0,0,1,4.76,1.36,5.5,5.5,0,0,1,2.23,3.78l-3.48.45a3.45,3.45,0,0,0-3.8-2.91,6,6,0,0,0-3,.76,5.38,5.38,0,0,0-2.07,2.18,7.12,7.12,0,0,0-.75,3.34,4,4,0,0,0,1.09,3.07,4.46,4.46,0,0,0,3.19,1,4.64,4.64,0,0,0,4.77-3h3.45a7.5,7.5,0,0,1-3.07,4.19,9.74,9.74,0,0,1-5.52,1.46"/><path class="cls-2" d="M762.87,224.32q-4.51,0-4.51-3.57a9.38,9.38,0,0,1,.2-1.83l1.46-7.17h-2.89l.55-2.59h2.88l.8-4h3.43l-.8,4h5.08l-.54,2.59h-5.09L762,219a4.81,4.81,0,0,0-.11,1c0,1.07.68,1.6,2,1.6a9.11,9.11,0,0,0,2.26-.34l.43,2.49a13.5,13.5,0,0,1-3.72.54"/><path class="cls-2" d="M797,224.46a8.16,8.16,0,0,1-5.54-1.74,6,6,0,0,1-2-4.8,9.79,9.79,0,0,1,.75-3.8,8.35,8.35,0,0,1,2.13-3,9.69,9.69,0,0,1,6.8-2.4,8.16,8.16,0,0,1,5.24,1.55,5.19,5.19,0,0,1,1.93,4.24,9.33,9.33,0,0,1-.15,1.72l-.2,1.23H792.68a4.66,4.66,0,0,0,0,.62,3.54,3.54,0,0,0,1.18,2.86,5.09,5.09,0,0,0,3.38,1,6.82,6.82,0,0,0,3-.59,3.59,3.59,0,0,0,1.74-1.72h3.4a6.52,6.52,0,0,1-3,3.61,10.68,10.68,0,0,1-5.42,1.24m6.08-9.31a2.36,2.36,0,0,0,.07-.44c0-.15,0-.28,0-.42A2.68,2.68,0,0,0,802,212a5,5,0,0,0-3-.83,6.45,6.45,0,0,0-3.75,1,5.14,5.14,0,0,0-2,2.94Z"/><polygon class="cls-2" points="814.18 209.16 817.84 209.16 820.55 220.69 827.92 209.16 831.77 209.16 821.75 224 818.13 224 814.18 209.16"/><path class="cls-2" d="M844.77,224.46a8.16,8.16,0,0,1-5.54-1.74,6,6,0,0,1-2-4.8,9.79,9.79,0,0,1,.75-3.8,8.35,8.35,0,0,1,2.13-3,9.69,9.69,0,0,1,6.8-2.4,8.16,8.16,0,0,1,5.24,1.55,5.18,5.18,0,0,1,1.92,4.24,9.36,9.36,0,0,1-.14,1.72l-.2,1.23H840.48a4.18,4.18,0,0,0,0,.62,3.54,3.54,0,0,0,1.19,2.86,5.09,5.09,0,0,0,3.38,1,6.82,6.82,0,0,0,3-.59,3.59,3.59,0,0,0,1.74-1.72h3.4a6.52,6.52,0,0,1-3,3.61,10.68,10.68,0,0,1-5.42,1.24m6.08-9.31a2.36,2.36,0,0,0,.07-.44c0-.15,0-.28,0-.42a2.68,2.68,0,0,0-1.11-2.28,5,5,0,0,0-3-.83,6.45,6.45,0,0,0-3.75,1,5.14,5.14,0,0,0-2,2.94Z"/><path class="cls-2" d="M864.9,209.15h3.37l-.52,2.55a7.92,7.92,0,0,1,6-2.77,7.57,7.57,0,0,1,1.55.14l-1,2.86a7.45,7.45,0,0,0-1.54-.15,6.38,6.38,0,0,0-3.94,1.29,5.7,5.7,0,0,0-1.33,1.4,4.54,4.54,0,0,0-.69,1.68L865.3,224h-3.43Z"/><path class="cls-2" d="M882.54,229.86a8.09,8.09,0,0,1-1.57-.17,6.54,6.54,0,0,1-1.37-.43l.74-2.49a6.73,6.73,0,0,0,2,.37,3.31,3.31,0,0,0,1.73-.42,5.44,5.44,0,0,0,1.5-1.66l1.17-1.74-4.51-14.17h3.65l3.26,10.91,7-10.91H900l-10.82,16a14,14,0,0,1-3.27,3.73,5.77,5.77,0,0,1-3.33,1"/><path class="cls-2" d="M911.78,224.32q-4.51,0-4.51-3.57a9.38,9.38,0,0,1,.2-1.83l1.46-7.17H906l.54-2.59h2.89l.8-4h3.42l-.79,4H918l-.54,2.59h-5.09L910.87,219a4.9,4.9,0,0,0-.12,1c0,1.07.69,1.6,2.06,1.6a9,9,0,0,0,2.25-.34l.43,2.49a13.38,13.38,0,0,1-3.71.54"/><path class="cls-2" d="M928.14,203.62h3.43L930,211.5a9.41,9.41,0,0,1,6.65-2.8,5.94,5.94,0,0,1,3.84,1.14,3.77,3.77,0,0,1,1.42,3.11,11.66,11.66,0,0,1-.26,2.2l-1.8,8.85h-3.43l1.77-8.71a7,7,0,0,0,.18-1.37,2.24,2.24,0,0,0-.76-1.82,3.39,3.39,0,0,0-2.21-.63,6.28,6.28,0,0,0-2.26.43,7.16,7.16,0,0,0-2.08,1.19,6.5,6.5,0,0,0-1.33,1.46,4.67,4.67,0,0,0-.7,1.69L927.43,224H924Z"/><path class="cls-2" d="M953,209.15h3.43l-3,14.85H950Zm1.09-5.53h3.54l-.69,3.34h-3.54Z"/><path class="cls-2" d="M966.69,209.15h3.37l-.51,2.43a9.35,9.35,0,0,1,6.73-2.88,5.94,5.94,0,0,1,3.84,1.14,3.77,3.77,0,0,1,1.42,3.11,11.31,11.31,0,0,1-.26,2.2l-1.8,8.85h-3.42l1.77-8.71a7.63,7.63,0,0,0,.17-1.37,2.24,2.24,0,0,0-.76-1.82,3.37,3.37,0,0,0-2.21-.63,6.32,6.32,0,0,0-2.26.43,7.1,7.1,0,0,0-2.08,1.2,6.25,6.25,0,0,0-1.33,1.45,4.67,4.67,0,0,0-.7,1.69L967.09,224h-3.43Z"/><path class="cls-2" d="M996.76,229.86q-7,0-7.4-4.71h3.46a2.36,2.36,0,0,0,1.31,1.58,6.89,6.89,0,0,0,2.91.5,8.13,8.13,0,0,0,3-.46,3.85,3.85,0,0,0,1.84-1.41,7,7,0,0,0,1-2.56l.4-1.94a6.87,6.87,0,0,1-2.73,2.06,9.53,9.53,0,0,1-3.75.71,6.7,6.7,0,0,1-4.7-1.61,5.71,5.71,0,0,1-1.76-4.41,8.82,8.82,0,0,1,1.15-4.51,8.4,8.4,0,0,1,3.25-3.2,9.43,9.43,0,0,1,4.74-1.2,7.27,7.27,0,0,1,3.46.77,5.38,5.38,0,0,1,2.25,2.23l.51-2.55h3.37l-2.57,12.65a13.13,13.13,0,0,1-1.81,4.82,6.61,6.61,0,0,1-3.1,2.48,13.06,13.06,0,0,1-4.82.76m7.48-13.68a5.66,5.66,0,0,0,.11-1.17,3.4,3.4,0,0,0-.88-2.37,4.65,4.65,0,0,0-3.57-1.26,6.57,6.57,0,0,0-3.11.72,5.16,5.16,0,0,0-2.15,2,6.18,6.18,0,0,0-.77,3.15A3.43,3.43,0,0,0,995,220,4.57,4.57,0,0,0,998,221a6.45,6.45,0,0,0,4.09-1.32,6.94,6.94,0,0,0,1.37-1.42,4.26,4.26,0,0,0,.65-1.6Z"/><path class="cls-3" d="M315.72,1a8.4,8.4,0,0,0-4.17-1H298.87c-5.32.29-8.39,3.42-8.42,8.61-.22,41.09-5.84,80.61-15.89,111.88l-1.33,4c-12.18,35.38-29,55.67-46.05,55.67-5.46,0-10.87-2-16.11-6A5.22,5.22,0,0,1,210,167,27.67,27.67,0,0,0,185,123.2a5.28,5.28,0,0,1-5.48-3.7q-1.73-5.4-3.23-11.11L147,21.09A10.38,10.38,0,0,0,137.17,14h0a10.24,10.24,0,0,0-9.83,7.15L92.68,126.61a146.94,146.94,0,0,1-7.41,18.55c-11,22.52-24.19,35-37.61,35-14.31,0-28.34-14.06-39.74-39.73a4.24,4.24,0,0,0-4.5-2.55,4.11,4.11,0,0,0-3.21,5.35L39.89,261.5a8.75,8.75,0,0,0,8.4,6h0a8.75,8.75,0,0,0,8.39-6.08L95.89,143a99.25,99.25,0,0,1,11.41-23.76C116.52,105.38,126.78,98,137.1,98c11.5,0,22.84,9.18,32.73,26a5.12,5.12,0,0,1-.92,6.39,27.68,27.68,0,0,0,18.62,48.15h0a5.42,5.42,0,0,1,5.19,3.63l26.65,79.43a8.75,8.75,0,0,0,8.41,6h0a8.75,8.75,0,0,0,8.39-6.08L280.69,127c.45-1.35.9-2.71,1.35-4.09L319.31,10.39A7.92,7.92,0,0,0,315.72,1"/></g></g></svg>