<svg xmlns="http://www.w3.org/2000/svg" viewBox="0 0 930.94 176.26"><defs><style>.cls-1{fill:#f2f2f2;}</style></defs><g id="Capa_2" data-name="Capa 2"><g id="Capa_1-2" data-name="Capa 1"><path class="cls-1" d="M316.28,99.11c-5.34-4.28-13.81-7.13-25.13-8.49l-15.23-2c-9.5-1.19-16.42-3.31-20.58-6.32-3.93-2.84-5.85-6.79-5.85-12.07a16.29,16.29,0,0,1,8-14.72c5.6-3.57,13.9-5.37,24.66-5.37,9.65,0,17.15,1.49,22.29,4.43s8.82,7.75,11.29,14.5a2,2,0,0,0,2.38,1.24l3-.79a2,2,0,0,0,1.27-1,2,2,0,0,0,.11-1.61c-3.06-8.44-7.85-14.6-14.24-18.31s-15.08-5.5-26.14-5.5c-12.34,0-22.13,2.36-29.1,7A23.27,23.27,0,0,0,242.18,70.5c0,7.26,2.79,13,8.29,17.09,5.31,4,13.38,6.58,24.69,8l13.5,1.72c10.45,1.28,18,3.6,22.4,6.9,4.22,3.16,6.27,7.7,6.27,13.88,0,14.23-10.85,21.15-33.19,21.15-11.16,0-19.93-1.74-26.08-5.17A22,22,0,0,1,246.8,119a2,2,0,0,0-2-1.55h-3.31a2,2,0,0,0-1.54.72,2,2,0,0,0-.43,1.65c3.27,17.58,18.27,26.5,44.57,26.5,13.05,0,23.11-2.34,29.9-7,7-4.78,10.6-12,10.6-21.37C324.64,109.9,321.83,103.55,316.28,99.11Z"/><rect class="cls-1" x="340.88" y="72.34" width="7.18" height="71.61" rx="2"/><rect class="cls-1" x="340.88" y="45.48" width="7.18" height="16.17" rx="2"/><path class="cls-1" d="M409,137.51a2,2,0,0,0-2.67-1.24,31.55,31.55,0,0,1-12.07,2.36c-9.47,0-13.88-4.58-13.88-14.41V79h26.05a2,2,0,0,0,2-2V74.34a2,2,0,0,0-2-2H380.34V55.42a2,2,0,0,0-2-2h-3.17a2,2,0,0,0-2,2V72.34H361.54a2,2,0,0,0-2,2V77a2,2,0,0,0,2,2h11.63v45.23c0,13.86,7.28,21.19,21.05,21.19a33.33,33.33,0,0,0,14.49-3,2,2,0,0,0,1-2.41Z"/><path class="cls-1" d="M476.68,79.88c-6.31-6.41-15.23-9.66-26.49-9.66A39.75,39.75,0,0,0,430.41,75a32,32,0,0,0-12.9,13.54,44.27,44.27,0,0,0-4.39,20.22c0,11.79,3.32,21.06,9.86,27.55s15.86,9.78,27.73,9.78c8.62,0,16-1.74,21.79-5.17a25.88,25.88,0,0,0,12-14.89,2,2,0,0,0-1.91-2.6h-3a2,2,0,0,0-1.88,1.31,19.57,19.57,0,0,1-9.41,10.65c-4.7,2.6-10.61,3.92-17.56,3.92-9.63,0-17.2-2.65-22.47-7.89-4.9-4.85-7.55-11.66-7.9-20.26h63.85a2,2,0,0,0,2-2v-2.65C486.19,95.24,483,86.29,476.68,79.88Zm-56.26,24.61c.66-8.16,3.47-14.75,8.35-19.6,5.28-5.23,12.48-7.89,21.42-7.89,9.1,0,16.25,2.6,21.25,7.74,4.66,4.77,7.19,11.41,7.53,19.75Z"/><path class="cls-1" d="M627.88,46.48h-3.31a1,1,0,0,0-1,.69L594.39,135,564.65,47.56a1,1,0,0,0-.94-.68h-3.84a1,1,0,0,0-1,.68l-29.73,87.16-29.1-87.55a1,1,0,0,0-.95-.69H495.7a1,1,0,0,0-.95,1.32l31.49,94.47a1,1,0,0,0,1,.68h4a1,1,0,0,0,.94-.68l29.62-87.44,29.75,87.44a1,1,0,0,0,.95.68h4a1,1,0,0,0,.94-.68L628.82,47.8a1,1,0,0,0-.13-.9A1,1,0,0,0,627.88,46.48Z"/><path class="cls-1" d="M701.59,78.44c-5.11-4.79-12.37-7.21-21.59-7.21a43,43,0,0,0-20.58,4.88,33.51,33.51,0,0,0-11.89,10.44V47.48a1,1,0,0,0-1-1h-3.18a1,1,0,0,0-1,1V142a1,1,0,0,0,1,1h3.18a1,1,0,0,0,1-1V99.35a16.89,16.89,0,0,1,2.63-8.81,27.88,27.88,0,0,1,7.92-8.09,35.91,35.91,0,0,1,10.17-4.77A41.56,41.56,0,0,1,680,76c7.82,0,13.86,2,18,5.88s6.17,9.54,6.17,16.81V142a1,1,0,0,0,1,1h3.18a1,1,0,0,0,1-1V98.69C709.32,90.06,706.72,83.25,701.59,78.44Z"/><path class="cls-1" d="M762.43,71.22a38.66,38.66,0,0,0-19.28,4.63A30.91,30.91,0,0,0,730.65,89a43.31,43.31,0,0,0-4.28,19.77c0,11.52,3.21,20.55,9.56,26.84s15.43,9.49,27,9.49c8.43,0,15.59-1.7,21.28-5a24.88,24.88,0,0,0,11.56-14.33,1,1,0,0,0-.15-.89,1,1,0,0,0-.8-.41H791.8a1,1,0,0,0-.93.66A20.86,20.86,0,0,1,781,136.25c-4.85,2.68-10.92,4-18,4-9.91,0-17.71-2.75-23.18-8.18-5.28-5.23-8-12.62-8.23-22h64.89a1,1,0,0,0,1-1v-2.65c0-11-3.11-19.7-9.22-25.9S773.42,71.22,762.43,71.22Zm-30.84,34.27c.52-8.91,3.45-16.07,8.72-21.31,5.48-5.43,12.92-8.18,22.12-8.18,9.38,0,16.77,2.71,22,8,5,5.15,7.66,12.36,7.84,21.45Z"/><path class="cls-1" d="M854.8,72.82c-9-1.37-17.22-.08-24.14,4a33,33,0,0,0-10.47,9.7V74.34a1,1,0,0,0-1-1H816a1,1,0,0,0-1,1V142a1,1,0,0,0,1,1h3.17a1,1,0,0,0,1-1V99.35a16,16,0,0,1,1.06-5.92,20.8,20.8,0,0,1,3.86-5.86A29,29,0,0,1,847.9,77.33a32,32,0,0,1,6.16.51,1,1,0,0,0,.77-.17,1,1,0,0,0,.41-.68l.4-3A1,1,0,0,0,854.8,72.82Z"/><path class="cls-1" d="M921.72,80.59c-6.13-6.22-14.8-9.37-25.79-9.37a38.66,38.66,0,0,0-19.28,4.63A30.91,30.91,0,0,0,864.15,89a43.31,43.31,0,0,0-4.28,19.77c0,11.52,3.21,20.55,9.56,26.84s15.43,9.49,27,9.49c8.43,0,15.59-1.7,21.28-5a24.88,24.88,0,0,0,11.56-14.33,1,1,0,0,0-.15-.89,1,1,0,0,0-.8-.41H925.3a1,1,0,0,0-.93.66,20.86,20.86,0,0,1-9.87,11.18c-4.85,2.68-10.92,4-18,4-9.91,0-17.71-2.75-23.18-8.18-5.28-5.24-8-12.62-8.23-22h64.89a1,1,0,0,0,1-1v-2.65C930.94,95.51,927.83,86.79,921.72,80.59Zm-56.63,24.9c.52-8.91,3.45-16.07,8.72-21.31,5.47-5.43,12.92-8.18,22.12-8.18,9.38,0,16.77,2.71,22,8,5,5.15,7.66,12.36,7.84,21.45Z"/><path class="cls-1" d="M208,.68A5.46,5.46,0,0,0,205.26,0H196.9c-3.5.19-5.53,2.25-5.55,5.67-.14,27.07-3.85,53.11-10.46,73.71L180,82c-8,23.31-19.08,36.68-30.34,36.68a17.56,17.56,0,0,1-10.61-4,3.43,3.43,0,0,1-.73-4.76,18.22,18.22,0,0,0-16.42-28.83,3.5,3.5,0,0,1-3.62-2.44q-1.12-3.56-2.12-7.32L96.85,13.9a6.83,6.83,0,0,0-6.48-4.67h0a6.75,6.75,0,0,0-6.48,4.71L61.06,83.41a96.94,96.94,0,0,1-4.88,12.22C49,110.47,40.24,118.72,31.4,118.72c-9.43,0-18.67-9.27-26.18-26.17a2.78,2.78,0,0,0-3-1.68A2.69,2.69,0,0,0,.14,94.39l26.14,77.89a5.77,5.77,0,0,0,5.54,4h0a5.76,5.76,0,0,0,5.53-4l25.82-78a64.83,64.83,0,0,1,7.51-15.65c6.07-9.12,12.83-14,19.63-14,7.58,0,15.05,6,21.57,17.09a3.39,3.39,0,0,1-.61,4.21,18.24,18.24,0,0,0,12.27,31.73h0A3.55,3.55,0,0,1,127,120l17.56,52.33a5.77,5.77,0,0,0,5.54,4h0a5.76,5.76,0,0,0,5.53-4L184.92,83.7c.3-.89.6-1.79.89-2.7L210.37,6.85A5.22,5.22,0,0,0,208,.68"/></g></g></svg>